<svg width="5286" height="1223" viewBox="0 0 5286 1223" fill="none" xmlns="http://www.w3.org/2000/svg">
<path d="M4638.34 1172H647.663C645.088 1172 643 1174.73 643 1178.1V1180.6C643 1183.96 645.088 1186.69 647.663 1186.69H4638.34C4640.91 1186.69 4643 1183.96 4643 1180.6V1178.1C4643 1174.73 4640.91 1172 4638.34 1172Z" fill="#2E3552"/>
<path d="M3637.85 318.506L3481 340.876L3585.08 269.946L3590.37 292.683L3628.52 299.589L3637.85 318.506Z" fill="#9EC3F6"/>
<path d="M3481 340.877L3611.53 273.583L3739.43 267.155L3481 340.877Z" fill="white"/>
<path d="M3585.08 269.946L3481 340.876L3561.57 230L3585.08 269.946Z" fill="white"/>
<path d="M938.889 723.465C938.889 723.095 933.509 711.975 935.219 711.115C936.929 710.255 939.999 710.395 940.349 712.345C940.699 714.295 938.889 723.465 938.889 723.465Z" fill="#FFB27D"/>
<path d="M858.58 585.195C858.58 585.195 827.04 547.295 810.33 571.585C810.33 571.585 797.87 576.755 793.33 597.965C788.73 619.605 803.12 636.055 810.56 631.965C815.34 629.355 818.95 637.705 818.95 637.705L858.58 585.195Z" fill="#233862"/>
<path d="M897.7 786.925C922.78 777.685 946.94 734.765 946.94 734.765L939.04 729.235C932.45 738.865 902.81 757.375 902.81 757.375C902.14 749.255 901.16 741.885 899.94 735.205C891.71 689.845 872.89 676.415 867.84 673.555C867.427 673.315 866.999 673.102 866.56 672.915L866.62 673.915C866.69 675.275 866.85 678.025 867.12 681.795C869.04 709.845 876.75 794.655 897.7 786.925Z" fill="#FFB27D"/>
<path d="M813.78 567.705C813.78 567.705 809.53 550.705 784.61 556.035C784.61 556.035 796.54 554.535 799.81 559.135C799.81 559.135 790.36 554.805 784.44 558.425C778.52 562.045 777.55 574.245 778.44 577.955C779.33 581.665 785.86 592.715 790.19 592.715C794.52 592.715 799.65 588.915 799.65 588.915L813.78 567.705Z" fill="#233862"/>
<path d="M776.489 833.244C788.879 805.454 794.799 797.584 795.039 788.854C795.209 781.944 791.799 774.484 785.169 756.184C783.637 751.898 782.534 747.469 781.879 742.964C776.639 707.704 797.029 669.584 809.709 666.964C813.229 666.034 819.209 653.294 819.139 632.774L820.719 633.084L847.409 638.364C847.409 638.364 846.799 646.764 846.789 654.674C846.789 661.274 847.169 667.524 848.659 668.304L851.709 668.594C851.709 668.594 873.969 699.504 875.839 728.244C877.709 756.984 858.019 769.474 875.989 826.904C894.299 885.584 769.639 848.584 776.489 833.244Z" fill="#FFB27D"/>
<path d="M847.379 638.384C847.379 638.384 846.769 646.784 846.759 654.694C831.819 654.274 823.929 640.694 820.689 633.104L847.379 638.384Z" fill="#E8945B"/>
<path d="M852.37 645.885C852.37 645.885 817.04 646.465 817.04 624.455C817.04 602.445 812.44 587.695 835.04 586.395C857.64 585.095 861.99 593.485 863.78 600.825C865.57 608.165 861.56 645.165 852.37 645.885Z" fill="#FFB27D"/>
<path d="M851.039 585.855C851.039 585.855 841.37 611.675 826.52 615.495C811.67 619.315 805.229 615.335 805.229 615.335C812.58 608.911 817.463 600.128 819.039 590.495C819.039 590.495 843.759 573.585 851.039 585.855Z" fill="#233862"/>
<path d="M848.66 587.955C848.66 587.955 855.89 593.715 857.66 599.315C859.43 604.915 860.21 616.465 863.58 616.075C863.58 616.075 870.87 598.515 862.67 588.595C853.98 578.065 848.66 587.955 848.66 587.955Z" fill="#233862"/>
<path d="M807.77 1099.88C813.195 1121.37 820.652 1142.28 830.04 1162.35L841.7 1161.55C841.7 1161.55 835.98 1134.36 836.31 1097.64C836.54 1071.96 839.72 1041.64 849.86 1012.64C884.73 913.065 879.09 840.645 879.09 840.645L813.53 848.315L810.47 848.665C810.2 878.775 809.42 919.665 808.74 951.665C808.14 980.415 807.61 1001.95 807.61 1001.95C795.04 1029.02 799.59 1067.34 807.77 1099.88Z" fill="#163560"/>
<path d="M730.53 862.755L741.14 865.935C741.14 865.935 776.14 807.885 779.31 792.775C780.31 787.855 782.9 778.015 785.87 766.985C792.01 744.155 799.94 716.205 799.94 716.205L802.55 704.895L811.46 666.325C811.46 666.325 794.4 668.065 784.46 672.235C781.15 673.615 778.63 675.235 777.75 677.235C770.42 693.345 763.11 734.015 757.97 763.025C755.1 779.195 752.91 791.745 751.77 794.405C748.56 801.785 738.84 842.585 730.53 862.755Z" fill="#FFB27D"/>
<path d="M770.16 1094.23C773.93 1134.47 790.53 1160.48 790.53 1160.48L796.09 1164.48C796.09 1164.48 801.36 1136.13 805.09 1102.41C808.64 1070.36 813.51 1036.41 819.02 1026.09C840.88 985.035 847.46 830.095 847.46 830.095L781.04 826.795C774.35 838.035 771.44 856.465 770.75 877.425C769 930.325 781.43 999.305 783.29 1009.27C783.395 1010.04 783.24 1010.82 782.85 1011.49C769.59 1037.71 767.67 1067.66 770.16 1094.23Z" fill="#1C468A"/>
<path d="M850.04 588.824C850.04 588.824 843.14 615.824 824.41 624.524C824.41 624.524 843.14 607.904 844.73 590.054C846.32 572.204 850.04 588.824 850.04 588.824Z" fill="#233862"/>
<path d="M768.15 853.304C767.988 855.085 768.13 856.881 768.57 858.615C769.98 863.065 774.84 865.094 786.57 863.884C793.75 863.134 796.95 851.104 798.38 840.884C802.693 855.551 808.74 863.768 816.52 865.534C827.91 868.064 885.34 875.054 889.1 847.754C893.23 817.754 880.85 764.564 880.17 735.894C881.696 727.126 882.392 718.233 882.25 709.334C881.77 688.914 875.78 677.464 871.17 672.854C869.87 671.854 868.56 671.234 863.32 670.334C860.64 669.874 856.93 669.334 851.67 668.654C850.977 668.563 850.279 668.51 849.58 668.494C850.58 670.234 863.58 689.924 862.58 694.994C861.52 700.294 815.39 695.514 812.21 692.604C809.03 689.694 804 667.354 804 667.354C804 667.354 787.66 669.144 779.67 674.954L779.76 675.054C778.899 675.619 778.18 676.376 777.66 677.264C769.13 693.494 760.66 734.455 754.66 763.674C769.17 771.674 781.85 769.294 785.79 768.234C780.58 801.844 768.92 837.974 768.15 853.304Z" fill="#F99746"/>
<path d="M939.04 729.235C939.04 728.135 938.13 712.355 940.94 709.045C943.75 705.735 949.48 701.045 951.29 701.155C953.1 701.265 960.15 710.675 958.02 717.865C955.89 725.055 946.95 734.765 946.95 734.765L939.04 729.235Z" fill="#FFB27D"/>
<path d="M926.116 709.937L942.467 714.836C943.012 714.999 943.586 714.69 943.75 714.145L953.092 682.965C953.256 682.42 952.946 681.846 952.401 681.682L936.05 676.783C935.505 676.62 934.931 676.929 934.767 677.474L925.425 708.654C925.261 709.199 925.571 709.773 926.116 709.937Z" fill="#F1A34F"/>
<path d="M930.4 711.195L945.23 715.645C945.459 715.714 945.7 715.737 945.938 715.714C946.176 715.69 946.407 715.619 946.618 715.506C946.829 715.392 947.015 715.239 947.167 715.053C947.318 714.868 947.431 714.654 947.5 714.425L956.39 684.755C956.527 684.293 956.475 683.796 956.247 683.373C956.018 682.949 955.631 682.634 955.17 682.495L940.33 678.045C939.869 677.908 939.372 677.96 938.948 678.188C938.525 678.417 938.209 678.804 938.07 679.265L929.18 708.935C929.111 709.163 929.088 709.403 929.112 709.641C929.136 709.878 929.206 710.109 929.32 710.319C929.433 710.529 929.587 710.714 929.772 710.865C929.958 711.015 930.171 711.127 930.4 711.195V711.195Z" fill="#D86713"/>
<path d="M823.33 1172.13H830.77C833.26 1171.73 835.1 1171.01 837.66 1170.68C841.54 1170.17 843.33 1171.76 843.66 1172.13L843.73 1172.2H875.33C876.13 1171.06 875.33 1168.43 874.62 1166.5C874.366 1165.85 873.962 1165.27 873.441 1164.8C872.92 1164.33 872.296 1163.99 871.62 1163.8C868.27 1162.8 861.62 1161.96 855.62 1156.48C852.22 1153.41 839.19 1145.18 839.19 1145.18H839.12C838.83 1145.18 837.47 1145.6 831.54 1150.61C828.48 1153.19 823.25 1146.96 823.25 1146.96C822.533 1147.62 821.952 1148.41 821.54 1149.28C820.801 1150.79 820.563 1152.49 820.86 1154.13C821.33 1156.98 819.81 1162.27 818.6 1165.85C817.86 1168.02 817.24 1169.56 817.24 1169.56C817.24 1169.56 816.93 1171.32 823.33 1172.13Z" fill="#233862"/>
<path d="M821.59 1149.26C823.37 1150.51 827.11 1152.98 829.59 1153.26C832.95 1153.7 839.23 1145.14 839.23 1145.14H839.16C838.87 1145.14 837.51 1145.56 831.58 1150.57C828.52 1153.15 823.29 1146.92 823.29 1146.92C822.575 1147.59 821.997 1148.38 821.59 1149.26V1149.26Z" fill="#466AA5"/>
<path d="M823.33 1172.14H830.77C833.26 1171.74 835.1 1171.01 837.66 1170.68C841.54 1170.17 843.33 1171.77 843.66 1172.14L843.73 1172.2H875.33C876.13 1171.06 875.33 1168.44 874.62 1166.51C873.62 1165.66 873.39 1170.21 872.86 1170.93C872.33 1171.65 847.08 1171.21 845.62 1170.15C844.16 1169.09 839.79 1167.22 833.69 1168.68C828.38 1169.95 820.56 1166.68 818.63 1165.83C817.89 1168 817.27 1169.54 817.27 1169.54C817.27 1169.54 816.93 1171.33 823.33 1172.14Z" fill="#466AA5"/>
<path d="M783.64 1172.13H791.04C793.53 1171.73 795.37 1171.01 797.92 1170.68C801.81 1170.17 803.59 1171.76 803.92 1172.13L803.99 1172.2H835.59C836.38 1171.06 835.59 1168.43 834.87 1166.5C834.617 1165.85 834.214 1165.26 833.693 1164.8C833.171 1164.33 832.547 1163.99 831.87 1163.8C828.52 1162.8 821.87 1161.96 815.87 1156.48C812.46 1153.41 799.43 1145.18 799.43 1145.18H799.36C799.07 1145.18 797.71 1145.6 791.78 1150.61C788.72 1153.19 783.5 1146.96 783.5 1146.96C782.782 1147.62 782.198 1148.41 781.78 1149.28C781.052 1150.79 780.814 1152.49 781.1 1154.13C781.58 1156.98 780.1 1162.27 778.84 1165.85C778.1 1168.02 777.48 1169.56 777.48 1169.56C777.48 1169.56 777.24 1171.32 783.64 1172.13Z" fill="#233862"/>
<path d="M781.89 1149.26C783.67 1150.51 787.42 1152.98 789.89 1153.26C793.25 1153.7 799.53 1145.14 799.53 1145.14H799.46C799.17 1145.14 797.81 1145.56 791.88 1150.57C788.82 1153.15 783.6 1146.92 783.6 1146.92C782.883 1147.59 782.303 1148.38 781.89 1149.26V1149.26Z" fill="#466AA5"/>
<path d="M783.639 1172.14H791.039C793.529 1171.74 795.369 1171.01 797.919 1170.68C801.809 1170.17 803.589 1171.77 803.919 1172.14L803.989 1172.2H835.589C836.379 1171.06 835.589 1168.44 834.869 1166.51C833.869 1165.66 833.639 1170.21 833.109 1170.93C832.579 1171.65 807.329 1171.21 805.869 1170.15C804.409 1169.09 800.039 1167.22 793.939 1168.68C788.639 1169.95 780.819 1166.68 778.879 1165.83C778.139 1168 777.519 1169.54 777.519 1169.54C777.519 1169.54 777.239 1171.33 783.639 1172.14Z" fill="#466AA5"/>
<path d="M869.21 671.885C869.21 671.885 891.21 682.975 898.58 727.725C898.58 727.725 891.37 737.615 881.2 740.535C879.724 740.964 878.204 741.226 876.67 741.315C864.19 741.975 869.21 671.885 869.21 671.885Z" fill="#F99746"/>
<path d="M952.96 702.365C952.96 702.365 946.15 691.885 944.49 692.475C942.11 693.305 950.66 706.605 950.66 706.605C950.66 706.605 944.33 696.665 943.34 697.415C941.08 699.115 944.67 705.355 948.23 710.145C948.23 710.145 941.86 704.305 941.65 705.355C940.93 709.045 948.65 717.965 948.65 717.965L952.96 708.105V702.365Z" fill="#FFB27D"/>
<path d="M958.04 712.095C957.71 710.815 956.04 685.795 955.34 688.165C954.64 690.535 952.93 703.655 952.93 703.655L958.04 712.095Z" fill="#FFB27D"/>
<path d="M845.47 632.815C845.47 632.815 846.08 635.405 852.53 635.005C852.53 635.005 857.95 634.675 857.78 631.825C857.78 631.825 852.53 629.795 845.47 632.815Z" fill="white"/>
<path d="M730.53 862.755C730.53 862.755 717.74 871.265 715.78 874.855C713.82 878.445 709.26 891.645 709.26 891.645C709.26 891.645 712.52 892.125 715.78 886.425C719.04 880.725 729.78 881.205 733.38 878.115C736.98 875.025 741.14 865.935 741.14 865.935L730.53 862.755Z" fill="#FFB27D"/>
<path d="M739.75 868.745C739.75 868.745 737.62 878.745 735.01 881.745C732.4 884.745 728.82 889.575 727.35 888.265C725.88 886.955 728.98 876.045 728.98 876.045L739.75 868.745Z" fill="#FFB27D"/>
<path d="M717.57 875.995C717.25 876.485 706 888.435 706 888.435C706 888.435 710.07 890.285 711.22 888.435C712.37 886.585 717.57 875.995 717.57 875.995Z" fill="#FFB27D"/>
<path d="M1295.51 107.11L1487.05 136.845L1360.78 48.5039L1353.97 76.2366L1307.19 84.1157L1295.51 107.11Z" fill="#9EC3F6"/>
<path d="M1487.05 136.844L1328.39 52.5626L1172 42.7734L1487.05 136.844Z" fill="white"/>
<path d="M1360.79 48.5048L1487.05 136.846L1390.15 0L1360.79 48.5048Z" fill="white"/>
<path d="M1584.54 455.136L1602.48 507.756L1625.93 576.496C1630.44 576.949 1634.98 576.655 1639.39 575.626C1645.48 574.046 1652.55 569.626 1652.55 569.626C1652.55 569.626 1647.55 496.396 1635.55 454.116C1632.48 443.276 1628.93 434.496 1624.93 429.496C1605.3 404.916 1584.54 455.136 1584.54 455.136Z" fill="#233862"/>
<path d="M1630.28 436.496C1642.01 458.256 1657.52 469.166 1657.52 469.166H1722.07C1722.07 469.166 1621.33 419.886 1630.28 436.496Z" fill="#233862"/>
<path d="M1675.24 603.616C1675.99 604.482 1676.47 605.546 1676.63 606.679C1676.79 607.813 1676.62 608.968 1676.13 610.006C1674.48 614.206 1669.27 618.806 1663.25 623.386C1662.48 623.966 1661.79 624.506 1661.25 625.006L1660.78 625.396L1660.43 625.696C1654.79 630.616 1656.83 631.836 1646.67 641.846C1635.09 653.256 1627.33 653.256 1625.15 652.136C1623.31 651.136 1627.27 645.056 1631.66 638.186C1631.88 637.856 1632.09 637.516 1632.3 637.186C1632.89 636.276 1633.47 635.346 1634.05 634.426C1639.2 626.156 1638.05 622.176 1637.22 609.626C1636.48 599.496 1622.93 552.436 1622.93 552.436L1644.61 549.306C1644.61 549.306 1650.1 586.616 1657.11 592.536C1660.86 595.686 1665.11 595.836 1668.76 598.196L1669.51 598.706C1671.64 600.076 1673.56 601.727 1675.24 603.616Z" fill="#FFB27D"/>
<path d="M1675.24 603.616C1675.99 604.482 1676.47 605.546 1676.63 606.68C1676.79 607.814 1676.62 608.969 1676.13 610.006C1674.13 614.196 1669.06 618.776 1663.23 623.336C1662.47 623.936 1661.79 624.486 1661.23 625.006L1660.76 625.396L1660.41 625.696C1654.77 630.616 1656.81 631.836 1646.65 641.846C1635.07 653.256 1627.31 653.256 1625.13 652.136C1623.29 651.136 1627.25 645.056 1631.64 638.186C1639.61 635.331 1646.68 630.414 1652.12 623.936C1659.12 615.476 1663.97 604.476 1668.76 598.156L1669.51 598.666C1671.64 600.048 1673.57 601.714 1675.24 603.616Z" fill="#233862"/>
<path d="M1501.57 585.386C1500.05 592.016 1490.57 590.646 1480.04 587.766C1469.51 584.886 1471.94 588.036 1456.89 585.946C1441.84 583.856 1437.41 578.116 1437.01 575.856C1436.65 573.856 1444.14 573.346 1452.16 572.646C1453.16 572.566 1454.16 572.466 1455.16 572.366C1464.23 571.476 1471 565.826 1479.34 561.266C1487.24 556.936 1499.34 538.776 1499.34 538.776L1520 540.986C1520 540.986 1508.68 557.186 1504.29 564.256C1501.7 568.406 1501.68 573.996 1501.87 578.256C1502.09 580.636 1501.99 583.033 1501.57 585.386Z" fill="#FFB27D"/>
<path d="M1480.04 587.766C1469.51 584.886 1471.94 588.035 1456.89 585.945C1441.84 583.855 1437.41 578.115 1437.01 575.855C1436.65 573.855 1444.14 573.346 1452.16 572.646L1452.23 572.805C1458.59 577.129 1466 579.655 1473.68 580.115C1483.92 580.645 1494.85 578.005 1501.92 578.305C1502.12 580.671 1502 583.051 1501.57 585.385C1500.05 592.015 1490.58 590.646 1480.04 587.766Z" fill="#233862"/>
<path d="M1606.47 372.936C1619.27 369.196 1655.3 375.426 1691.47 383.536L1699.47 371.196L1778.13 367.196C1778.13 367.196 1802.46 425.346 1787.29 461.556C1785.06 466.876 1781.12 469.236 1774.05 469.156H1772.65C1772.65 469.156 1725.92 469.576 1710.75 469.156C1671.75 468.096 1628.85 439.306 1623.25 438.026C1614.07 435.926 1609.88 454.276 1600.12 473.406C1590.36 492.536 1511.06 556.846 1511.06 556.846C1511.06 556.846 1499.14 556.646 1494.27 554.666C1489.03 552.536 1487.17 549.906 1487.17 549.906C1487.17 549.906 1577.62 381.386 1606.47 372.936Z" fill="#2B478B"/>
<path d="M1702.8 263.116C1730.33 279.266 1786.16 312.716 1786.46 312.516C1786.46 312.516 1807.09 320.936 1819.12 313.406C1839.18 300.856 1850.71 265.926 1815.5 234.626C1797.94 219.026 1785.27 214.996 1783.99 190.806C1783.29 177.686 1766.57 133.976 1736.72 137.166C1734.23 137.464 1731.72 137.558 1729.21 137.446C1723.92 137.146 1718.65 138.357 1714.01 140.936C1696.93 150.496 1661.06 256.016 1702.8 263.116Z" fill="#233862"/>
<path d="M1726.58 250.656C1726.46 250.726 1740.2 255.846 1749.58 251.986C1758.41 248.366 1765.42 234.186 1765.29 234.176C1761.29 233.886 1757.06 230.296 1754.29 207.426L1752.58 207.986L1723.93 217.496C1723.93 217.496 1725.74 226.676 1726.84 235.396C1727.75 242.666 1728.16 249.666 1726.58 250.656Z" fill="#FFB27D"/>
<path d="M1723.93 217.496C1723.93 217.496 1725.74 226.676 1726.84 235.396C1743.24 232.896 1750.09 216.806 1752.63 208.036L1723.93 217.496Z" fill="#ED975D"/>
<path d="M1719.44 226.386C1719.44 226.386 1758.44 222.226 1755.51 197.956C1752.58 173.686 1755.58 156.806 1730.51 158.436C1705.44 160.066 1701.76 169.916 1700.78 178.256C1699.8 186.596 1709.21 226.836 1719.44 226.386Z" fill="#FFB27D"/>
<path d="M1702.59 165.046C1702.59 165.046 1726.9 187.176 1743.79 189.366C1760.68 191.556 1767.23 186.296 1767.23 186.296C1760.64 180.063 1755.4 172.545 1751.83 164.206C1751.03 162.242 1749.71 160.531 1748.02 159.249C1746.32 157.967 1744.32 157.162 1742.21 156.916C1730.14 155.546 1707.23 154.436 1702.59 165.046Z" fill="#233862"/>
<path d="M1718.2 163.546C1718.2 163.546 1709.65 171.376 1706.87 177.276C1704.18 182.966 1703.04 196.736 1704.87 202.276C1704.87 202.276 1692.58 176.686 1700.26 164.626C1708.45 151.836 1718.2 163.546 1718.2 163.546Z" fill="#233862"/>
<path d="M1692.27 307.056C1691.27 385.806 1690.9 369.336 1699.27 377.056C1701.27 378.906 1707.1 380.136 1714.76 380.856C1738.86 383.116 1781.4 380.296 1783.14 375.856C1789.14 360.566 1785.32 355.666 1790.61 332.166C1791.17 329.666 1791.84 326.956 1792.61 324.016C1796.93 307.886 1800.85 302.466 1787.82 276.016C1776 252.016 1763.58 232.536 1762.39 233.196C1728.98 251.816 1726.78 235.336 1726.78 235.336C1726.78 235.336 1692.74 268.636 1692.27 307.056Z" fill="white"/>
<path d="M1602.48 507.756L1625.93 576.496C1630.44 576.949 1634.98 576.655 1639.39 575.626C1645.48 574.046 1652.55 569.626 1652.55 569.626C1652.55 569.626 1647.55 496.396 1635.55 454.116L1602.48 507.756Z" fill="#2B478B"/>
<path d="M1726.83 235.346C1726.83 235.346 1692.83 240.156 1688.47 254.616C1684.11 269.076 1658.39 354.066 1658.39 354.066C1658.39 354.066 1675.5 357.626 1683.67 349.896C1691.84 342.166 1713.32 276.896 1713.32 276.896L1726.83 235.346Z" fill="white"/>
<path d="M1714.8 380.846C1738.9 383.106 1781.44 380.286 1783.18 375.846C1789.18 360.556 1785.36 355.656 1790.65 332.156L1779.93 299.066C1779.93 299.066 1780.86 335.626 1769.84 344.936C1758.82 354.246 1725.25 362.276 1719.84 370.156C1717.46 373.341 1715.74 376.978 1714.8 380.846V380.846Z" fill="#EBF3FF"/>
<path d="M1762.46 233.186C1762.46 233.186 1794.39 236.026 1805.04 251.766C1820.04 273.926 1848.42 367.396 1830.37 379.266C1810.03 392.636 1739.46 380.436 1739.46 380.436C1739.46 380.436 1737.4 369.346 1740.83 364.106C1744.26 358.866 1797.83 351.706 1800.33 349.316C1802.83 346.926 1770.93 300.496 1771.08 293.116C1771.23 285.736 1762.46 233.186 1762.46 233.186Z" fill="white"/>
<path d="M1706.88 385.786L1592.12 382.656L1559.93 295.866L1674.52 298.986L1706.88 385.786Z" fill="#F99746"/>
<path d="M1590.86 379.276L1742.41 383.406L1742.32 386.746L1592.12 382.656L1590.86 379.276Z" fill="#ED7D2B"/>
<path d="M1622.26 340.496C1621.47 337.496 1623.26 335.056 1626.26 335.136C1627.85 335.269 1629.36 335.882 1630.58 336.893C1631.81 337.904 1632.71 339.265 1633.14 340.796C1633.93 343.796 1632.14 346.236 1629.14 346.156C1627.56 346.023 1626.05 345.411 1624.82 344.4C1623.59 343.388 1622.7 342.027 1622.26 340.496V340.496Z" fill="white"/>
<path d="M1356 1048H1094L1052 1172H873L1127 470H1325L1579 1172H1398L1356 1048ZM1312 916L1225 659L1139 916H1312ZM2081.3 812C2121.97 820.667 2154.64 841 2179.3 873C2203.97 904.333 2216.3 940.333 2216.3 981C2216.3 1039.67 2195.64 1086.33 2154.3 1121C2113.64 1155 2056.64 1172 1983.3 1172H1656.3V470H1972.3C2043.64 470 2099.3 486.333 2139.3 519C2179.97 551.667 2200.3 596 2200.3 652C2200.3 693.333 2189.3 727.667 2167.3 755C2145.97 782.333 2117.3 801.333 2081.3 812ZM1827.3 754H1939.3C1967.3 754 1988.64 748 2003.3 736C2018.64 723.333 2026.3 705 2026.3 681C2026.3 657 2018.64 638.667 2003.3 626C1988.64 613.333 1967.3 607 1939.3 607H1827.3V754ZM1953.3 1034C1981.97 1034 2003.97 1027.67 2019.3 1015C2035.3 1001.67 2043.3 982.667 2043.3 958C2043.3 933.333 2034.97 914 2018.3 900C2002.3 886 1979.97 879 1951.3 879H1827.3V1034H1953.3ZM2647.48 1179C2581.48 1179 2520.82 1163.67 2465.48 1133C2410.82 1102.33 2367.15 1059.67 2334.48 1005C2302.48 949.667 2286.48 887.667 2286.48 819C2286.48 750.333 2302.48 688.667 2334.48 634C2367.15 579.333 2410.82 536.667 2465.48 506C2520.82 475.333 2581.48 460 2647.48 460C2713.48 460 2773.82 475.333 2828.48 506C2883.82 536.667 2927.15 579.333 2958.48 634C2990.48 688.667 3006.48 750.333 3006.48 819C3006.48 887.667 2990.48 949.667 2958.48 1005C2926.48 1059.67 2883.15 1102.33 2828.48 1133C2773.82 1163.67 2713.48 1179 2647.48 1179ZM2647.48 1023C2703.48 1023 2748.15 1004.33 2781.48 967C2815.48 929.667 2832.48 880.333 2832.48 819C2832.48 757 2815.48 707.667 2781.48 671C2748.15 633.667 2703.48 615 2647.48 615C2590.82 615 2545.48 633.333 2511.48 670C2478.15 706.667 2461.48 756.333 2461.48 819C2461.48 881 2478.15 930.667 2511.48 968C2545.48 1004.67 2590.82 1023 2647.48 1023ZM3269.62 470V890C3269.62 932 3279.95 964.333 3300.62 987C3321.28 1009.67 3351.62 1021 3391.62 1021C3431.62 1021 3462.28 1009.67 3483.62 987C3504.95 964.333 3515.62 932 3515.62 890V470H3686.62V889C3686.62 951.667 3673.28 1004.67 3646.62 1048C3619.95 1091.33 3583.95 1124 3538.62 1146C3493.95 1168 3443.95 1179 3388.62 1179C3333.28 1179 3283.62 1168.33 3239.62 1147C3196.28 1125 3161.95 1092.33 3136.62 1049C3111.28 1005 3098.62 951.667 3098.62 889V470H3269.62ZM4311.7 470V607H4125.7V1172H3954.7V607H3768.7V470H4311.7Z" fill="#368371"/>
<path d="M2633.92 822.104C2633.92 822.104 2622.73 838.653 2616.35 873.453C2610.77 903.933 2605.87 915.183 2597.8 921.453C2589.73 927.723 2544.8 946.154 2544.8 946.154L2548.17 954.034C2548.17 954.034 2614.07 945.034 2621.47 934.034C2628.87 923.034 2657.09 857.943 2654.9 842.953C2652.71 827.963 2633.92 822.104 2633.92 822.104Z" fill="#F4A269"/>
<path d="M2450.94 1170.03C2450.27 1176.45 2441.19 1176.24 2430.94 1174.72C2420.69 1173.2 2423.33 1175.9 2408.94 1175.65C2394.55 1175.4 2389.69 1170.48 2389.05 1168.4C2388.49 1166.55 2395.48 1165.23 2402.97 1163.65L2405.8 1163.04C2414.25 1161.17 2419.99 1155.04 2427.34 1149.82C2434.34 1144.82 2443.63 1126.33 2443.63 1126.33L2463.36 1126.05C2463.36 1126.05 2454.54 1142.63 2451.2 1149.79C2449.2 1154 2449.85 1159.27 2450.52 1163.31C2450.96 1165.52 2451.1 1167.79 2450.94 1170.03V1170.03Z" fill="#FFB27D"/>
<path d="M2430.92 1174.72C2420.66 1173.21 2423.31 1175.9 2408.92 1175.65C2394.53 1175.4 2389.67 1170.48 2389.03 1168.4C2388.47 1166.55 2395.46 1165.23 2402.95 1163.65L2403.04 1163.79C2409.51 1167.14 2416.77 1168.68 2424.04 1168.24C2433.76 1167.57 2443.76 1163.83 2450.46 1163.31C2450.92 1165.52 2451.08 1167.78 2450.94 1170.03C2450.23 1176.45 2441.23 1176.24 2430.92 1174.72Z" fill="#C65447"/>
<path d="M2664.73 956.793C2664.73 956.793 2535.38 957.423 2511.24 972.663C2487.1 987.903 2432.13 1144.85 2432.13 1144.85C2432.13 1144.85 2436.41 1150.48 2441.73 1151.21C2450.26 1152.38 2455.1 1149.06 2455.1 1149.06C2455.1 1149.06 2528.75 1075.8 2532.67 1055.79C2536.59 1035.78 2535.67 1017.93 2544.56 1017.46C2553.45 1016.99 2664.75 1030.98 2681.56 1001.33C2698.37 971.683 2684.48 942.333 2684.48 942.333L2664.73 956.793Z" fill="#EF7E29"/>
<path d="M2519.65 1167.1C2519.51 1173.55 2510.45 1174.1 2500.09 1173.45C2489.73 1172.8 2492.61 1175.26 2478.21 1176.22C2463.81 1177.18 2458.59 1172.68 2457.78 1170.66C2457.06 1168.86 2463.92 1166.96 2471.25 1164.76L2474.02 1163.91C2482.28 1161.34 2487.5 1154.78 2494.37 1148.91C2500.88 1143.37 2508.64 1124.15 2508.64 1124.15L2528.28 1122.22C2528.28 1122.22 2520.88 1139.47 2518.15 1146.89C2516.54 1151.25 2517.6 1156.44 2518.61 1160.42C2519.25 1162.59 2519.6 1164.84 2519.65 1167.1V1167.1Z" fill="#FFB27D"/>
<path d="M2500.09 1173.42C2489.74 1172.77 2492.61 1175.23 2478.21 1176.19C2463.81 1177.15 2458.59 1172.65 2457.78 1170.63C2457.06 1168.83 2463.92 1166.93 2471.25 1164.73L2471.35 1164.86C2478.1 1167.66 2485.47 1168.59 2492.7 1167.53C2502.32 1166.05 2511.97 1161.53 2518.61 1160.41C2519.24 1162.58 2519.58 1164.82 2519.61 1167.07C2519.51 1173.52 2510.45 1174.1 2500.09 1173.42Z" fill="#C65447"/>
<path d="M2689.85 964.743C2689.85 964.743 2575.92 970.133 2552.39 986.303C2528.86 1002.47 2495.81 1138.6 2495.81 1138.6C2495.81 1138.6 2500.81 1145.16 2505.81 1146.97C2512.23 1149.27 2520.89 1146.67 2520.89 1146.67C2520.89 1146.67 2566.63 1091.55 2569.77 1071.41C2572.91 1051.27 2577.77 1040.91 2586.77 1040.08C2595.77 1039.25 2683.1 1056.33 2723.06 1018.64C2747.82 995.243 2689.85 964.743 2689.85 964.743Z" fill="#F99746"/>
<path d="M2650.85 812.994C2648.64 809.124 2645.99 802.144 2644.08 789.524C2644.33 790.774 2647.59 806.634 2654.34 815.284C2680.73 830.194 2722.42 886.204 2722.16 896.774C2722.16 896.774 2747.77 862.864 2748.05 862.674C2748.05 862.674 2776.86 820.534 2738.05 800.094C2718.31 789.704 2717.4 774.734 2717.33 761.684C2717.26 748.634 2707.56 693.094 2670.55 710.264C2670.55 710.264 2664.27 707.964 2661.55 708.554C2662.81 708.712 2664 709.183 2665.03 709.924C2660.6 709.924 2654.33 710.704 2649.27 714.044C2635.85 722.884 2628.12 794.724 2650.85 812.994Z" fill="#B5453C"/>
<path d="M2694.64 803.043C2687.58 802.456 2680.48 802.456 2673.42 803.043C2667.1 803.718 2660.9 805.273 2655.01 807.663C2645.01 811.863 2646.01 829.663 2667.09 826.343C2688.17 823.023 2696.11 808.313 2694.64 803.043Z" fill="#FFB27D"/>
<path d="M2655.9 816.013C2655.77 816.073 2652.9 831.303 2666.69 830.693C2675.74 830.293 2695.27 819.333 2693.55 811.583C2692.73 807.893 2685.89 798.333 2684.55 776.503L2682.9 776.943L2655.18 784.383C2655.18 784.383 2656.41 793.183 2656.98 801.503C2657.43 808.493 2657.45 815.153 2655.9 816.013Z" fill="#FFB27D"/>
<path d="M2655.14 784.383C2655.14 784.383 2656.37 793.183 2656.94 801.503C2672.63 800.013 2679.99 785.123 2682.86 776.943L2655.14 784.383Z" fill="#F4A269"/>
<path d="M2650.42 792.613C2650.42 792.613 2687.65 790.753 2686.13 767.613C2684.61 744.473 2688.39 728.613 2664.56 728.813C2640.73 729.013 2636.69 738.163 2635.31 746.023C2633.93 753.883 2640.69 792.503 2650.42 792.613Z" fill="#FFB27D"/>
<path d="M2647.58 729.343C2647.58 729.343 2659.58 755.843 2675.47 758.823C2691.36 761.803 2697.87 757.163 2697.87 757.163C2689.71 750.905 2683.97 742.003 2681.65 731.983C2681.65 731.983 2654.4 715.893 2647.58 729.343Z" fill="#B5453C"/>
<path d="M2650.23 731.383C2650.23 731.383 2643.03 737.953 2641.57 743.983C2640.11 750.013 2640.09 762.203 2636.52 761.983C2636.52 761.983 2627.62 743.983 2635.52 732.983C2643.96 721.353 2650.23 731.383 2650.23 731.383Z" fill="#B5453C"/>
<path d="M2613.17 958.734C2616.17 962.334 2625.59 963.444 2635.64 965.094C2643.55 966.404 2651.86 968.034 2657.77 971.504C2671.19 979.384 2715.04 1006.02 2727.9 1004.8C2732.9 1004.34 2731.9 994.804 2728.9 982.204C2724.15 962.274 2714.2 934.594 2714.2 922.564C2714.2 915.994 2712.02 900.454 2709.1 882.674C2708.86 881.244 2708.62 879.804 2708.38 878.344C2702.6 843.794 2694.61 803.054 2694.61 803.054C2694.61 803.054 2685.69 822.504 2668.31 822.504C2650.93 822.504 2654.98 807.664 2654.98 807.664C2654.98 807.664 2639.12 809.534 2635.38 813.564C2631.64 817.594 2622.13 835.044 2620.25 839.794C2620.25 839.794 2619.86 845.854 2634.85 848.734C2634.85 848.734 2631.2 865.164 2630.76 876.114C2630.44 884.204 2636.29 909.524 2637.96 925.264C2638.56 930.844 2638.64 935.264 2637.73 937.264C2636.57 939.804 2632.82 942.334 2628.56 944.824C2620.12 949.704 2609.59 954.454 2613.17 958.734Z" fill="#2B478B"/>
<path d="M2628.59 944.773C2618.97 961.173 2654.67 966.103 2660.59 969.573C2674.01 977.453 2715.05 1006.02 2727.91 1004.8C2732.91 1004.34 2731.91 994.803 2728.91 982.203C2724.16 962.273 2714.21 934.593 2714.21 922.563C2714.21 915.993 2712.03 900.453 2709.11 882.673L2693.64 867.823C2693.64 867.823 2677.06 910.663 2661.26 917.693C2653.75 920.928 2645.95 923.462 2637.97 925.263C2638.57 930.843 2638.65 935.263 2637.74 937.263C2636.6 939.753 2632.85 942.283 2628.59 944.773Z" fill="#233862"/>
<path d="M2699.39 815.873C2699.39 815.873 2712.62 807.873 2725.39 823.073C2738.16 838.273 2716.3 947.243 2697.39 952.833C2676.39 959.053 2615.54 951.833 2615.54 951.833L2616.71 942.323C2616.71 942.323 2681.44 929.913 2684.13 926.453C2686.82 922.993 2692.67 817.633 2699.39 815.873Z" fill="#FFB27D"/>
<path d="M2694.64 803.043C2694.64 803.043 2721.8 805.493 2729.69 814.433C2737.58 823.373 2739.88 847.573 2739.88 847.573C2739.88 847.573 2715.96 866.883 2687.14 859.393L2694.64 803.043Z" fill="#2B478B"/>
<path d="M2621.97 941.774C2621.97 941.774 2600.89 937.694 2598.51 938.714C2596.13 939.734 2582.88 951.633 2584.24 954.013C2585.6 956.393 2591.03 958.093 2597.15 956.013C2603.27 953.933 2616.53 952.954 2618.91 949.894C2621.29 946.834 2621.97 941.774 2621.97 941.774Z" fill="#FFB27D"/>
<path d="M2605 969.293H2640.88V965.053H2605V969.293Z" fill="#9E332E"/>
<path d="M2612.63 968.713C2612.28 967.313 2579.63 916.073 2579.63 916.073H2507.03L2543.45 967.333L2612.63 968.713Z" fill="#9E332E"/>
<path d="M2609.57 969.293C2609.22 967.893 2576.48 916.073 2576.48 916.073H2507.04L2541.69 969.293H2609.57Z" fill="#B5453C"/>
<path d="M2548.35 942.854C2548.74 943.902 2549.43 944.814 2550.33 945.481C2551.22 946.148 2552.3 946.542 2553.41 946.614C2555.48 946.614 2556.59 944.934 2555.87 942.854C2555.48 941.807 2554.8 940.895 2553.9 940.227C2553.01 939.56 2551.94 939.167 2550.82 939.094C2548.74 939.104 2547.64 940.774 2548.35 942.854Z" fill="#9E332E"/>
<path d="M4276.45 784.636C4276.45 784.636 4293.77 794.486 4298.62 794.476C4303.47 794.466 4322.51 790.796 4327.81 793.476C4333.11 796.156 4342.72 807.096 4344.53 810.656C4347.77 817.066 4331.48 814.236 4323.78 808.776C4323.23 808.382 4322.61 808.109 4321.95 807.973C4321.29 807.837 4320.6 807.841 4319.94 807.986C4315.94 808.846 4307.67 810.356 4303.67 808.876C4298.29 806.876 4269.96 804.676 4269.96 804.676L4276.45 784.636Z" fill="#EA9963"/>
<path d="M4144.65 650.455C4144.65 650.455 4162.65 778.085 4192.35 789.515C4207.02 795.155 4271.86 807.945 4291.04 809.225C4291.04 809.225 4295.74 805.415 4294.6 789.895C4294.6 789.895 4226.66 764.955 4217.01 751.395C4202.64 731.205 4225.93 668.925 4207.9 649.965C4189.87 631.005 4159.52 622.855 4144.65 650.455Z" fill="#ED7D2B"/>
<path d="M4150.7 919.346C4155.97 928.106 4161.83 936.492 4168.25 944.446C4187.55 968.816 4208.56 988.906 4212.25 1007.9C4213.08 1012.02 4214.21 1016.09 4215.64 1020.05C4217.17 1024.4 4219.06 1028.98 4221.24 1033.7C4229.43 1051.49 4241.68 1071.43 4253.91 1089.55C4275.05 1120.87 4294.91 1147.01 4294.91 1147.01L4331.37 1145.46C4329.91 1141.81 4314.01 1098.55 4292.74 1045.7L4266.09 979.406L4262.56 970.636L4254.56 950.816C4234.56 901.176 4218.68 861.656 4218.68 861.656C4218.68 861.656 4138.85 831.416 4130.56 851.016C4123.7 867.166 4129.27 882.996 4150.7 919.346Z" fill="#233862"/>
<path d="M4296.03 1140.38C4296.03 1140.38 4297.9 1170.47 4303.72 1170.9C4304.49 1170.96 4333.24 1170.96 4333.24 1170.96L4369.93 1170.74C4369.93 1170.74 4369.69 1161.9 4358.93 1160.03C4348.17 1158.16 4330.25 1150.62 4323.75 1136.45C4316.95 1121.53 4296.03 1140.38 4296.03 1140.38Z" fill="#163560"/>
<path d="M4166.5 1045.77C4166.5 1045.77 4139.25 1058.67 4141.01 1064.24C4141.25 1064.97 4151.91 1091.67 4151.91 1091.67L4165.73 1125.67C4165.73 1125.67 4173.85 1122.17 4171.6 1111.51C4169.35 1100.85 4169.7 1081.39 4180.45 1070.1C4191.76 1058.21 4166.5 1045.77 4166.5 1045.77Z" fill="#163560"/>
<path d="M4176.21 1075.79C4176.21 1075.79 4160.91 1060.32 4158.12 1050.07C4158.12 1050.07 4210.75 998.916 4229.56 986.496C4251.16 972.236 4265.18 972.156 4261.72 968.666C4250.36 957.226 4154.97 923.846 4139.44 899.666C4134.83 892.577 4131.44 884.756 4129.44 876.536C4125.92 861.796 4128.7 851.616 4128.7 851.616L4247.36 848.186C4247.36 848.186 4335.58 939.696 4335.08 974.136C4334.5 1011.39 4176.21 1075.79 4176.21 1075.79Z" fill="#2B478B"/>
<path d="M4214.86 642.406C4190.86 648.616 4151.06 626.406 4151.06 626.406C4151.06 626.406 4166.51 616.016 4172.24 593.206C4172.53 592.056 4172.79 590.886 4173.02 589.676L4185.35 587.056L4203.68 603.486C4203.15 609.714 4202.25 615.906 4200.97 622.026C4200.58 624.072 4200.12 626.266 4199.59 628.606C4205.48 632.233 4210.66 636.911 4214.86 642.406V642.406Z" fill="#FFB27D"/>
<path d="M4125.64 741.905C4129.08 788.155 4124.56 858.485 4128.46 870.665C4131.83 881.175 4170.18 874.925 4185.46 871.415C4191.13 870.115 4197.99 868.265 4205.08 866.065C4224.85 859.945 4246.4 851.205 4248.71 844.715C4248.8 844.47 4248.87 844.22 4248.92 843.965C4249.14 843.071 4249.14 842.139 4248.92 841.245C4248.15 837.935 4245.18 834.355 4244.83 826.165C4244.44 817.025 4244.5 806.255 4244.15 794.675C4244.15 793.365 4244.15 791.945 4243.98 790.675V790.205C4243.98 789.955 4243.98 789.715 4243.98 789.465C4243.65 776.545 4242.98 762.965 4242.19 749.465C4241.7 741.005 4241.12 732.625 4240.46 724.605C4238.73 703.885 4236.46 685.465 4233.33 673.815C4228.33 654.815 4217.22 642.455 4207.14 633.375L4199.84 627.115C4191.69 628.895 4182.07 627.715 4173.36 623.595C4163.94 619.115 4160.68 615.915 4159.04 617.115C4137.24 633.925 4121.58 685.375 4125.64 741.905Z" fill="#F99746"/>
<path d="M4205.09 866.066C4224.86 859.946 4246.41 851.206 4248.72 844.716C4248.81 844.47 4248.88 844.22 4248.93 843.966C4248.93 843.066 4248.93 842.156 4248.93 841.246C4248.16 837.936 4245.19 834.356 4244.84 826.166C4244.45 817.026 4244.51 806.256 4244.16 794.676C4244.16 793.366 4244.16 791.946 4243.99 790.676V790.206C4243.99 789.956 4243.99 789.716 4243.99 789.466L4164.01 687.636C4164.01 687.636 4110.27 799.486 4205.09 866.066Z" fill="#ED7D2B"/>
<path d="M4203.68 603.455C4203.15 609.684 4202.25 615.875 4200.97 621.995C4183.07 616.205 4174.97 599.995 4172.24 593.175C4172.53 592.025 4172.79 590.855 4173.02 589.645L4185.35 587.025L4203.68 603.455Z" fill="#EA9963"/>
<path d="M4206.09 613.785C4206.09 613.785 4167.09 607.275 4171.48 583.025C4175.87 558.775 4173.86 541.595 4198.98 544.725C4224.1 547.855 4227.23 558.005 4227.72 566.455C4228.21 574.905 4216.36 614.855 4206.09 613.785Z" fill="#FFB27D"/>
<path d="M4359.68 821.464L4363.12 822.583L4392.42 732.423L4388.97 731.304L4359.68 821.464Z" fill="#4A75CB"/>
<path d="M4263.72 820.455L4363.18 822.573L4363.31 816.625L4263.85 814.507L4263.72 820.455Z" fill="#4A75CB"/>
<path d="M4265.76 825.046C4265.76 825.046 4297.76 833.476 4309.7 832.586C4321.64 831.696 4331.65 826.006 4333.16 823.026C4334.67 820.046 4337.84 814.776 4329.68 815.746C4321.52 816.716 4310.38 818.456 4310.03 816.886C4309.68 815.316 4316.69 815.476 4316.69 815.476C4316.69 815.476 4318.8 812.396 4316.14 812.286C4313.48 812.176 4305.71 810.066 4302.82 811.506C4299.93 812.946 4297.27 818.276 4295.17 818.056C4293.07 817.836 4268.42 806.956 4268.42 806.956L4265.76 825.046Z" fill="#FFB27D"/>
<path d="M4152.58 655.696C4152.58 655.696 4156.35 784.526 4184.65 799.166C4198.65 806.386 4261.65 826.246 4280.57 829.636C4280.57 829.636 4285.66 826.366 4286.23 810.816C4286.23 810.816 4221.46 778.536 4213.36 763.996C4201.31 742.346 4231.36 682.996 4215.5 662.176C4199.64 641.356 4170.4 629.906 4152.58 655.696Z" fill="#F99746"/>
<path d="M4172.24 593.176C4172.24 593.176 4171.79 584.856 4176.92 580.086C4176.92 580.086 4175.14 571.746 4178.44 570.376C4181.74 569.006 4182.44 576.006 4183.94 574.906C4185.44 573.806 4192.19 568.586 4195.08 560.906C4197.97 553.226 4224.39 562.526 4227.48 563.906C4230.57 565.286 4240.48 560.206 4242.38 556.076C4242.38 556.076 4236.88 551.676 4234.38 548.376C4231.88 545.076 4214.57 522.796 4190.38 529.126C4166.19 535.456 4162.88 547.006 4164.25 556.906C4165.62 566.806 4162.33 589.856 4172.24 593.176Z" fill="#2B478B"/>
</svg>
