<svg width="192" height="108" viewBox="0 0 192 108" fill="none" xmlns="http://www.w3.org/2000/svg">
<g filter="url(#filter0_d)">
<path d="M79.2409 25.2406C74.344 20.2484 68.0767 16.8205 61.2316 15.3902C54.3864 13.96 47.2709 14.5916 40.7848 17.2053C34.2987 19.8191 28.7332 24.2975 24.7923 30.0742C20.8514 35.8509 18.712 42.6665 18.6447 49.6592C18.5773 56.6518 20.585 63.5074 24.4139 69.3589C28.2428 75.2105 33.7209 79.7953 40.1554 82.5335C46.59 85.2717 53.692 86.0403 60.5634 84.7422C67.4348 83.4441 73.767 80.1375 78.7592 75.2406L54 49.9998L79.2409 25.2406Z" fill="#3C8F7C"/>
<path d="M74.5455 29.8682C70.5743 25.8047 65.4873 23.01 59.9278 21.8376C54.3683 20.6651 48.586 21.1676 43.3121 23.2815C38.0382 25.3953 33.5096 29.0256 30.2989 33.7133C27.0882 38.4009 25.3396 43.9354 25.2743 49.6167C25.209 55.2981 26.8299 60.8713 29.9321 65.6315C33.0342 70.3917 37.4782 74.1251 42.7022 76.3596C47.9261 78.5941 53.6953 79.2293 59.2803 78.185C64.8653 77.1406 70.0151 74.4636 74.0787 70.4924L54 49.9469L74.5455 29.8682Z" fill="#50BFA5"/>
<path d="M69.818 34.4288C66.7098 31.3911 62.7749 29.3374 58.5056 28.5245C54.2362 27.7117 49.8219 28.1758 45.815 29.8588C41.808 31.5418 38.3863 34.3689 35.9779 37.9866C33.5694 41.6043 32.2812 45.8518 32.2744 50.1979C32.2675 54.5439 33.5424 58.7955 35.9394 62.4207C38.3364 66.046 41.7492 68.8839 45.7509 70.5795C49.7525 72.2751 54.1653 72.7531 58.4372 71.9537C62.7091 71.1543 66.6504 69.113 69.7681 66.0851L54.3724 50.2327L69.818 34.4288Z" fill="#60DCBE"/>
<circle r="15.4687" transform="matrix(1 0 0 -1 54.3827 49.9781)" fill="white"/>
</g>
<path d="M95.155 51.68C95.155 49.2533 95.68 47.095 96.73 45.205C97.78 43.2917 99.2383 41.81 101.105 40.76C102.995 39.6867 105.13 39.15 107.51 39.15C110.427 39.15 112.923 39.92 115 41.46C117.077 43 118.465 45.1 119.165 47.76H112.585C112.095 46.7333 111.395 45.9517 110.485 45.415C109.598 44.8783 108.583 44.61 107.44 44.61C105.597 44.61 104.103 45.2517 102.96 46.535C101.817 47.8183 101.245 49.5333 101.245 51.68C101.245 53.8267 101.817 55.5417 102.96 56.825C104.103 58.1083 105.597 58.75 107.44 58.75C108.583 58.75 109.598 58.4817 110.485 57.945C111.395 57.4083 112.095 56.6267 112.585 55.6H119.165C118.465 58.26 117.077 60.36 115 61.9C112.923 63.4167 110.427 64.175 107.51 64.175C105.13 64.175 102.995 63.65 101.105 62.6C99.2383 61.5267 97.78 60.045 96.73 58.155C95.68 56.265 95.155 54.1067 95.155 51.68ZM128.815 38.1V64H122.83V38.1H128.815ZM131.962 54.2C131.962 52.1933 132.336 50.4317 133.082 48.915C133.852 47.3983 134.891 46.2317 136.197 45.415C137.504 44.5983 138.962 44.19 140.572 44.19C141.949 44.19 143.151 44.47 144.177 45.03C145.227 45.59 146.032 46.325 146.592 47.235V44.47H152.577V64H146.592V61.235C146.009 62.145 145.192 62.88 144.142 63.44C143.116 64 141.914 64.28 140.537 64.28C138.951 64.28 137.504 63.8717 136.197 63.055C134.891 62.215 133.852 61.0367 133.082 59.52C132.336 57.98 131.962 56.2067 131.962 54.2ZM146.592 54.235C146.592 52.7417 146.172 51.5633 145.332 50.7C144.516 49.8367 143.512 49.405 142.322 49.405C141.132 49.405 140.117 49.8367 139.277 50.7C138.461 51.54 138.052 52.7067 138.052 54.2C138.052 55.6933 138.461 56.8833 139.277 57.77C140.117 58.6333 141.132 59.065 142.322 59.065C143.512 59.065 144.516 58.6333 145.332 57.77C146.172 56.9067 146.592 55.7283 146.592 54.235ZM168.807 44.26C171.094 44.26 172.914 45.0067 174.267 46.5C175.644 47.97 176.332 50 176.332 52.59V64H170.382V53.395C170.382 52.0883 170.044 51.0733 169.367 50.35C168.691 49.6267 167.781 49.265 166.637 49.265C165.494 49.265 164.584 49.6267 163.907 50.35C163.231 51.0733 162.892 52.0883 162.892 53.395V64H156.907V44.47H162.892V47.06C163.499 46.1967 164.316 45.52 165.342 45.03C166.369 44.5167 167.524 44.26 168.807 44.26ZM183.291 64.28C182.241 64.28 181.378 63.9767 180.701 63.37C180.048 62.74 179.721 61.97 179.721 61.06C179.721 60.1267 180.048 59.345 180.701 58.715C181.378 58.085 182.241 57.77 183.291 57.77C184.318 57.77 185.158 58.085 185.811 58.715C186.488 59.345 186.826 60.1267 186.826 61.06C186.826 61.97 186.488 62.74 185.811 63.37C185.158 63.9767 184.318 64.28 183.291 64.28Z" fill="#50BFA5"/>
<defs>
<filter id="filter0_d" x="0" y="-0.000488281" width="108" height="108" filterUnits="userSpaceOnUse" color-interpolation-filters="sRGB">
<feFlood flood-opacity="0" result="BackgroundImageFix"/>
<feColorMatrix in="SourceAlpha" type="matrix" values="0 0 0 0 0 0 0 0 0 0 0 0 0 0 0 0 0 0 127 0" result="hardAlpha"/>
<feOffset dy="4"/>
<feGaussianBlur stdDeviation="2"/>
<feColorMatrix type="matrix" values="0 0 0 0 0 0 0 0 0 0 0 0 0 0 0 0 0 0 0.25 0"/>
<feBlend mode="normal" in2="BackgroundImageFix" result="effect1_dropShadow"/>
<feBlend mode="normal" in="SourceGraphic" in2="effect1_dropShadow" result="shape"/>
</filter>
</defs>
</svg>
