<svg width="5231" height="1222" viewBox="0 0 5231 1222" fill="none" xmlns="http://www.w3.org/2000/svg">
<path d="M1320.51 107.11L1512.05 136.845L1385.78 48.5039L1378.97 76.2366L1332.19 84.1157L1320.51 107.11Z" fill="#9EC3F6"/>
<path d="M1512.05 136.844L1353.39 52.5626L1197 42.7734L1512.05 136.844Z" fill="white"/>
<path d="M1385.79 48.5048L1512.05 136.846L1415.15 0L1385.79 48.5048Z" fill="white"/>
<path d="M5224.34 1161.31H6.22742C2.85984 1161.31 0.129883 1164.04 0.129883 1167.4V1169.9C0.129883 1173.27 2.85984 1176 6.22742 1176H5224.34C5227.71 1176 5230.44 1173.27 5230.44 1169.9V1167.4C5230.44 1164.04 5227.71 1161.31 5224.34 1161.31Z" fill="#2E3552"/>
<path d="M4402.85 446.506L4246 468.876L4350.08 397.946L4355.37 420.683L4393.52 427.589L4402.85 446.506Z" fill="#9EC3F6"/>
<path d="M4246 468.877L4376.53 401.583L4504.43 395.155L4246 468.877Z" fill="white"/>
<path d="M4350.08 397.946L4246 468.876L4326.57 358L4350.08 397.946Z" fill="white"/>
<path d="M88 819C88 749.667 103 688 133 634C163 579.333 204.667 537 258 507C312 476.333 373 461 441 461C524.333 461 595.667 483 655 527C714.333 571 754 631 774 707H586C572 677.667 552 655.333 526 640C500.667 624.667 471.667 617 439 617C386.333 617 343.667 635.333 311 672C278.333 708.667 262 757.667 262 819C262 880.333 278.333 929.333 311 966C343.667 1002.67 386.333 1021 439 1021C471.667 1021 500.667 1013.33 526 998C552 982.667 572 960.333 586 931H774C754 1007 714.333 1067 655 1111C595.667 1154.33 524.333 1176 441 1176C373 1176 312 1161 258 1131C204.667 1100.33 163 1058 133 1004C103 950 88 888.333 88 819ZM1210.72 1178C1144.72 1178 1084.05 1162.67 1028.72 1132C974.052 1101.33 930.385 1058.67 897.719 1004C865.719 948.667 849.719 886.667 849.719 818C849.719 749.333 865.719 687.667 897.719 633C930.385 578.333 974.052 535.667 1028.72 505C1084.05 474.333 1144.72 459 1210.72 459C1276.72 459 1337.05 474.333 1391.72 505C1447.05 535.667 1490.39 578.333 1521.72 633C1553.72 687.667 1569.72 749.333 1569.72 818C1569.72 886.667 1553.72 948.667 1521.72 1004C1489.72 1058.67 1446.39 1101.33 1391.72 1132C1337.05 1162.67 1276.72 1178 1210.72 1178ZM1210.72 1022C1266.72 1022 1311.39 1003.33 1344.72 966C1378.72 928.667 1395.72 879.333 1395.72 818C1395.72 756 1378.72 706.667 1344.72 670C1311.39 632.667 1266.72 614 1210.72 614C1154.05 614 1108.72 632.333 1074.72 669C1041.39 705.667 1024.72 755.333 1024.72 818C1024.72 880 1041.39 929.667 1074.72 967C1108.72 1003.67 1154.05 1022 1210.72 1022ZM2292.85 1171H2121.85L1835.85 738V1171H1664.85V469H1835.85L2121.85 904V469H2292.85V1171ZM2921.8 469V606H2735.8V1171H2564.8V606H2378.8V469H2921.8ZM3444.63 1047H3182.63L3140.63 1171H2961.63L3215.63 469H3413.63L3667.63 1171H3486.63L3444.63 1047ZM3400.63 915L3313.63 658L3227.63 915H3400.63ZM3715.93 819C3715.93 749.667 3730.93 688 3760.93 634C3790.93 579.333 3832.6 537 3885.93 507C3939.93 476.333 4000.93 461 4068.93 461C4152.26 461 4223.6 483 4282.93 527C4342.26 571 4381.93 631 4401.93 707H4213.93C4199.93 677.667 4179.93 655.333 4153.93 640C4128.6 624.667 4099.6 617 4066.93 617C4014.26 617 3971.6 635.333 3938.93 672C3906.26 708.667 3889.93 757.667 3889.93 819C3889.93 880.333 3906.26 929.333 3938.93 966C3971.6 1002.67 4014.26 1021 4066.93 1021C4099.6 1021 4128.6 1013.33 4153.93 998C4179.93 982.667 4199.93 960.333 4213.93 931H4401.93C4381.93 1007 4342.26 1067 4282.93 1111C4223.6 1154.33 4152.26 1176 4068.93 1176C4000.93 1176 3939.93 1161 3885.93 1131C3832.6 1100.33 3790.93 1058 3760.93 1004C3730.93 950 3715.93 888.333 3715.93 819ZM5011.65 469V606H4825.65V1171H4654.65V606H4468.65V469H5011.65Z" fill="#368371"/>
<path d="M888.889 722.465C888.889 722.095 883.509 710.975 885.219 710.115C886.929 709.255 889.999 709.395 890.349 711.345C890.699 713.295 888.889 722.465 888.889 722.465Z" fill="#FFB27D"/>
<path d="M808.58 584.195C808.58 584.195 777.04 546.295 760.33 570.585C760.33 570.585 747.87 575.755 743.33 596.965C738.73 618.605 753.12 635.055 760.56 630.965C765.34 628.355 768.95 636.705 768.95 636.705L808.58 584.195Z" fill="#233862"/>
<path d="M847.7 785.925C872.78 776.685 896.94 733.765 896.94 733.765L889.04 728.235C882.45 737.865 852.81 756.375 852.81 756.375C852.14 748.255 851.16 740.885 849.94 734.205C841.71 688.845 822.89 675.415 817.84 672.555C817.427 672.315 816.999 672.102 816.56 671.915L816.62 672.915C816.69 674.275 816.85 677.025 817.12 680.795C819.04 708.845 826.75 793.655 847.7 785.925Z" fill="#FFB27D"/>
<path d="M763.78 566.705C763.78 566.705 759.53 549.705 734.61 555.035C734.61 555.035 746.54 553.535 749.81 558.135C749.81 558.135 740.36 553.805 734.44 557.425C728.52 561.045 727.55 573.245 728.44 576.955C729.33 580.665 735.86 591.715 740.19 591.715C744.52 591.715 749.65 587.915 749.65 587.915L763.78 566.705Z" fill="#233862"/>
<path d="M726.489 832.244C738.879 804.454 744.799 796.584 745.039 787.854C745.209 780.944 741.799 773.484 735.169 755.184C733.637 750.898 732.534 746.469 731.879 741.964C726.639 706.704 747.029 668.584 759.709 665.964C763.229 665.034 769.209 652.294 769.139 631.774L770.719 632.084L797.409 637.364C797.409 637.364 796.799 645.764 796.789 653.674C796.789 660.274 797.169 666.524 798.659 667.304L801.709 667.594C801.709 667.594 823.969 698.504 825.839 727.244C827.709 755.984 808.019 768.474 825.989 825.904C844.299 884.584 719.639 847.584 726.489 832.244Z" fill="#FFB27D"/>
<path d="M797.379 637.384C797.379 637.384 796.769 645.784 796.759 653.694C781.819 653.274 773.929 639.694 770.689 632.104L797.379 637.384Z" fill="#E8945B"/>
<path d="M802.37 644.885C802.37 644.885 767.04 645.465 767.04 623.455C767.04 601.445 762.44 586.695 785.04 585.395C807.64 584.095 811.99 592.485 813.78 599.825C815.57 607.165 811.56 644.165 802.37 644.885Z" fill="#FFB27D"/>
<path d="M801.039 584.855C801.039 584.855 791.37 610.675 776.52 614.495C761.67 618.315 755.229 614.335 755.229 614.335C762.58 607.911 767.463 599.128 769.039 589.495C769.039 589.495 793.759 572.585 801.039 584.855Z" fill="#233862"/>
<path d="M798.66 586.955C798.66 586.955 805.89 592.715 807.66 598.315C809.43 603.915 810.21 615.465 813.58 615.075C813.58 615.075 820.87 597.515 812.67 587.595C803.98 577.065 798.66 586.955 798.66 586.955Z" fill="#233862"/>
<path d="M757.77 1098.88C763.195 1120.37 770.652 1141.28 780.04 1161.35L791.7 1160.55C791.7 1160.55 785.98 1133.36 786.31 1096.64C786.54 1070.96 789.72 1040.64 799.86 1011.64C834.73 912.065 829.09 839.645 829.09 839.645L763.53 847.315L760.47 847.665C760.2 877.775 759.42 918.665 758.74 950.665C758.14 979.415 757.61 1000.95 757.61 1000.95C745.04 1028.02 749.59 1066.34 757.77 1098.88Z" fill="#163560"/>
<path d="M680.53 861.755L691.14 864.935C691.14 864.935 726.14 806.885 729.31 791.775C730.31 786.855 732.9 777.015 735.87 765.985C742.01 743.155 749.94 715.205 749.94 715.205L752.55 703.895L761.46 665.325C761.46 665.325 744.4 667.065 734.46 671.235C731.15 672.615 728.63 674.235 727.75 676.235C720.42 692.345 713.11 733.015 707.97 762.025C705.1 778.195 702.91 790.745 701.77 793.405C698.56 800.785 688.84 841.585 680.53 861.755Z" fill="#FFB27D"/>
<path d="M720.16 1093.23C723.93 1133.47 740.53 1159.48 740.53 1159.48L746.09 1163.48C746.09 1163.48 751.36 1135.13 755.09 1101.41C758.64 1069.36 763.51 1035.41 769.02 1025.09C790.88 984.035 797.46 829.095 797.46 829.095L731.04 825.795C724.35 837.035 721.44 855.465 720.75 876.425C719 929.325 731.43 998.305 733.29 1008.27C733.395 1009.04 733.24 1009.82 732.85 1010.49C719.59 1036.71 717.67 1066.66 720.16 1093.23Z" fill="#1C468A"/>
<path d="M800.04 587.824C800.04 587.824 793.14 614.824 774.41 623.524C774.41 623.524 793.14 606.904 794.73 589.054C796.32 571.204 800.04 587.824 800.04 587.824Z" fill="#233862"/>
<path d="M718.15 852.304C717.988 854.085 718.13 855.881 718.57 857.615C719.98 862.065 724.84 864.094 736.57 862.884C743.75 862.134 746.95 850.104 748.38 839.884C752.693 854.551 758.74 862.768 766.52 864.534C777.91 867.064 835.34 874.054 839.1 846.754C843.23 816.754 830.85 763.564 830.17 734.894C831.696 726.126 832.392 717.233 832.25 708.334C831.77 687.914 825.78 676.464 821.17 671.854C819.87 670.854 818.56 670.234 813.32 669.334C810.64 668.874 806.93 668.334 801.67 667.654C800.977 667.563 800.279 667.51 799.58 667.494C800.58 669.234 813.58 688.924 812.58 693.994C811.52 699.294 765.39 694.514 762.21 691.604C759.03 688.694 754 666.354 754 666.354C754 666.354 737.66 668.144 729.67 673.954L729.76 674.054C728.899 674.619 728.18 675.376 727.66 676.264C719.13 692.494 710.66 733.455 704.66 762.674C719.17 770.674 731.85 768.294 735.79 767.234C730.58 800.844 718.92 836.974 718.15 852.304Z" fill="#F99746"/>
<path d="M889.04 728.235C889.04 727.135 888.13 711.355 890.94 708.045C893.75 704.735 899.48 700.045 901.29 700.155C903.1 700.265 910.15 709.675 908.02 716.865C905.89 724.055 896.95 733.765 896.95 733.765L889.04 728.235Z" fill="#FFB27D"/>
<path d="M876.116 708.937L892.467 713.836C893.012 713.999 893.586 713.69 893.75 713.145L903.092 681.965C903.256 681.42 902.946 680.846 902.401 680.682L886.05 675.783C885.505 675.62 884.931 675.929 884.767 676.474L875.425 707.654C875.261 708.199 875.571 708.773 876.116 708.937Z" fill="#F1A34F"/>
<path d="M880.4 710.195L895.23 714.645C895.459 714.714 895.7 714.737 895.938 714.714C896.176 714.69 896.407 714.619 896.618 714.506C896.829 714.392 897.015 714.239 897.167 714.053C897.318 713.868 897.431 713.654 897.5 713.425L906.39 683.755C906.527 683.293 906.475 682.796 906.247 682.373C906.018 681.949 905.631 681.634 905.17 681.495L890.33 677.045C889.869 676.908 889.372 676.96 888.948 677.188C888.525 677.417 888.209 677.804 888.07 678.265L879.18 707.935C879.111 708.163 879.088 708.403 879.112 708.641C879.136 708.878 879.206 709.109 879.32 709.319C879.433 709.529 879.587 709.714 879.772 709.865C879.958 710.015 880.171 710.127 880.4 710.195V710.195Z" fill="#D86713"/>
<path d="M773.33 1171.13H780.77C783.26 1170.73 785.1 1170.01 787.66 1169.68C791.54 1169.17 793.33 1170.76 793.66 1171.13L793.73 1171.2H825.33C826.13 1170.06 825.33 1167.43 824.62 1165.5C824.366 1164.85 823.962 1164.27 823.441 1163.8C822.92 1163.33 822.296 1162.99 821.62 1162.8C818.27 1161.8 811.62 1160.96 805.62 1155.48C802.22 1152.41 789.19 1144.18 789.19 1144.18H789.12C788.83 1144.18 787.47 1144.6 781.54 1149.61C778.48 1152.19 773.25 1145.96 773.25 1145.96C772.533 1146.62 771.952 1147.41 771.54 1148.28C770.801 1149.79 770.563 1151.49 770.86 1153.13C771.33 1155.98 769.81 1161.27 768.6 1164.85C767.86 1167.02 767.24 1168.56 767.24 1168.56C767.24 1168.56 766.93 1170.32 773.33 1171.13Z" fill="#233862"/>
<path d="M771.59 1148.26C773.37 1149.51 777.11 1151.98 779.59 1152.26C782.95 1152.7 789.23 1144.14 789.23 1144.14H789.16C788.87 1144.14 787.51 1144.56 781.58 1149.57C778.52 1152.15 773.29 1145.92 773.29 1145.92C772.575 1146.59 771.997 1147.38 771.59 1148.26V1148.26Z" fill="#466AA5"/>
<path d="M773.33 1171.14H780.77C783.26 1170.74 785.1 1170.01 787.66 1169.68C791.54 1169.17 793.33 1170.77 793.66 1171.14L793.73 1171.2H825.33C826.13 1170.06 825.33 1167.44 824.62 1165.51C823.62 1164.66 823.39 1169.21 822.86 1169.93C822.33 1170.65 797.08 1170.21 795.62 1169.15C794.16 1168.09 789.79 1166.22 783.69 1167.68C778.38 1168.95 770.56 1165.68 768.63 1164.83C767.89 1167 767.27 1168.54 767.27 1168.54C767.27 1168.54 766.93 1170.33 773.33 1171.14Z" fill="#466AA5"/>
<path d="M733.64 1171.13H741.04C743.53 1170.73 745.37 1170.01 747.92 1169.68C751.81 1169.17 753.59 1170.76 753.92 1171.13L753.99 1171.2H785.59C786.38 1170.06 785.59 1167.43 784.87 1165.5C784.617 1164.85 784.214 1164.26 783.693 1163.8C783.171 1163.33 782.547 1162.99 781.87 1162.8C778.52 1161.8 771.87 1160.96 765.87 1155.48C762.46 1152.41 749.43 1144.18 749.43 1144.18H749.36C749.07 1144.18 747.71 1144.6 741.78 1149.61C738.72 1152.19 733.5 1145.96 733.5 1145.96C732.782 1146.62 732.198 1147.41 731.78 1148.28C731.052 1149.79 730.814 1151.49 731.1 1153.13C731.58 1155.98 730.1 1161.27 728.84 1164.85C728.1 1167.02 727.48 1168.56 727.48 1168.56C727.48 1168.56 727.24 1170.32 733.64 1171.13Z" fill="#233862"/>
<path d="M731.89 1148.26C733.67 1149.51 737.42 1151.98 739.89 1152.26C743.25 1152.7 749.53 1144.14 749.53 1144.14H749.46C749.17 1144.14 747.81 1144.56 741.88 1149.57C738.82 1152.15 733.6 1145.92 733.6 1145.92C732.883 1146.59 732.303 1147.38 731.89 1148.26V1148.26Z" fill="#466AA5"/>
<path d="M733.639 1171.14H741.039C743.529 1170.74 745.369 1170.01 747.919 1169.68C751.809 1169.17 753.589 1170.77 753.919 1171.14L753.989 1171.2H785.589C786.379 1170.06 785.589 1167.44 784.869 1165.51C783.869 1164.66 783.639 1169.21 783.109 1169.93C782.579 1170.65 757.329 1170.21 755.869 1169.15C754.409 1168.09 750.039 1166.22 743.939 1167.68C738.639 1168.95 730.819 1165.68 728.879 1164.83C728.139 1167 727.519 1168.54 727.519 1168.54C727.519 1168.54 727.239 1170.33 733.639 1171.14Z" fill="#466AA5"/>
<path d="M819.21 670.885C819.21 670.885 841.21 681.975 848.58 726.725C848.58 726.725 841.37 736.615 831.2 739.535C829.724 739.964 828.204 740.226 826.67 740.315C814.19 740.975 819.21 670.885 819.21 670.885Z" fill="#F99746"/>
<path d="M902.96 701.365C902.96 701.365 896.15 690.885 894.49 691.475C892.11 692.305 900.66 705.605 900.66 705.605C900.66 705.605 894.33 695.665 893.34 696.415C891.08 698.115 894.67 704.355 898.23 709.145C898.23 709.145 891.86 703.305 891.65 704.355C890.93 708.045 898.65 716.965 898.65 716.965L902.96 707.105V701.365Z" fill="#FFB27D"/>
<path d="M908.04 711.095C907.71 709.815 906.04 684.795 905.34 687.165C904.64 689.535 902.93 702.655 902.93 702.655L908.04 711.095Z" fill="#FFB27D"/>
<path d="M795.47 631.815C795.47 631.815 796.08 634.405 802.53 634.005C802.53 634.005 807.95 633.675 807.78 630.825C807.78 630.825 802.53 628.795 795.47 631.815Z" fill="white"/>
<path d="M680.53 861.755C680.53 861.755 667.74 870.265 665.78 873.855C663.82 877.445 659.26 890.645 659.26 890.645C659.26 890.645 662.52 891.125 665.78 885.425C669.04 879.725 679.78 880.205 683.38 877.115C686.98 874.025 691.14 864.935 691.14 864.935L680.53 861.755Z" fill="#FFB27D"/>
<path d="M689.75 867.745C689.75 867.745 687.62 877.745 685.01 880.745C682.4 883.745 678.82 888.575 677.35 887.265C675.88 885.955 678.98 875.045 678.98 875.045L689.75 867.745Z" fill="#FFB27D"/>
<path d="M667.57 874.995C667.25 875.485 656 887.435 656 887.435C656 887.435 660.07 889.285 661.22 887.435C662.37 885.585 667.57 874.995 667.57 874.995Z" fill="#FFB27D"/>
<path d="M1609.54 455.136L1627.48 507.756L1650.93 576.496C1655.44 576.949 1659.98 576.655 1664.39 575.626C1670.48 574.046 1677.55 569.626 1677.55 569.626C1677.55 569.626 1672.55 496.396 1660.55 454.116C1657.48 443.276 1653.93 434.496 1649.93 429.496C1630.3 404.916 1609.54 455.136 1609.54 455.136Z" fill="#233862"/>
<path d="M1655.28 436.496C1667.01 458.256 1682.52 469.166 1682.52 469.166H1747.07C1747.07 469.166 1646.33 419.886 1655.28 436.496Z" fill="#233862"/>
<path d="M1700.24 603.616C1700.99 604.482 1701.47 605.546 1701.63 606.679C1701.79 607.813 1701.62 608.968 1701.13 610.006C1699.48 614.206 1694.27 618.806 1688.25 623.386C1687.48 623.966 1686.79 624.506 1686.25 625.006L1685.78 625.396L1685.43 625.696C1679.79 630.616 1681.83 631.836 1671.67 641.846C1660.09 653.256 1652.33 653.256 1650.15 652.136C1648.31 651.136 1652.27 645.056 1656.66 638.186C1656.88 637.856 1657.09 637.516 1657.3 637.186C1657.89 636.276 1658.47 635.346 1659.05 634.426C1664.2 626.156 1663.05 622.176 1662.22 609.626C1661.48 599.496 1647.93 552.436 1647.93 552.436L1669.61 549.306C1669.61 549.306 1675.1 586.616 1682.11 592.536C1685.86 595.686 1690.11 595.836 1693.76 598.196L1694.51 598.706C1696.64 600.076 1698.56 601.727 1700.24 603.616Z" fill="#FFB27D"/>
<path d="M1700.24 603.616C1700.99 604.482 1701.47 605.546 1701.63 606.68C1701.79 607.814 1701.62 608.969 1701.13 610.006C1699.13 614.196 1694.06 618.776 1688.23 623.336C1687.47 623.936 1686.79 624.486 1686.23 625.006L1685.76 625.396L1685.41 625.696C1679.77 630.616 1681.81 631.836 1671.65 641.846C1660.07 653.256 1652.31 653.256 1650.13 652.136C1648.29 651.136 1652.25 645.056 1656.64 638.186C1664.61 635.331 1671.68 630.414 1677.12 623.936C1684.12 615.476 1688.97 604.476 1693.76 598.156L1694.51 598.666C1696.64 600.048 1698.57 601.714 1700.24 603.616Z" fill="#233862"/>
<path d="M1526.57 585.386C1525.05 592.016 1515.57 590.646 1505.04 587.766C1494.51 584.886 1496.94 588.036 1481.89 585.946C1466.84 583.856 1462.41 578.116 1462.01 575.856C1461.65 573.856 1469.14 573.346 1477.16 572.646C1478.16 572.566 1479.16 572.466 1480.16 572.366C1489.23 571.476 1496 565.826 1504.34 561.266C1512.24 556.936 1524.34 538.776 1524.34 538.776L1545 540.986C1545 540.986 1533.68 557.186 1529.29 564.256C1526.7 568.406 1526.68 573.996 1526.87 578.256C1527.09 580.636 1526.99 583.033 1526.57 585.386Z" fill="#FFB27D"/>
<path d="M1505.04 587.766C1494.51 584.886 1496.94 588.035 1481.89 585.945C1466.84 583.855 1462.41 578.115 1462.01 575.855C1461.65 573.855 1469.14 573.346 1477.16 572.646L1477.23 572.805C1483.59 577.129 1491 579.655 1498.68 580.115C1508.92 580.645 1519.85 578.005 1526.92 578.305C1527.12 580.671 1527 583.051 1526.57 585.385C1525.05 592.015 1515.58 590.646 1505.04 587.766Z" fill="#233862"/>
<path d="M1631.47 372.936C1644.27 369.196 1680.3 375.426 1716.47 383.536L1724.47 371.196L1803.13 367.196C1803.13 367.196 1827.46 425.346 1812.29 461.556C1810.06 466.876 1806.12 469.236 1799.05 469.156H1797.65C1797.65 469.156 1750.92 469.576 1735.75 469.156C1696.75 468.096 1653.85 439.306 1648.25 438.026C1639.07 435.926 1634.88 454.276 1625.12 473.406C1615.36 492.536 1536.06 556.846 1536.06 556.846C1536.06 556.846 1524.14 556.646 1519.27 554.666C1514.03 552.536 1512.17 549.906 1512.17 549.906C1512.17 549.906 1602.62 381.386 1631.47 372.936Z" fill="#2B478B"/>
<path d="M1727.8 263.116C1755.33 279.266 1811.16 312.716 1811.46 312.516C1811.46 312.516 1832.09 320.936 1844.12 313.406C1864.18 300.856 1875.71 265.926 1840.5 234.626C1822.94 219.026 1810.27 214.996 1808.99 190.806C1808.29 177.686 1791.57 133.976 1761.72 137.166C1759.23 137.464 1756.72 137.558 1754.21 137.446C1748.92 137.146 1743.65 138.357 1739.01 140.936C1721.93 150.496 1686.06 256.016 1727.8 263.116Z" fill="#233862"/>
<path d="M1751.58 250.656C1751.46 250.726 1765.2 255.846 1774.58 251.986C1783.41 248.366 1790.42 234.186 1790.29 234.176C1786.29 233.886 1782.06 230.296 1779.29 207.426L1777.58 207.986L1748.93 217.496C1748.93 217.496 1750.74 226.676 1751.84 235.396C1752.75 242.666 1753.16 249.666 1751.58 250.656Z" fill="#FFB27D"/>
<path d="M1748.93 217.496C1748.93 217.496 1750.74 226.676 1751.84 235.396C1768.24 232.896 1775.09 216.806 1777.63 208.036L1748.93 217.496Z" fill="#ED975D"/>
<path d="M1744.44 226.386C1744.44 226.386 1783.44 222.226 1780.51 197.956C1777.58 173.686 1780.58 156.806 1755.51 158.436C1730.44 160.066 1726.76 169.916 1725.78 178.256C1724.8 186.596 1734.21 226.836 1744.44 226.386Z" fill="#FFB27D"/>
<path d="M1727.59 165.046C1727.59 165.046 1751.9 187.176 1768.79 189.366C1785.68 191.556 1792.23 186.296 1792.23 186.296C1785.64 180.063 1780.4 172.545 1776.83 164.206C1776.03 162.242 1774.71 160.531 1773.02 159.249C1771.32 157.967 1769.32 157.162 1767.21 156.916C1755.14 155.546 1732.23 154.436 1727.59 165.046Z" fill="#233862"/>
<path d="M1743.2 163.546C1743.2 163.546 1734.65 171.376 1731.87 177.276C1729.18 182.966 1728.04 196.736 1729.87 202.276C1729.87 202.276 1717.58 176.686 1725.26 164.626C1733.45 151.836 1743.2 163.546 1743.2 163.546Z" fill="#233862"/>
<path d="M1717.27 307.056C1716.27 385.806 1715.9 369.336 1724.27 377.056C1726.27 378.906 1732.1 380.136 1739.76 380.856C1763.86 383.116 1806.4 380.296 1808.14 375.856C1814.14 360.566 1810.32 355.666 1815.61 332.166C1816.17 329.666 1816.84 326.956 1817.61 324.016C1821.93 307.886 1825.85 302.466 1812.82 276.016C1801 252.016 1788.58 232.536 1787.39 233.196C1753.98 251.816 1751.78 235.336 1751.78 235.336C1751.78 235.336 1717.74 268.636 1717.27 307.056Z" fill="white"/>
<path d="M1627.48 507.756L1650.93 576.496C1655.44 576.949 1659.98 576.655 1664.39 575.626C1670.48 574.046 1677.55 569.626 1677.55 569.626C1677.55 569.626 1672.55 496.396 1660.55 454.116L1627.48 507.756Z" fill="#2B478B"/>
<path d="M1751.83 235.346C1751.83 235.346 1717.83 240.156 1713.47 254.616C1709.11 269.076 1683.39 354.066 1683.39 354.066C1683.39 354.066 1700.5 357.626 1708.67 349.896C1716.84 342.166 1738.32 276.896 1738.32 276.896L1751.83 235.346Z" fill="white"/>
<path d="M1739.8 380.846C1763.9 383.106 1806.44 380.286 1808.18 375.846C1814.18 360.556 1810.36 355.656 1815.65 332.156L1804.93 299.066C1804.93 299.066 1805.86 335.626 1794.84 344.936C1783.82 354.246 1750.25 362.276 1744.84 370.156C1742.46 373.341 1740.74 376.978 1739.8 380.846V380.846Z" fill="#EBF3FF"/>
<path d="M1787.46 233.186C1787.46 233.186 1819.39 236.026 1830.04 251.766C1845.04 273.926 1873.42 367.396 1855.37 379.266C1835.03 392.636 1764.46 380.436 1764.46 380.436C1764.46 380.436 1762.4 369.346 1765.83 364.106C1769.26 358.866 1822.83 351.706 1825.33 349.316C1827.83 346.926 1795.93 300.496 1796.08 293.116C1796.23 285.736 1787.46 233.186 1787.46 233.186Z" fill="white"/>
<path d="M1731.88 385.786L1617.12 382.656L1584.93 295.866L1699.52 298.986L1731.88 385.786Z" fill="#F99746"/>
<path d="M1615.86 379.276L1767.41 383.406L1767.32 386.746L1617.12 382.656L1615.86 379.276Z" fill="#ED7D2B"/>
<path d="M1647.26 340.496C1646.47 337.496 1648.26 335.056 1651.26 335.136C1652.85 335.269 1654.36 335.882 1655.58 336.893C1656.81 337.904 1657.71 339.265 1658.14 340.796C1658.93 343.796 1657.14 346.236 1654.14 346.156C1652.56 346.023 1651.05 345.411 1649.82 344.4C1648.59 343.388 1647.7 342.027 1647.26 340.496V340.496Z" fill="white"/>
<path d="M3063.49 682.25C3060.83 689.39 3056.23 697.67 3051.4 699.73C3048.37 700.905 3045.69 702.848 3043.63 705.37L3039.21 702.8L3033.93 699.73C3033.93 699.73 3034.06 699.15 3034.31 698.19C3034.56 697.23 3034.97 695.92 3035.5 694.45C3035.98 693.775 3036.28 692.995 3036.39 692.177C3036.5 691.359 3036.41 690.526 3036.13 689.75C3035.61 688.255 3035.42 686.666 3035.58 685.091C3035.73 683.516 3036.23 681.993 3037.03 680.63C3038.72 678.17 3040.36 672.1 3041.38 672.28C3043.85 672.71 3040.16 681.05 3041.22 682.59C3041.44 683.003 3041.8 683.317 3042.24 683.47C3042.68 683.622 3043.17 683.601 3043.59 683.41V683.41C3050.52 680.36 3058.93 663.94 3062.65 666.16C3064.11 666.96 3064.65 679.2 3063.49 682.25Z" fill="#FFB27D"/>
<path d="M3039.54 692.19L3048.22 698.29C3048.52 698.497 3048.88 698.578 3049.24 698.516C3049.59 698.455 3049.91 698.255 3050.12 697.96L3072.36 666.32C3072.57 666.024 3072.65 665.658 3072.59 665.302C3072.52 664.947 3072.32 664.63 3072.03 664.42L3063.35 658.32C3063.05 658.114 3062.69 658.033 3062.33 658.094C3061.98 658.156 3061.66 658.356 3061.45 658.65L3039.21 690.29C3039 690.587 3038.92 690.952 3038.98 691.308C3039.05 691.664 3039.25 691.981 3039.54 692.19V692.19Z" fill="#2B478B"/>
<path d="M3047.49 697.78L3052.58 701.35C3052.69 701.433 3052.82 701.492 3052.95 701.525C3053.08 701.557 3053.22 701.561 3053.35 701.538C3053.49 701.515 3053.62 701.464 3053.73 701.388C3053.85 701.313 3053.95 701.215 3054.02 701.1L3076.63 668.92C3076.71 668.811 3076.77 668.686 3076.81 668.553C3076.84 668.42 3076.84 668.281 3076.82 668.146C3076.8 668.011 3076.74 667.882 3076.67 667.768C3076.59 667.653 3076.5 667.555 3076.38 667.48L3071.29 663.9C3071.18 663.818 3071.06 663.759 3070.92 663.728C3070.79 663.696 3070.65 663.693 3070.51 663.717C3070.38 663.741 3070.25 663.793 3070.14 663.87C3070.02 663.946 3069.92 664.045 3069.85 664.16L3047.24 696.33C3047.16 696.44 3047.1 696.566 3047.06 696.7C3047.03 696.834 3047.02 696.974 3047.05 697.11C3047.07 697.246 3047.12 697.376 3047.2 697.492C3047.28 697.607 3047.37 697.705 3047.49 697.78V697.78Z" fill="#233862"/>
<path d="M2915.01 646.79C2915.01 646.79 2959.18 723.79 2975.21 738L3033.96 694.2C3036.64 695.153 3039.11 696.632 3041.22 698.55C3043.32 700.468 3045.02 702.787 3046.22 705.37C3046.22 705.37 3010.54 778.06 2975.41 781.15C2940.28 784.24 2890.97 694.02 2890.97 694.02L2915.01 646.79Z" fill="#233862"/>
<path d="M2815.05 1170.78H2789.49C2786.28 1169.04 2783.42 1165.04 2782.49 1159.09C2781.25 1150.87 2772.03 1146.38 2770.04 1139.66C2768.05 1132.94 2778.26 1123.47 2778.26 1123.47L2779.97 1121.27L2781.74 1118.98L2798.68 1122.98C2798.68 1122.98 2799.1 1126.98 2799.36 1132.15C2799.54 1135.86 2799.64 1140.15 2799.43 1143.9C2798.93 1152.9 2801.94 1162.53 2809.91 1164.27C2815.86 1165.56 2815.59 1169.05 2815.05 1170.78Z" fill="#233862"/>
<path d="M2963.17 1170.78H2904.8C2902 1167.36 2903.03 1154.72 2903.46 1150.59C2903.54 1149.76 2903.6 1149.27 2903.6 1149.27C2903.6 1149.27 2923.53 1133.33 2926.27 1145.54C2926.35 1145.92 2926.46 1146.29 2926.57 1146.66C2930.02 1158.08 2945.49 1163.27 2954.42 1164.71C2960.23 1165.66 2962.37 1168.68 2963.17 1170.78Z" fill="#233862"/>
<path d="M2952.05 845C2952.05 845 2949.05 882.751 2945.46 928.141C2940.63 989.801 2934.82 1065.53 2934.24 1079.88C2933.24 1104.79 2929.24 1144.64 2929.24 1144.64C2929.24 1144.64 2919.78 1154.11 2900.84 1150.12C2900.84 1150.12 2883.97 1093.23 2879.15 1033.04C2879.07 1032.04 2879 1031.04 2878.93 1030.04C2874.49 968.79 2867.49 839.771 2867.49 839.771L2952.05 845Z" fill="#F99746"/>
<path d="M2952.05 845C2952.05 845 2949.05 882.751 2945.46 928.141L2879.17 1033.04C2879.09 1032.04 2879.02 1031.04 2878.95 1030.04C2874.49 968.79 2867.49 839.771 2867.49 839.771L2952.05 845Z" fill="#ED7D2B"/>
<path d="M2938.23 849.481C2938.23 849.481 2883.68 986.221 2847.81 1050.48C2811.94 1114.74 2800.74 1132.67 2800.74 1132.67C2800.74 1132.67 2780.19 1124.45 2778.32 1118.85C2778.32 1118.85 2792.03 994.791 2816.05 964.541C2829.63 947.461 2845.57 896.171 2846.32 878.241C2847.07 860.311 2851.17 824.811 2851.17 824.811L2938.23 849.481Z" fill="#F99746"/>
<path d="M2924.65 650.14C2903.33 656.86 2866.45 638.71 2866.45 638.71C2866.45 638.71 2886.1 623.96 2885.07 593.29L2901.55 606.56L2912.75 615.56C2912.6 620.46 2912.17 625.347 2911.48 630.2C2911.16 632.65 2910.76 635.39 2910.25 638.37C2915.73 641.38 2920.61 645.369 2924.65 650.14V650.14Z" fill="#FFB27D"/>
<path d="M2912.75 615.56C2912.6 620.46 2912.17 625.347 2911.48 630.2C2899.08 628.07 2885 608.02 2885 608.02C2890.35 606.361 2895.99 605.856 2901.55 606.54L2912.75 615.56Z" fill="#ED975D"/>
<path d="M2919.27 615.091C2919.27 615.091 2884.06 620.941 2880.76 598.951C2877.46 576.961 2870.68 562.951 2893.02 558.261C2915.36 553.571 2921.02 561.321 2923.89 568.391C2926.76 575.461 2928.34 613.001 2919.27 615.091Z" fill="#FFB27D"/>
<path d="M2954.4 848.14C2953.78 848.684 2952.99 848.989 2952.16 849C2944.16 848.89 2920.81 853.33 2901.06 851.3C2884.41 849.71 2869.67 844.77 2853.85 837.68C2851.75 836.74 2846.91 834.16 2847.02 831.81C2847.09 829.23 2847.34 825.5 2847.66 820.81C2848.78 804.47 2850.74 776.37 2848.83 743.96C2848.49 737.96 2848.31 731.96 2848.29 726.04C2848.13 682.11 2856.84 643.46 2874.29 630.39C2875.79 629.31 2884.97 633.8 2893.4 637.96C2900.53 641.481 2908.64 642.461 2916.4 640.74L2923.76 647.25C2932.76 655.57 2942.55 666.89 2946.82 684.07C2950.45 698.7 2952.58 725.07 2953.76 752.39C2954.29 764.77 2954.76 777.26 2954.83 789.11V789.56C2954.93 790.73 2954.93 792.01 2954.93 793.19C2955.36 823.56 2954.93 847.71 2954.4 848.14Z" fill="#2B478B"/>
<path d="M2847.66 820.81C2848.78 804.47 2850.74 776.371 2848.83 743.961C2848.49 737.961 2848.31 731.96 2848.29 726.04C2855.58 708.35 2861.54 695.521 2861.54 695.521H2879.92C2879.92 695.521 2893.4 787.56 2847.66 820.81Z" fill="#233862"/>
<path d="M2753.49 925.12L2831.88 936.29C2836.8 936.976 2841.79 935.688 2845.76 932.707C2849.73 929.726 2852.36 925.294 2853.08 920.38L2857.92 886.38C2858.6 881.463 2857.31 876.475 2854.33 872.506C2851.35 868.536 2846.92 865.906 2842.01 865.19L2763.62 854.02C2758.71 853.352 2753.73 854.653 2749.77 857.638C2745.81 860.624 2743.2 865.053 2742.49 869.96L2737.65 903.96C2736.97 908.863 2738.25 913.836 2741.22 917.799C2744.18 921.761 2748.59 924.392 2753.49 925.12Z" fill="#233862"/>
<path d="M2846.49 875.35C2845.38 872.563 2843.62 870.081 2841.36 868.108C2839.1 866.136 2836.4 864.731 2833.49 864.01V864.01C2832.89 863.857 2832.29 863.74 2831.68 863.66L2816.07 861.43L2817.07 854.1C2817.3 852.474 2816.87 850.824 2815.88 849.512C2814.89 848.2 2813.43 847.333 2811.8 847.1L2807.73 846.51L2791.34 844.18L2788.34 843.76C2786.71 843.535 2785.06 843.962 2783.75 844.95C2782.44 845.938 2781.57 847.405 2781.34 849.03L2780.29 856.36L2753.35 852.52C2748.41 851.832 2743.4 853.129 2739.41 856.128C2735.43 859.127 2732.79 863.582 2732.08 868.52L2727.18 902.89C2726.49 907.831 2727.79 912.843 2730.79 916.829C2733.79 920.815 2738.24 923.451 2743.18 924.16L2821.42 935.31C2822.77 935.507 2824.15 935.551 2825.51 935.44V935.44C2827.62 935.277 2829.69 934.757 2831.62 933.9C2834.55 932.611 2837.1 930.599 2839.04 928.052C2840.98 925.505 2842.23 922.507 2842.69 919.34L2847.59 884.98C2848.07 881.729 2847.69 878.408 2846.49 875.35V875.35ZM2785.23 849.56C2785.29 849.063 2785.51 848.599 2785.86 848.238C2786.2 847.877 2786.66 847.639 2787.15 847.56C2787.38 847.525 2787.62 847.525 2787.85 847.56L2791.33 848.05L2804.23 849.89L2811.23 850.89C2811.53 850.929 2811.83 851.028 2812.09 851.181C2812.35 851.334 2812.59 851.537 2812.77 851.78C2812.96 852.022 2813.09 852.299 2813.17 852.594C2813.25 852.889 2813.27 853.197 2813.23 853.5L2812.23 860.83L2784.23 856.83L2785.23 849.56Z" fill="#2B478B"/>
<path d="M2813.12 823.97C2813.12 823.97 2809.01 829.45 2808.84 831.64C2807.74 846.49 2814.52 848.55 2796.95 856.8C2796.95 856.8 2789.45 859.66 2789.33 853.8C2789.21 847.94 2794.53 847.88 2793.56 839.73C2792.43 830.32 2792.56 830.24 2798.72 825.32L2802.8 818.57L2813.12 823.97Z" fill="#FFB27D"/>
<path d="M2802.65 828.171C2807.21 828.955 2811.84 829.213 2816.45 828.941C2816.45 828.941 2836.1 768.241 2838.63 762.691C2841.16 757.141 2896.99 691.561 2896.99 691.561L2873.73 633.351C2873.73 633.351 2813.34 734.231 2807.21 748.351C2797.07 771.771 2793.56 824.291 2793.56 824.291C2796.3 826.171 2799.39 827.489 2802.65 828.171V828.171Z" fill="#2B478B"/>
<path d="M2880.73 596.84C2880.73 596.84 2884.34 596.24 2883.73 591.26C2883.12 586.28 2883.15 579.78 2887.2 580.99C2891.25 582.2 2891.45 585.44 2893.11 583.55C2894.77 581.66 2894.8 573.69 2906.84 573.13C2918.88 572.57 2923.77 576.77 2929.37 574.31C2934.97 571.85 2935.26 563.37 2935.26 563.37C2935.26 563.37 2933.67 566.37 2931.26 567.37C2931.26 567.37 2940.6 554.59 2929.78 545.83C2918.96 537.07 2907.94 542.83 2901.68 543.19C2887.9 544.02 2878.99 544.85 2874.48 553.91C2869.97 562.97 2871.88 588.12 2880.73 596.84Z" fill="#2B478B"/>
<path d="M2806.63 830.5C2806.63 830.5 2810.63 834.63 2810.84 836.35C2811.65 841.87 2813.49 844.25 2812.57 844.85C2810.65 846.1 2808.11 842.02 2806.89 838.35C2806.18 835.791 2806.09 833.1 2806.63 830.5V830.5Z" fill="#FFB27D"/>
<path d="M4050.92 807.104C4050.92 807.104 4039.73 823.653 4033.35 858.453C4027.77 888.933 4022.87 900.183 4014.8 906.453C4006.73 912.723 3961.8 931.154 3961.8 931.154L3965.17 939.034C3965.17 939.034 4031.07 930.034 4038.47 919.034C4045.87 908.034 4074.09 842.943 4071.9 827.953C4069.71 812.963 4050.92 807.104 4050.92 807.104Z" fill="#F4A269"/>
<path d="M3867.94 1155.03C3867.27 1161.45 3858.19 1161.24 3847.94 1159.72C3837.69 1158.2 3840.33 1160.9 3825.94 1160.65C3811.55 1160.4 3806.69 1155.48 3806.05 1153.4C3805.49 1151.55 3812.48 1150.23 3819.97 1148.65L3822.8 1148.04C3831.25 1146.17 3836.99 1140.04 3844.34 1134.82C3851.34 1129.82 3860.63 1111.33 3860.63 1111.33L3880.36 1111.05C3880.36 1111.05 3871.54 1127.63 3868.2 1134.79C3866.2 1139 3866.85 1144.27 3867.52 1148.31C3867.96 1150.52 3868.1 1152.79 3867.94 1155.03V1155.03Z" fill="#FFB27D"/>
<path d="M3847.92 1159.72C3837.66 1158.21 3840.31 1160.9 3825.92 1160.65C3811.53 1160.4 3806.67 1155.48 3806.03 1153.4C3805.47 1151.55 3812.46 1150.23 3819.95 1148.65L3820.04 1148.79C3826.51 1152.14 3833.77 1153.68 3841.04 1153.24C3850.76 1152.57 3860.76 1148.83 3867.46 1148.31C3867.92 1150.52 3868.08 1152.78 3867.94 1155.03C3867.23 1161.45 3858.23 1161.24 3847.92 1159.72Z" fill="#C65447"/>
<path d="M4081.73 941.793C4081.73 941.793 3952.38 942.423 3928.24 957.663C3904.1 972.903 3849.13 1129.85 3849.13 1129.85C3849.13 1129.85 3853.41 1135.48 3858.73 1136.21C3867.26 1137.38 3872.1 1134.06 3872.1 1134.06C3872.1 1134.06 3945.75 1060.8 3949.67 1040.79C3953.59 1020.78 3952.67 1002.93 3961.56 1002.46C3970.45 1001.99 4081.75 1015.98 4098.56 986.333C4115.37 956.683 4101.48 927.333 4101.48 927.333L4081.73 941.793Z" fill="#EF7E29"/>
<path d="M3936.65 1152.1C3936.51 1158.55 3927.45 1159.1 3917.09 1158.45C3906.73 1157.8 3909.61 1160.26 3895.21 1161.22C3880.81 1162.18 3875.59 1157.68 3874.78 1155.66C3874.06 1153.86 3880.92 1151.96 3888.25 1149.76L3891.02 1148.91C3899.28 1146.34 3904.5 1139.78 3911.37 1133.91C3917.88 1128.37 3925.64 1109.15 3925.64 1109.15L3945.28 1107.22C3945.28 1107.22 3937.88 1124.47 3935.15 1131.89C3933.54 1136.25 3934.6 1141.44 3935.61 1145.42C3936.25 1147.59 3936.6 1149.84 3936.65 1152.1V1152.1Z" fill="#FFB27D"/>
<path d="M3917.09 1158.42C3906.74 1157.77 3909.61 1160.23 3895.21 1161.19C3880.81 1162.15 3875.59 1157.65 3874.78 1155.63C3874.06 1153.83 3880.92 1151.93 3888.25 1149.73L3888.35 1149.86C3895.1 1152.66 3902.47 1153.59 3909.7 1152.53C3919.32 1151.05 3928.97 1146.53 3935.61 1145.41C3936.24 1147.58 3936.58 1149.82 3936.61 1152.07C3936.51 1158.52 3927.45 1159.1 3917.09 1158.42Z" fill="#C65447"/>
<path d="M4106.85 949.743C4106.85 949.743 3992.92 955.133 3969.39 971.303C3945.86 987.473 3912.81 1123.6 3912.81 1123.6C3912.81 1123.6 3917.81 1130.16 3922.81 1131.97C3929.23 1134.27 3937.89 1131.67 3937.89 1131.67C3937.89 1131.67 3983.63 1076.55 3986.77 1056.41C3989.91 1036.27 3994.77 1025.91 4003.77 1025.08C4012.77 1024.25 4100.1 1041.33 4140.06 1003.64C4164.82 980.243 4106.85 949.743 4106.85 949.743Z" fill="#F99746"/>
<path d="M4067.85 797.994C4065.64 794.124 4062.99 787.144 4061.08 774.524C4061.33 775.774 4064.59 791.634 4071.34 800.284C4097.73 815.194 4139.42 871.204 4139.16 881.774C4139.16 881.774 4164.77 847.864 4165.05 847.674C4165.05 847.674 4193.86 805.534 4155.05 785.094C4135.31 774.704 4134.4 759.734 4134.33 746.684C4134.26 733.634 4124.56 678.094 4087.55 695.264C4087.55 695.264 4081.27 692.964 4078.55 693.554C4079.81 693.712 4081 694.183 4082.03 694.924C4077.6 694.924 4071.33 695.704 4066.27 699.044C4052.85 707.884 4045.12 779.724 4067.85 797.994Z" fill="#B5453C"/>
<path d="M4111.64 788.043C4104.58 787.456 4097.48 787.456 4090.42 788.043C4084.1 788.718 4077.9 790.273 4072.01 792.663C4062.01 796.863 4063.01 814.663 4084.09 811.343C4105.17 808.023 4113.11 793.313 4111.64 788.043Z" fill="#FFB27D"/>
<path d="M4072.9 801.013C4072.77 801.073 4069.9 816.303 4083.69 815.693C4092.74 815.293 4112.27 804.333 4110.55 796.583C4109.73 792.893 4102.89 783.333 4101.55 761.503L4099.9 761.943L4072.18 769.383C4072.18 769.383 4073.41 778.183 4073.98 786.503C4074.43 793.493 4074.45 800.153 4072.9 801.013Z" fill="#FFB27D"/>
<path d="M4072.14 769.383C4072.14 769.383 4073.37 778.183 4073.94 786.503C4089.63 785.013 4096.99 770.123 4099.86 761.943L4072.14 769.383Z" fill="#F4A269"/>
<path d="M4067.42 777.613C4067.42 777.613 4104.65 775.753 4103.13 752.613C4101.61 729.473 4105.39 713.613 4081.56 713.813C4057.73 714.013 4053.69 723.163 4052.31 731.023C4050.93 738.883 4057.69 777.503 4067.42 777.613Z" fill="#FFB27D"/>
<path d="M4064.58 714.343C4064.58 714.343 4076.58 740.843 4092.47 743.823C4108.36 746.803 4114.87 742.163 4114.87 742.163C4106.71 735.905 4100.97 727.003 4098.65 716.983C4098.65 716.983 4071.4 700.893 4064.58 714.343Z" fill="#B5453C"/>
<path d="M4067.23 716.383C4067.23 716.383 4060.03 722.953 4058.57 728.983C4057.11 735.013 4057.09 747.203 4053.52 746.983C4053.52 746.983 4044.62 728.983 4052.52 717.983C4060.96 706.353 4067.23 716.383 4067.23 716.383Z" fill="#B5453C"/>
<path d="M4030.17 943.734C4033.17 947.334 4042.59 948.444 4052.64 950.094C4060.55 951.404 4068.86 953.034 4074.77 956.504C4088.19 964.384 4132.04 991.024 4144.9 989.804C4149.9 989.344 4148.9 979.804 4145.9 967.204C4141.15 947.274 4131.2 919.594 4131.2 907.564C4131.2 900.994 4129.02 885.454 4126.1 867.674C4125.86 866.244 4125.62 864.804 4125.38 863.344C4119.6 828.794 4111.61 788.054 4111.61 788.054C4111.61 788.054 4102.69 807.504 4085.31 807.504C4067.93 807.504 4071.98 792.664 4071.98 792.664C4071.98 792.664 4056.12 794.534 4052.38 798.564C4048.64 802.594 4039.13 820.044 4037.25 824.794C4037.25 824.794 4036.86 830.854 4051.85 833.734C4051.85 833.734 4048.2 850.164 4047.76 861.114C4047.44 869.204 4053.29 894.524 4054.96 910.264C4055.56 915.844 4055.64 920.264 4054.73 922.264C4053.57 924.804 4049.82 927.334 4045.56 929.824C4037.12 934.704 4026.59 939.454 4030.17 943.734Z" fill="#2B478B"/>
<path d="M4045.59 929.773C4035.97 946.173 4071.67 951.103 4077.59 954.573C4091.01 962.453 4132.05 991.023 4144.91 989.803C4149.91 989.343 4148.91 979.803 4145.91 967.203C4141.16 947.273 4131.21 919.593 4131.21 907.563C4131.21 900.993 4129.03 885.453 4126.11 867.673L4110.64 852.823C4110.64 852.823 4094.06 895.663 4078.26 902.693C4070.75 905.928 4062.95 908.462 4054.97 910.263C4055.57 915.843 4055.65 920.263 4054.74 922.263C4053.6 924.753 4049.85 927.283 4045.59 929.773Z" fill="#233862"/>
<path d="M4116.39 800.873C4116.39 800.873 4129.62 792.873 4142.39 808.073C4155.16 823.273 4133.3 932.243 4114.39 937.833C4093.39 944.053 4032.54 936.833 4032.54 936.833L4033.71 927.323C4033.71 927.323 4098.44 914.913 4101.13 911.453C4103.82 907.993 4109.67 802.633 4116.39 800.873Z" fill="#FFB27D"/>
<path d="M4111.64 788.043C4111.64 788.043 4138.8 790.493 4146.69 799.433C4154.58 808.373 4156.88 832.573 4156.88 832.573C4156.88 832.573 4132.96 851.883 4104.14 844.393L4111.64 788.043Z" fill="#2B478B"/>
<path d="M4038.97 926.774C4038.97 926.774 4017.89 922.694 4015.51 923.714C4013.13 924.734 3999.88 936.633 4001.24 939.013C4002.6 941.393 4008.03 943.093 4014.15 941.013C4020.27 938.933 4033.53 937.954 4035.91 934.894C4038.29 931.834 4038.97 926.774 4038.97 926.774Z" fill="#FFB27D"/>
<path d="M4022 954.293H4057.88V950.053H4022V954.293Z" fill="#9E332E"/>
<path d="M4029.63 953.713C4029.28 952.313 3996.63 901.073 3996.63 901.073H3924.03L3960.45 952.333L4029.63 953.713Z" fill="#9E332E"/>
<path d="M4026.57 954.293C4026.22 952.893 3993.48 901.073 3993.48 901.073H3924.04L3958.69 954.293H4026.57Z" fill="#B5453C"/>
<path d="M3965.35 927.854C3965.74 928.902 3966.43 929.814 3967.33 930.481C3968.22 931.148 3969.3 931.542 3970.41 931.614C3972.48 931.614 3973.59 929.934 3972.87 927.854C3972.48 926.807 3971.8 925.895 3970.9 925.227C3970.01 924.56 3968.94 924.167 3967.82 924.094C3965.74 924.104 3964.64 925.774 3965.35 927.854Z" fill="#9E332E"/>
<path d="M4976.45 781.636C4976.45 781.636 4993.77 791.486 4998.62 791.476C5003.47 791.466 5022.51 787.796 5027.81 790.476C5033.11 793.156 5042.72 804.096 5044.53 807.656C5047.77 814.066 5031.48 811.236 5023.78 805.776C5023.23 805.382 5022.61 805.109 5021.95 804.973C5021.29 804.837 5020.6 804.841 5019.94 804.986C5015.94 805.846 5007.67 807.356 5003.67 805.876C4998.29 803.876 4969.96 801.676 4969.96 801.676L4976.45 781.636Z" fill="#EA9963"/>
<path d="M4844.65 647.455C4844.65 647.455 4862.65 775.085 4892.35 786.515C4907.02 792.155 4971.86 804.945 4991.04 806.225C4991.04 806.225 4995.74 802.415 4994.6 786.895C4994.6 786.895 4926.66 761.955 4917.01 748.395C4902.64 728.205 4925.93 665.925 4907.9 646.965C4889.87 628.005 4859.52 619.855 4844.65 647.455Z" fill="#ED7D2B"/>
<path d="M4850.7 916.346C4855.97 925.106 4861.83 933.492 4868.25 941.446C4887.55 965.816 4908.56 985.906 4912.25 1004.9C4913.08 1009.02 4914.21 1013.09 4915.64 1017.05C4917.17 1021.4 4919.06 1025.98 4921.24 1030.7C4929.43 1048.49 4941.68 1068.43 4953.91 1086.55C4975.05 1117.87 4994.91 1144.01 4994.91 1144.01L5031.37 1142.46C5029.91 1138.81 5014.01 1095.55 4992.74 1042.7L4966.09 976.406L4962.56 967.636L4954.56 947.816C4934.56 898.176 4918.68 858.656 4918.68 858.656C4918.68 858.656 4838.85 828.416 4830.56 848.016C4823.7 864.166 4829.27 879.996 4850.7 916.346Z" fill="#233862"/>
<path d="M4996.03 1137.38C4996.03 1137.38 4997.9 1167.47 5003.72 1167.9C5004.49 1167.96 5033.24 1167.96 5033.24 1167.96L5069.93 1167.74C5069.93 1167.74 5069.69 1158.9 5058.93 1157.03C5048.17 1155.16 5030.25 1147.62 5023.75 1133.45C5016.95 1118.53 4996.03 1137.38 4996.03 1137.38Z" fill="#163560"/>
<path d="M4866.5 1042.77C4866.5 1042.77 4839.25 1055.67 4841.01 1061.24C4841.25 1061.97 4851.91 1088.67 4851.91 1088.67L4865.73 1122.67C4865.73 1122.67 4873.85 1119.17 4871.6 1108.51C4869.35 1097.85 4869.7 1078.39 4880.45 1067.1C4891.76 1055.21 4866.5 1042.77 4866.5 1042.77Z" fill="#163560"/>
<path d="M4876.21 1072.79C4876.21 1072.79 4860.91 1057.32 4858.12 1047.07C4858.12 1047.07 4910.75 995.916 4929.56 983.496C4951.16 969.236 4965.18 969.156 4961.72 965.666C4950.36 954.226 4854.97 920.846 4839.44 896.666C4834.83 889.577 4831.44 881.756 4829.44 873.536C4825.92 858.796 4828.7 848.616 4828.7 848.616L4947.36 845.186C4947.36 845.186 5035.58 936.696 5035.08 971.136C5034.5 1008.39 4876.21 1072.79 4876.21 1072.79Z" fill="#2B478B"/>
<path d="M4914.86 639.406C4890.86 645.616 4851.06 623.406 4851.06 623.406C4851.06 623.406 4866.51 613.016 4872.24 590.206C4872.53 589.056 4872.79 587.886 4873.02 586.676L4885.35 584.056L4903.68 600.486C4903.15 606.714 4902.25 612.906 4900.97 619.026C4900.58 621.072 4900.12 623.266 4899.59 625.606C4905.48 629.233 4910.66 633.911 4914.86 639.406V639.406Z" fill="#FFB27D"/>
<path d="M4825.64 738.905C4829.08 785.155 4824.56 855.485 4828.46 867.665C4831.83 878.175 4870.18 871.925 4885.46 868.415C4891.13 867.115 4897.99 865.265 4905.08 863.065C4924.85 856.945 4946.4 848.205 4948.71 841.715C4948.8 841.47 4948.87 841.22 4948.92 840.965C4949.14 840.071 4949.14 839.139 4948.92 838.245C4948.15 834.935 4945.18 831.355 4944.83 823.165C4944.44 814.025 4944.5 803.255 4944.15 791.675C4944.15 790.365 4944.15 788.945 4943.98 787.675V787.205C4943.98 786.955 4943.98 786.715 4943.98 786.465C4943.65 773.545 4942.98 759.965 4942.19 746.465C4941.7 738.005 4941.12 729.625 4940.46 721.605C4938.73 700.885 4936.46 682.465 4933.33 670.815C4928.33 651.815 4917.22 639.455 4907.14 630.375L4899.84 624.115C4891.69 625.895 4882.07 624.715 4873.36 620.595C4863.94 616.115 4860.68 612.915 4859.04 614.115C4837.24 630.925 4821.58 682.375 4825.64 738.905Z" fill="#F99746"/>
<path d="M4905.09 863.066C4924.86 856.946 4946.41 848.206 4948.72 841.716C4948.81 841.47 4948.88 841.22 4948.93 840.966C4948.93 840.066 4948.93 839.156 4948.93 838.246C4948.16 834.936 4945.19 831.356 4944.84 823.166C4944.45 814.026 4944.51 803.256 4944.16 791.676C4944.16 790.366 4944.16 788.946 4943.99 787.676V787.206C4943.99 786.956 4943.99 786.716 4943.99 786.466L4864.01 684.636C4864.01 684.636 4810.27 796.486 4905.09 863.066Z" fill="#ED7D2B"/>
<path d="M4903.68 600.455C4903.15 606.684 4902.25 612.875 4900.97 618.995C4883.07 613.205 4874.97 596.995 4872.24 590.175C4872.53 589.025 4872.79 587.855 4873.02 586.645L4885.35 584.025L4903.68 600.455Z" fill="#EA9963"/>
<path d="M4906.09 610.785C4906.09 610.785 4867.09 604.275 4871.48 580.025C4875.87 555.775 4873.86 538.595 4898.98 541.725C4924.1 544.855 4927.23 555.005 4927.72 563.455C4928.21 571.905 4916.36 611.855 4906.09 610.785Z" fill="#FFB27D"/>
<path d="M5059.68 818.464L5063.12 819.583L5092.42 729.423L5088.97 728.304L5059.68 818.464Z" fill="#4A75CB"/>
<path d="M4963.72 817.455L5063.18 819.573L5063.31 813.625L4963.85 811.507L4963.72 817.455Z" fill="#4A75CB"/>
<path d="M4965.76 822.046C4965.76 822.046 4997.76 830.476 5009.7 829.586C5021.64 828.696 5031.65 823.006 5033.16 820.026C5034.67 817.046 5037.84 811.776 5029.68 812.746C5021.52 813.716 5010.38 815.456 5010.03 813.886C5009.68 812.316 5016.69 812.476 5016.69 812.476C5016.69 812.476 5018.8 809.396 5016.14 809.286C5013.48 809.176 5005.71 807.066 5002.82 808.506C4999.93 809.946 4997.27 815.276 4995.17 815.056C4993.07 814.836 4968.42 803.956 4968.42 803.956L4965.76 822.046Z" fill="#FFB27D"/>
<path d="M4852.58 652.696C4852.58 652.696 4856.35 781.526 4884.65 796.166C4898.65 803.386 4961.65 823.246 4980.57 826.636C4980.57 826.636 4985.66 823.366 4986.23 807.816C4986.23 807.816 4921.46 775.536 4913.36 760.996C4901.31 739.346 4931.36 679.996 4915.5 659.176C4899.64 638.356 4870.4 626.906 4852.58 652.696Z" fill="#F99746"/>
<path d="M4872.24 590.176C4872.24 590.176 4871.79 581.856 4876.92 577.086C4876.92 577.086 4875.14 568.746 4878.44 567.376C4881.74 566.006 4882.44 573.006 4883.94 571.906C4885.44 570.806 4892.19 565.586 4895.08 557.906C4897.97 550.226 4924.39 559.526 4927.48 560.906C4930.57 562.286 4940.48 557.206 4942.38 553.076C4942.38 553.076 4936.88 548.676 4934.38 545.376C4931.88 542.076 4914.57 519.796 4890.38 526.126C4866.19 532.456 4862.88 544.006 4864.25 553.906C4865.62 563.806 4862.33 586.856 4872.24 590.176Z" fill="#2B478B"/>
</svg>
