<svg width="623" height="435" viewBox="0 0 623 435" fill="none" xmlns="http://www.w3.org/2000/svg">
<path d="M53.3889 432.297H598.177C643.333 394.604 620.094 281.182 582.39 258.189C541.791 233.438 606.26 147.84 543.717 120.059C502.884 101.92 437.939 121.692 446.675 73.1577C458.777 5.84764 317.19 -11.394 212.874 6.74526C100.099 26.359 203.088 122.795 79.0655 142.218C15.2927 152.209 27.6166 237.692 33.5633 255.345C38.7518 270.724 73.0063 295.14 25.3872 328.733C-44.4399 378.004 51.7431 431.381 53.3889 432.297Z" fill="#C1E0D8" fill-opacity="0.56"/>
<path d="M537.302 144.405C537.302 144.405 528.385 163.832 522.383 172.04C516.381 180.248 510.662 188.094 505.878 210.873C501.094 233.651 501.912 235.939 500.601 241.823C499.29 247.707 490.76 271.543 490.712 275.914C490.664 280.284 473.475 305.167 469.071 316.814C464.667 328.462 456.871 345.095 457.307 353.564L459.266 353.066C459.266 353.066 460.864 333.319 474.451 313.36C488.038 293.402 486.095 289.634 501.524 279.37C516.953 269.106 526.918 240.803 526.918 240.803C526.918 240.803 542.615 210.04 541.886 194.045C541.156 178.051 545.321 163.634 537.302 144.405Z" fill="#256653"/>
<path d="M516.417 114.522C516.417 114.522 515.898 127.286 511.784 134.869C507.669 142.452 504.129 147.055 503.38 155.258C502.631 163.461 500.048 184.607 488.578 194.931C477.108 205.255 475.642 236.19 466.908 245.547C458.175 254.904 457.036 261.633 458.648 277.682C460.261 293.732 465.738 315.964 453.06 345.004L450.19 337.783C450.19 337.783 459.251 313.899 457.058 299.912C454.864 285.926 447.229 264.795 450.025 254.672C452.821 244.549 442.428 242.558 448.685 227.229C454.943 211.899 452.371 206.574 460.885 193.32C460.885 193.32 461.758 192.7 463.995 181.485C466.231 170.271 484.287 149.719 492.604 142.708C500.921 135.697 512.939 124.439 516.417 114.522Z" fill="#256653"/>
<path d="M482.532 177.713C482.532 177.713 472.569 194.78 472.428 205.764C472.287 216.749 473.474 225.687 468.434 240.729C463.393 255.771 473.392 265.283 470.522 273.596C467.651 281.91 467.412 291.736 467.503 299.192C467.594 306.648 456.093 331.329 454.347 343.824C452.6 356.319 454.825 356.362 454.825 356.362C454.825 356.362 456.739 339.865 459.37 334.41C462.001 328.955 470.06 310.145 471.94 302.869C473.821 295.592 478.913 290.922 483.307 278.599C487.702 266.277 493.964 255.883 493.486 238.409C493.007 220.936 500.033 202.456 482.532 177.713Z" fill="#3C8F7C"/>
<path d="M461.432 344.904C461.432 344.904 466.08 323.244 485.669 321.08C505.257 318.916 516.766 322.794 530.606 306.969C544.447 291.144 552.484 266.037 556.905 261.707C556.905 261.707 549.951 258.116 538.39 268.941C526.829 279.765 518.71 287.961 512.017 294.256C505.324 300.552 499.89 296.449 492.826 300.599C486.903 304.077 479.246 314.133 475.873 319.399C474.782 321.112 473.476 322.678 471.986 324.057C470.63 325.312 469.013 326.848 467.974 327.978C465.901 330.24 459.918 344.973 459.918 344.973L461.432 344.904Z" fill="#3C8F7C"/>
<path d="M454.537 341.084C454.537 341.084 461.44 314.593 456.816 301.629C452.192 288.665 437.715 279.073 438.297 270.93C438.878 262.787 448.174 240.77 440.595 224.392C440.595 224.392 437.725 239.008 434.876 242.258C432.027 245.509 412.539 258.622 415.995 275.94C419.452 293.258 438.404 297.303 443.071 302.402C447.738 307.5 454.039 307.493 454.075 310.883C454.111 314.272 455.345 326.597 453.252 338.759L454.537 341.084Z" fill="#3C8F7C"/>
<path d="M462.085 323.354L471.785 295.398C471.785 295.398 477.48 272.909 480.784 254.157C484.087 235.405 482.532 177.713 482.532 177.713C482.532 177.713 472.569 194.78 472.428 205.764C472.287 216.749 473.474 225.687 468.433 240.729C463.393 255.771 473.392 265.283 470.522 273.596C467.651 281.91 467.412 291.736 467.503 299.192C467.594 306.648 456.093 331.329 454.347 343.824C453.39 350.67 453.629 353.775 454.038 355.185C452.469 344.248 462.085 323.354 462.085 323.354Z" fill="#327F6B"/>
<path d="M509.86 306.701C501.208 308.429 493.472 307.84 483.201 315.491C472.929 323.141 466.889 331.31 466.889 331.31C466.889 331.31 462.27 339.566 460.364 343.92C460.088 344.586 459.926 344.983 459.926 344.983L461.44 344.904C461.44 344.904 466.088 323.244 485.676 321.08C505.265 318.916 516.773 322.794 530.614 306.969C544.455 291.144 552.492 266.037 556.912 261.707C556.912 261.707 542.192 273.166 533.097 283.308C524.002 293.45 518.512 304.97 509.86 306.701Z" fill="#327F6B"/>
<path d="M434.88 242.258C432.038 245.511 412.543 258.622 415.999 275.94C419.456 293.258 438.408 297.303 443.075 302.402C447.742 307.5 454.043 307.493 454.079 310.883C454.115 314.272 455.349 326.597 453.256 338.759L453.813 339.774C454.837 335.028 456.255 327.806 456.72 322.3C457.473 313.389 456.028 309.698 453.167 302.478C450.306 295.259 432.514 280.55 428.05 272.818C423.587 265.087 436.648 252.161 439.532 245.921C442.417 239.68 440.578 224.378 440.578 224.378C440.578 224.378 437.714 239.008 434.88 242.258Z" fill="#327F6B"/>
<path d="M481.12 328.285L484.158 320.919C486.519 315.502 492.566 312.917 497.661 315.143C510.502 320.752 516.08 336.363 510.131 350.014L505.777 359.994C503.864 364.365 504.533 369.176 507.105 372.565C509.442 375.646 509.822 379.928 508.203 383.641L505.909 388.907C504.703 391.677 502.912 394.154 500.658 396.166C498.405 398.177 495.743 399.677 492.855 400.562C491.102 401.107 489.489 402.026 488.126 403.257C486.763 404.487 485.683 405.999 484.961 407.688L481.711 415.137C478.122 423.371 468.925 427.304 461.179 423.922L456.759 421.99C449.011 418.605 445.643 409.186 449.236 400.949C455.044 391.102 454.582 383.753 452.522 378.767C451.008 375.068 450.253 371.102 450.302 367.104C450.35 363.107 451.201 359.16 452.805 355.498L453.264 354.445C454.942 350.588 457.423 347.133 460.54 344.31C463.658 341.487 467.34 339.361 471.343 338.075C474.874 336.952 478.531 334.221 481.12 328.285Z" fill="#50BFA5"/>
<path d="M426.287 432.297C432.518 424.211 466.689 380.9 488.972 373.681C513.565 365.705 490.376 397.349 490.376 397.349C490.376 397.349 534.005 349.61 550.015 353.914C564.693 357.859 550.015 387.449 550.015 387.449C550.015 387.449 566.544 371.062 586.592 371.062C606.1 371.062 572.958 429.176 571.173 432.287L426.287 432.297Z" fill="#96D9C9"/>
<path d="M557.773 338.589C539.799 366.697 526.848 397.718 519.499 430.267L518.279 429.939C525.697 397.68 538.59 366.932 556.397 339.035C560.533 332.572 565.009 324.895 572.745 322.372C572.893 322.324 572.95 322.552 572.807 322.612C565.738 325.271 561.641 332.543 557.773 338.589Z" fill="#3C8F7C"/>
<path d="M523.797 431.428C544.4 403.375 568.968 378.465 596.729 357.48C597.016 357.263 597.406 357.765 597.116 357.988C569.755 379.02 545.568 403.891 525.302 431.833L523.797 431.428Z" fill="#3C8F7C"/>
<path d="M559.403 321.314C559.862 321.989 561.618 323.751 562.134 326.063C562.826 328.258 562.28 331.006 562.22 330.911C562.089 330.966 564.254 329.135 564.931 326.221C565.806 323.426 565.191 319.55 564.103 318.267C562.223 315.364 558.936 315.069 558.297 316.477C557.62 317.879 558.479 319.778 559.403 321.314Z" fill="#3C8F7C"/>
<path d="M563.668 346.18C563.001 345.701 561.276 343.915 558.975 343.353C556.796 342.618 554.038 343.114 554.133 343.171C554.076 343.303 555.949 341.172 558.874 340.555C561.683 339.734 565.543 340.423 566.804 341.538C569.675 343.477 569.897 346.771 568.479 347.381C567.067 348.04 565.185 347.135 563.668 346.18Z" fill="#3C8F7C"/>
<path d="M557.23 357.078C556.565 356.6 554.838 354.814 552.537 354.254C550.358 353.516 547.602 354.014 547.698 354.069C547.64 354.201 549.513 352.071 552.436 351.453C555.245 350.632 559.106 351.321 560.369 352.437C563.239 354.376 563.462 357.67 562.043 358.28C560.632 358.931 558.747 358.033 557.23 357.078Z" fill="#3C8F7C"/>
<path d="M580.187 382.358C579.52 381.879 577.795 380.093 575.494 379.533C573.315 378.796 570.559 379.294 570.653 379.349C570.595 379.481 572.468 377.35 575.394 376.733C578.202 375.912 582.063 376.601 583.324 377.716C586.194 379.655 586.416 382.949 584.998 383.559C583.587 384.211 581.704 383.313 580.187 382.358Z" fill="#3C8F7C"/>
<path d="M591.916 372.02C591.249 371.541 589.524 369.755 587.223 369.193C585.044 368.455 582.286 368.953 582.381 369.011C582.324 369.142 584.197 367.012 587.12 366.392C589.931 365.573 593.792 366.263 595.052 367.376C597.923 369.315 598.145 372.608 596.727 373.221C595.315 373.87 593.433 372.972 591.916 372.02Z" fill="#3C8F7C"/>
<path d="M550.397 333.647C550.956 334.24 552.968 335.703 553.844 337.907C554.875 339.963 554.767 342.764 554.693 342.678C554.571 342.754 556.42 340.603 556.628 337.62C557.054 334.721 555.839 330.992 554.559 329.896C552.246 327.325 548.954 327.552 548.545 329.044C548.096 330.532 549.244 332.275 550.397 333.647Z" fill="#3C8F7C"/>
<path d="M540.933 346.005C541.729 346.429 544.521 347.202 545.911 349.28C547.494 351.132 547.697 354.306 547.585 354.239C547.434 354.376 549.568 351.18 549.475 347.76C549.673 344.344 547.645 340.703 545.858 340.03C542.55 338.156 538.316 339.827 537.964 341.668C537.577 343.52 539.273 344.971 540.933 346.005Z" fill="#3C8F7C"/>
<path d="M530.972 364.726C531.828 365.009 534.701 365.296 536.431 367.12C538.304 368.68 539.033 371.773 538.921 371.728C538.797 371.886 540.356 368.376 539.696 365.025C539.316 361.624 536.706 358.376 534.83 358.012C531.242 356.724 527.362 359.082 527.329 360.954C527.245 362.84 529.164 363.986 530.972 364.726Z" fill="#3C8F7C"/>
<path d="M560.447 377.767C561.068 378.157 563.288 378.937 564.31 380.713C565.491 382.31 565.475 384.902 565.393 384.843C565.264 384.945 567.18 382.468 567.307 379.682C567.661 376.912 566.221 373.836 564.805 373.185C562.219 371.474 558.681 372.592 558.294 374.069C557.856 375.553 559.155 376.831 560.447 377.767Z" fill="#3C8F7C"/>
<path d="M575.791 325.697C575.418 325.388 574.478 324.261 573.141 323.818C571.882 323.287 570.23 323.459 570.285 323.5C570.244 323.574 571.445 322.396 573.203 322.157C574.899 321.795 577.152 322.372 577.851 323.088C579.461 324.359 579.451 326.317 578.585 326.616C577.719 326.915 576.647 326.327 575.791 325.697Z" fill="#3C8F7C"/>
<path d="M572.217 317.741C572.233 318.219 572.559 319.656 572.085 320.989C571.738 322.31 570.592 323.514 570.595 323.45C570.511 323.435 572.176 323.21 573.437 321.954C574.759 320.831 575.68 318.691 575.539 317.702C575.515 315.651 573.96 314.461 573.195 314.966C572.429 315.471 572.24 316.683 572.217 317.741Z" fill="#3C8F7C"/>
<path d="M600.36 361.487C599.986 361.181 599.044 360.051 597.709 359.611C596.451 359.079 594.798 359.252 594.853 359.29C594.812 359.367 596.013 358.189 597.771 357.95C599.467 357.588 601.721 358.165 602.419 358.878C604.029 360.152 604.019 362.11 603.153 362.409C602.288 362.708 601.216 362.119 600.36 361.487Z" fill="#3C8F7C"/>
<path d="M596.048 353.464C596.103 353.943 596.546 355.355 596.182 356.712C595.943 358.057 594.902 359.345 594.898 359.285C594.814 359.285 596.452 358.909 597.608 357.564C598.835 356.334 599.576 354.129 599.356 353.155C599.163 351.111 597.517 350.043 596.794 350.618C596.072 351.192 595.984 352.403 596.048 353.464Z" fill="#3C8F7C"/>
<path d="M593.05 405.316C574.847 407.312 557.887 415.352 541.575 423.191C530.572 428.479 531.127 429.985 528.883 430.772C528.799 430.8 528.71 430.802 528.625 430.779C528.541 430.756 528.465 430.709 528.406 430.643C528.348 430.578 528.31 430.496 528.298 430.41C528.285 430.323 528.298 430.234 528.335 430.155C529.196 428.446 531.457 427.282 533.031 426.306C534.869 425.168 536.767 424.129 538.717 423.194C542.869 421.176 547.132 419.364 551.366 417.521C559.977 413.775 568.735 410.251 577.834 407.867C582.818 406.542 587.904 405.635 593.038 405.155C593.134 405.155 593.144 405.292 593.038 405.304L593.05 405.316Z" fill="#3C8F7C"/>
<path d="M576.643 399.666C576.762 400.416 577.54 402.584 577.061 404.727C576.777 406.84 575.234 408.928 575.222 408.825C575.09 408.825 577.614 408.138 579.341 405.952C581.178 403.956 582.192 400.466 581.786 398.96C581.353 395.784 578.714 394.24 577.626 395.169C576.537 396.097 576.475 398.015 576.643 399.666Z" fill="#3C8F7C"/>
<path d="M560.608 405.414C560.725 406.16 561.505 408.329 561.024 410.474C560.739 412.588 559.196 414.675 559.187 414.569C559.053 414.569 561.591 413.882 563.306 411.697C565.141 409.701 566.155 406.208 565.748 404.703C565.318 401.526 562.679 399.982 561.588 400.911C560.498 401.84 560.44 403.762 560.608 405.414Z" fill="#3C8F7C"/>
<path d="M544.315 412.681C544.432 413.428 545.21 415.596 544.731 417.741C544.446 419.855 542.904 421.942 542.892 421.837C542.76 421.837 545.296 421.15 547.013 418.964C548.848 416.968 549.862 413.476 549.455 411.97C549.022 408.796 546.384 407.25 545.296 408.178C544.207 409.107 544.145 411.029 544.315 412.681Z" fill="#3C8F7C"/>
<path d="M581.431 414.66C581.101 414.043 580.474 412.011 578.915 410.699C577.527 409.299 575.226 408.624 575.276 408.705C575.183 408.784 577.429 407.87 579.907 408.514C582.374 408.959 585.07 410.965 585.608 412.303C587.062 414.883 585.979 417.495 584.651 417.42C583.323 417.346 582.232 415.97 581.431 414.66Z" fill="#3C8F7C"/>
<path d="M564.751 420.568C564.421 419.95 563.795 417.918 562.235 416.606C560.848 415.206 558.546 414.531 558.597 414.613C558.503 414.692 560.749 413.777 563.228 414.421C565.694 414.866 568.39 416.872 568.93 418.21C570.382 420.791 569.299 423.402 567.974 423.328C566.648 423.254 565.548 421.877 564.751 420.568Z" fill="#3C8F7C"/>
<path d="M594.132 408.578C593.845 408.233 593.175 407.041 592.029 406.424C590.972 405.727 589.439 405.608 589.482 405.653C589.434 405.715 590.723 404.844 592.364 404.921C593.972 404.875 595.928 405.777 596.445 406.546C597.698 407.982 597.361 409.758 596.524 409.885C595.687 410.012 594.806 409.296 594.132 408.578Z" fill="#3C8F7C"/>
<path d="M592.207 400.732C592.142 401.174 592.207 402.541 591.542 403.669C591.006 404.813 589.762 405.72 589.774 405.658C589.7 405.632 591.257 405.699 592.613 404.775C594.008 403.97 595.204 402.177 595.245 401.253C595.568 399.379 594.348 398.034 593.57 398.367C592.793 398.699 592.408 399.767 592.207 400.732Z" fill="#3C8F7C"/>
<path d="M123.412 293.943C102.025 274.858 91.0284 247.453 85.5673 227.82C79.6421 206.516 78.7786 189.5 78.769 189.33L77.6064 189.258C77.6064 189.43 78.4819 206.564 84.4454 228.019C89.9472 247.843 101.068 275.531 122.719 294.85L123.412 293.943Z" fill="#3C8F7C"/>
<path d="M81.2067 184.406C82.2592 189.313 81.379 193.949 79.1304 197.296C75.6069 194.699 72.8345 190.541 71.7795 185.634C70.7246 180.727 71.6097 176.09 73.8559 172.744C77.3818 175.339 80.1518 179.499 81.2067 184.406Z" fill="#3C8F7C"/>
<path d="M74.6453 198.38C78.3315 201.81 80.4844 206.317 80.903 210.655C76.858 210.839 72.4063 209.197 68.7225 205.767C65.0387 202.337 62.8835 197.83 62.4648 193.49C66.5003 193.305 70.9615 194.95 74.6453 198.38Z" fill="#3C8F7C"/>
<path d="M72.9182 213.06C77.3761 214.479 81.1442 217.512 83.484 221.565C80.1614 223.703 75.7098 224.315 71.1289 222.879C66.6736 221.458 62.9085 218.425 60.5703 214.372C63.8857 212.237 68.3374 211.622 72.9182 213.06Z" fill="#3C8F7C"/>
<path d="M79.97 230.721C83.5964 231.868 86.4979 234.79 88.1413 238.493C85.3904 240.806 81.7879 241.682 78.1616 240.538C74.5352 239.393 71.6336 236.468 69.9902 232.765C72.7411 230.453 76.3412 229.577 79.97 230.721Z" fill="#3C8F7C"/>
<path d="M86.1628 205.516C87.4863 204.161 89.0992 203.123 90.8807 202.481C92.6621 201.839 94.5657 201.609 96.4487 201.808C96.5657 203.768 96.2713 205.731 95.5845 207.57C94.8978 209.41 93.8338 211.085 92.4611 212.488C91.1371 213.843 89.5241 214.88 87.7428 215.522C85.9615 216.164 84.0581 216.395 82.1752 216.196C82.0587 214.236 82.3533 212.273 83.04 210.434C83.7268 208.594 84.7905 206.919 86.1628 205.516Z" fill="#3C8F7C"/>
<path d="M89.4639 218.173C90.7874 216.818 92.4004 215.781 94.1817 215.138C95.9631 214.496 97.8667 214.265 99.7498 214.463C99.8666 216.423 99.5722 218.386 98.8854 220.226C98.1986 222.065 97.1348 223.74 95.7622 225.144C94.4385 226.499 92.8256 227.536 91.0443 228.179C89.263 228.821 87.3594 229.052 85.4763 228.854C85.359 226.894 85.6533 224.931 86.3401 223.091C87.0269 221.252 88.091 219.576 89.4639 218.173Z" fill="#3C8F7C"/>
<path d="M110.515 319.833C90.7632 316.96 73.8608 305.231 63.1514 295.927C51.5331 285.816 44.5099 276.261 44.4406 276.165L43.7373 276.569C43.8067 276.665 50.8824 286.293 62.5749 296.473C73.3799 305.882 90.457 317.709 110.455 320.627L110.515 319.833Z" fill="#50BFA5"/>
<path d="M43.9811 272.361C46.476 274.808 47.739 277.843 47.7175 280.651C44.6724 280.495 41.467 279.14 38.972 276.694C36.4771 274.248 35.2141 271.212 35.2356 268.402C38.5325 268.623 41.6385 270.029 43.9811 272.361Z" fill="#50BFA5"/>
<path d="M45.5263 283.004C48.9828 283.583 51.9633 285.373 53.8698 287.736C51.5902 289.397 48.368 290.151 44.9139 289.572C41.4597 288.993 38.4768 287.2 36.5703 284.837C38.85 283.171 42.0673 282.422 45.5263 283.004Z" fill="#50BFA5"/>
<path d="M50.1504 292.2C53.2847 291.315 56.6362 291.633 59.5489 293.091C58.4365 295.609 56.0851 297.674 52.8702 298.596C49.7358 299.481 46.3844 299.163 43.4717 297.706C44.584 295.19 46.9378 293.124 50.1504 292.2Z" fill="#50BFA5"/>
<path d="M61.022 299.759C63.5695 299.041 66.3802 299.62 68.7532 301.138C68.4191 302.338 67.7812 303.431 66.9011 304.312C66.0211 305.192 64.9287 305.831 63.7298 306.165C61.1822 306.883 58.3739 306.304 56.001 304.786C56.3348 303.587 56.9724 302.494 57.852 301.613C58.7316 300.732 59.8235 300.094 61.022 299.759Z" fill="#50BFA5"/>
<path d="M54.9581 282.728C55.2074 281.431 55.7475 280.208 56.5376 279.149C57.3277 278.091 58.3474 277.226 59.5198 276.62C60.3396 277.714 60.9212 278.968 61.2273 280.301C61.5334 281.634 61.5572 283.016 61.2971 284.358C61.0475 285.655 60.5073 286.879 59.7173 287.937C58.9272 288.995 57.9077 289.86 56.7355 290.467C55.9157 289.373 55.3341 288.119 55.028 286.786C54.7219 285.453 54.6981 284.071 54.9581 282.728Z" fill="#50BFA5"/>
<path d="M61.7353 288.815C61.9855 287.518 62.5258 286.295 63.3158 285.236C64.1058 284.178 65.125 283.312 66.297 282.704C67.116 283.799 67.6972 285.054 68.0033 286.387C68.3093 287.72 68.3335 289.102 68.0743 290.445C67.8247 291.742 67.2845 292.966 66.4944 294.024C65.7044 295.082 64.6849 295.947 63.5126 296.554C62.6931 295.46 62.1115 294.206 61.8054 292.873C61.4993 291.54 61.4754 290.158 61.7353 288.815Z" fill="#50BFA5"/>
<path d="M122.417 378.988C99.6325 387.643 74.554 383.071 57.5272 377.712C39.0412 371.893 25.7867 363.917 25.6551 363.828L25.1504 364.786C25.282 364.867 38.6345 372.905 57.2401 378.765C74.4344 384.179 99.7737 388.794 122.838 380.031L122.417 378.988Z" fill="#96D9C9"/>
<path d="M22.8523 359.206C26.8202 360.739 30.041 363.749 31.8394 367.606C28.4905 369.312 24.2684 369.569 20.1325 367.962C16.1647 366.43 12.9438 363.42 11.1455 359.563C14.4825 357.854 18.7164 357.6 22.8523 359.206Z" fill="#96D9C9"/>
<path d="M30.9232 372.027C32.8365 371.35 34.87 371.081 36.8934 371.236C38.9167 371.392 40.8853 371.968 42.6731 372.929C41.921 374.788 40.7787 376.463 39.3236 377.842C37.8685 379.221 36.1344 380.271 34.2386 380.922C32.3251 381.599 30.2913 381.869 28.2674 381.714C26.2436 381.559 24.2745 380.983 22.4863 380.022C23.2391 378.162 24.3818 376.487 25.8373 375.107C27.2928 373.728 29.0271 372.678 30.9232 372.027Z" fill="#96D9C9"/>
<path d="M41.4052 381.046C44.2757 377.834 48.1509 376.232 51.9567 376.304C52.1264 378.35 51.8779 380.41 51.2265 382.357C50.5751 384.304 49.5343 386.097 48.1676 387.629C45.2971 390.841 41.422 392.442 37.6162 392.371C37.4466 390.324 37.6951 388.265 38.3465 386.318C38.9979 384.371 40.0386 382.578 41.4052 381.046Z" fill="#96D9C9"/>
<path d="M56.0711 385.702C58.9416 382.492 62.8168 380.891 66.6226 380.962C66.792 383.009 66.5434 385.068 65.892 387.015C65.2406 388.962 64.2 390.755 62.8335 392.287C59.963 395.497 56.0855 397.098 52.2797 397.029C52.1111 394.982 52.3603 392.923 53.012 390.975C53.6638 389.028 54.7046 387.234 56.0711 385.702Z" fill="#96D9C9"/>
<path d="M42.2732 370.658C39.7495 367.371 38.6252 363.41 38.8932 359.817C42.2157 360.204 45.6125 362.136 48.1337 365.423C50.655 368.709 51.7817 372.671 51.5138 376.264C48.1912 375.876 44.7944 373.944 42.2732 370.658Z" fill="#96D9C9"/>
<path d="M57.5083 375.428C54.9368 372.18 53.7527 368.233 53.9608 364.628C57.281 364.958 60.7017 366.832 63.2732 370.081C65.8447 373.329 67.0288 377.278 66.8183 380.883C63.498 380.553 60.0774 378.679 57.5083 375.428Z" fill="#96D9C9"/>
<path d="M75.3508 386.978C75.6552 386.178 76.1359 385.458 76.7572 384.871C77.3785 384.284 78.1243 383.844 78.939 383.586C79.3255 384.388 79.5437 385.261 79.5799 386.15C79.6161 387.04 79.4696 387.928 79.1495 388.758C78.8451 389.558 78.3644 390.278 77.7431 390.865C77.1218 391.452 76.376 391.892 75.5613 392.15C75.1748 391.348 74.9566 390.475 74.9204 389.586C74.8842 388.696 75.0307 387.808 75.3508 386.978Z" fill="#96D9C9"/>
<path d="M171.317 430.622C171.317 430.622 200.345 315.725 190.719 304.192C177.414 288.239 166.442 341.16 165.363 336.665C155.194 294.216 152.486 239.901 119.674 234.154C101.028 230.884 123.98 274.542 122.602 286.35C121.224 298.158 87.625 258.954 67.2038 238.41C46.7827 217.865 36.2384 230.874 49.1412 256.7C61.6183 281.673 101.98 308.963 93.6602 312.202C85.3406 315.44 34.8294 283.195 28.6459 296.983C21.0606 313.887 96.8202 336.89 89.6918 340.689C82.5634 344.488 46.3473 331.978 47.3352 344.904C48.3232 357.83 97.0043 357.351 96.1719 363.036C94.8252 372.242 62.6278 351.403 61.2141 364.142C59.7669 377.171 103.571 374.794 102.812 384.967C102.375 390.805 92.9761 381.996 91.5911 390.087C88.4335 408.53 146.178 431 146.178 431L171.317 430.622Z" fill="#3C8F7C"/>
<path d="M193.45 431.318C193.45 431.318 165.824 388.933 152.529 380.931C138.365 372.405 149.149 397.926 149.149 397.926C149.149 397.926 120.205 363.457 112.158 370.461C104.111 377.465 111.414 385.575 111.414 385.575C111.414 385.575 85.4261 377.87 80.7568 387.413C73.5805 402.082 116.363 414.244 116.363 414.244C116.363 414.244 97.9965 414.048 101.376 423.95C106.472 438.892 193.45 431.318 193.45 431.318Z" fill="#50BFA5"/>
<path d="M80.7568 387.42C85.4262 377.877 111.414 385.582 111.414 385.582C111.414 385.582 104.111 377.472 112.158 370.468C120.205 363.465 143.358 384.424 143.358 384.424C143.358 384.424 140.932 367.136 158.368 382.365C170.821 393.242 193.45 431.313 193.45 431.313L80.7568 387.42Z" fill="#96D9C9"/>
<path d="M159.916 324.898L161.155 324.05C138.669 289.962 131.797 249.495 129.998 221.546C128.046 191.218 131.474 168.677 131.507 168.452L129.972 168.004C129.936 168.244 126.484 190.924 128.443 221.433C130.254 249.619 137.184 290.448 159.916 324.898Z" fill="#96D9C9"/>
<path d="M135.935 163.143C135.986 169.989 133.61 175.65 129.821 179.046C125.76 173.785 123.526 167.34 123.461 160.692C123.413 153.843 125.786 148.182 129.575 144.786C133.638 150.048 135.871 156.494 135.935 163.143Z" fill="#96D9C9"/>
<path d="M123.752 178.534C127.58 184.588 129.161 191.386 128.536 197.219C123.274 195.721 117.975 191.668 114.141 185.615C110.306 179.561 108.735 172.763 109.357 166.927C114.622 168.426 119.918 172.478 123.752 178.534Z" fill="#96D9C9"/>
<path d="M117.607 196.922C123 200.736 126.982 206.227 128.933 212.541C124.082 213.898 118.169 212.78 112.667 208.951C107.269 205.139 103.284 199.647 101.331 193.332C106.187 191.972 112.088 193.08 117.607 196.922Z" fill="#96D9C9"/>
<path d="M124.805 229.026C127.172 230.469 128.991 232.658 129.977 235.25C128.001 235.987 125.518 235.729 123.112 234.278C120.744 232.836 118.923 230.647 117.938 228.054C119.913 227.317 122.396 227.588 124.805 229.026Z" fill="#96D9C9"/>
<path d="M126.759 240.918C129.126 242.361 130.946 244.55 131.933 247.142C129.957 247.876 127.472 247.606 125.066 246.17C122.699 244.727 120.879 242.537 119.892 239.946C121.867 239.211 124.353 239.482 126.759 240.918Z" fill="#96D9C9"/>
<path d="M136.693 192.781C141.133 190.258 146.338 190.297 150.941 192.37C150.168 197.509 147.398 202.054 142.951 204.577C138.504 207.1 133.306 207.074 128.694 204.989C129.477 199.847 132.247 195.302 136.693 192.781Z" fill="#96D9C9"/>
<path d="M137.581 210.695C142.028 208.175 147.226 208.201 151.84 210.286C151.065 215.425 148.295 219.971 143.851 222.494C139.406 225.017 134.204 224.988 129.592 222.903C130.369 217.764 133.134 213.216 137.581 210.695Z" fill="#96D9C9"/>
<path d="M136.698 236.337C139.593 234.697 142.978 234.714 145.98 236.071C145.475 239.422 143.674 242.373 140.779 244.015C137.885 245.657 134.5 245.638 131.498 244.281C132 240.937 133.804 237.979 136.698 236.337Z" fill="#96D9C9"/>
<path d="M454.081 337.419C456.695 337.845 456.54 338.271 456.877 338.317C457.274 338.369 461.991 336 461.991 336C461.991 336 475.944 329.108 476.683 328.708L486.754 316.022L494.514 319.612C494.514 319.612 483.199 333.091 482.482 333.678C481.764 334.264 461.762 341.292 460.02 341.969C460.02 341.969 458.267 343.573 457.133 344.543C455.999 345.512 454.48 345.895 454.117 346.115C453.143 346.607 452.11 346.97 451.043 347.195C449.519 347.528 450.789 346.491 450.789 346.491C450.789 346.491 453.485 345.352 453.353 345.146C453.251 344.985 451.818 345.699 450.134 346.084C449.703 346.182 449.275 346.28 448.883 346.364C447.849 346.587 447.395 345.996 448.433 345.584C448.899 345.389 449.379 345.229 449.868 345.105C450.368 345 450.789 344.737 451.193 344.583C451.997 344.277 452.588 344.064 452.554 344.038C452.521 344.011 452.629 343.822 452.165 343.913C451.607 344.023 450.49 344.523 449.653 344.617C449.174 344.672 448.203 344.856 448.203 344.856C448.203 344.856 446.471 345.021 446.459 344.78C446.433 344.248 447.5 343.954 448.153 343.966C448.621 343.792 449.108 343.671 449.603 343.604C449.603 343.604 451.61 342.81 451.492 342.513C451.447 342.396 450.232 342.577 448.94 342.666C447.577 342.759 446.591 342.759 446.517 342.494C446.402 342.075 447.488 341.917 447.488 341.917C447.488 341.917 448.445 341.778 448.758 341.706C449.124 341.622 450.193 341.282 450.193 341.282C450.193 341.282 453.884 339.925 453.753 339.655C453.621 339.384 453.009 338.81 452.748 338.812C452.487 338.815 452.031 339.073 451.763 339.075C451.495 339.078 450.942 339.025 450.902 338.697C450.861 338.369 452.308 337.692 452.308 337.692C452.308 337.692 453.327 337.297 454.081 337.419Z" fill="#F8A492"/>
<path d="M479.746 323.883C479.746 323.883 482.26 326.166 483.303 326.918C484.174 327.543 488.405 329.585 488.405 329.585C488.405 329.585 492.618 323.122 494.46 319.895C496.694 315.967 498.242 310.129 497.713 309.971C496.23 309.526 494.192 309.253 492.307 310.119C485.791 313.111 479.746 323.883 479.746 323.883Z" fill="#355389"/>
<path d="M456.525 340.792C455.405 340.969 454.262 340.756 453.766 339.731C453.656 340.947 455.496 341.55 456.525 340.792Z" fill="#FE875E"/>
<path d="M144.243 295.523C144.399 291.764 143.848 288.052 142.176 284.555C140.741 281.544 137.174 279.834 133.926 279.832C123.611 279.818 122.298 293.514 115.732 298.797C113.727 300.41 111.484 301.725 109.587 303.467C102.575 309.894 105.733 321.793 112.17 327.43C116.636 331.339 123.652 333.563 129.154 330.504C132.024 328.91 134.208 326.257 135.763 323.349C137.969 319.225 139.39 314.466 140.959 310.069C142.648 305.389 144.047 300.518 144.243 295.523Z" fill="#13375B"/>
<path d="M145.938 313.722C142.716 303.941 138.463 304.094 138.463 304.094L141.898 324.919C143.888 324.376 146.479 323.165 148.467 322.602C147.809 319.51 146.73 316.13 145.938 313.722Z" fill="#F7CC7F"/>
<path d="M162.222 347.082L150.443 338.092C150.443 338.092 149.247 329.702 147.671 322.26C145.683 322.82 143.889 324.381 141.898 324.924L144.896 341.593L160.332 349.564L164.693 355.17L165.685 349.426L162.222 347.082Z" fill="#F48C7F"/>
<path d="M269.588 333.034C273.11 333.03 276.573 333.944 279.635 335.686C280.027 335.907 280.433 336.102 280.85 336.272C289.902 339.992 299.805 333.103 299.805 323.311V275.157H251.695C241.91 275.157 235.025 265.245 238.742 256.19C238.911 255.771 239.107 255.364 239.328 254.971C241.124 251.794 242.035 248.193 241.968 244.543C241.9 240.894 240.856 237.329 238.944 234.22C237.033 231.112 234.323 228.573 231.098 226.868C227.872 225.163 224.249 224.354 220.606 224.526C210.009 225.005 201.469 233.727 201.18 244.339C201.071 247.964 201.934 251.553 203.679 254.732C203.897 255.131 204.091 255.544 204.258 255.967C207.947 265.173 200.952 275.169 191.04 275.169H143.332V384.893C143.332 410.775 164.301 431.756 190.167 431.756H299.817V383.763C299.817 373.922 289.88 366.99 280.774 370.698C280.355 370.867 279.947 371.061 279.551 371.28C276.83 372.798 273.798 373.673 270.687 373.837C267.576 374.001 264.468 373.449 261.603 372.225C258.738 371.001 256.191 369.136 254.157 366.774C252.124 364.412 250.658 361.616 249.872 358.599C249.086 355.582 249.001 352.425 249.624 349.371C250.246 346.316 251.559 343.445 253.463 340.976C255.366 338.508 257.809 336.509 260.604 335.132C263.4 333.756 266.473 333.038 269.588 333.034Z" fill="#F47458"/>
<path d="M373.881 306.323C374.038 302.799 375.109 299.377 376.991 296.394C377.231 296.009 377.445 295.609 377.634 295.197C381.77 286.324 375.355 276.103 365.581 275.645L317.512 273.395L315.263 321.508C314.806 331.289 304.592 337.706 295.725 333.568C295.313 333.379 294.913 333.165 294.529 332.926C291.441 330.98 287.887 329.898 284.239 329.793C280.591 329.688 276.982 330.565 273.787 332.331C270.593 334.097 267.93 336.688 266.077 339.834C264.223 342.98 263.247 346.566 263.25 350.218C263.25 360.834 271.541 369.77 282.119 370.564C285.733 370.84 289.355 370.144 292.61 368.549C293.021 368.35 293.442 368.177 293.873 368.029C303.234 364.772 312.886 372.23 312.422 382.138L310.195 429.824L419.725 434.949C445.56 436.146 467.488 416.178 468.696 390.324L473.815 280.72L425.907 278.48C416.082 278.02 408.7 287.626 411.975 296.911C412.123 297.337 412.298 297.754 412.499 298.158C413.894 300.949 414.63 304.023 414.653 307.144C414.675 310.264 413.982 313.348 412.628 316.159C411.273 318.97 409.292 321.433 406.838 323.358C404.384 325.283 401.521 326.62 398.47 327.266C395.419 327.911 392.261 327.849 389.238 327.082C386.215 326.316 383.407 324.866 381.031 322.845C378.656 320.823 376.774 318.284 375.532 315.421C374.29 312.559 373.721 309.45 373.867 306.332L373.881 306.323Z" fill="#F7CC7F"/>
<path d="M239.943 230.585C240.122 234.108 239.38 237.618 237.79 240.767C237.589 241.17 237.413 241.586 237.264 242.012C234.006 251.244 241.381 260.798 251.153 260.304L299.214 257.887L296.798 209.793C296.305 200.015 305.852 192.635 315.078 195.895C315.504 196.043 315.919 196.219 316.322 196.42C319.585 198.062 323.228 198.797 326.872 198.55C330.516 198.302 334.026 197.08 337.037 195.012C340.048 192.944 342.448 190.104 343.989 186.791C345.529 183.477 346.152 179.811 345.793 176.174C344.771 165.608 335.648 157.518 325.044 157.755C321.42 157.83 317.883 158.875 314.799 160.78C314.413 161.018 314.014 161.232 313.603 161.422C304.601 165.57 294.275 159.081 293.775 149.176L291.383 101.496L181.856 106.997C156.022 108.297 136.134 130.306 137.433 156.156L142.935 265.74L190.836 263.33C200.658 262.837 207.076 252.559 202.919 243.642C202.73 243.23 202.516 242.83 202.278 242.445C200.62 239.802 199.589 236.814 199.266 233.71C198.942 230.607 199.333 227.47 200.41 224.542C201.486 221.613 203.219 218.97 205.476 216.816C207.732 214.662 210.452 213.055 213.426 212.117C216.401 211.179 219.55 210.935 222.633 211.405C225.716 211.875 228.65 213.046 231.21 214.828C233.77 216.61 235.888 218.955 237.401 221.683C238.914 224.412 239.782 227.451 239.939 230.568L239.943 230.585Z" fill="#50BFA5"/>
<path d="M338.312 204.041C334.79 204.044 331.328 203.13 328.266 201.389C327.873 201.169 327.467 200.973 327.05 200.802C317.999 197.083 308.096 203.972 308.096 213.764V261.918H356.217C366.003 261.918 372.887 271.83 369.17 280.888C369.001 281.305 368.805 281.711 368.584 282.104C366.785 285.281 365.872 288.883 365.938 292.535C366.004 296.186 367.047 299.753 368.959 302.864C370.871 305.974 373.582 308.514 376.809 310.22C380.036 311.926 383.661 312.734 387.307 312.561C397.904 312.082 406.443 303.359 406.733 292.748C406.84 289.123 405.977 285.534 404.233 282.355C404.014 281.956 403.821 281.543 403.654 281.12C399.966 271.914 406.96 261.918 416.87 261.918H464.58V152.194C464.58 126.311 443.611 105.331 417.746 105.331H308.086V153.324C308.086 163.164 318.02 170.096 327.129 166.389C327.548 166.22 327.955 166.026 328.349 165.807C331.07 164.282 334.105 163.403 337.219 163.235C340.333 163.067 343.444 163.615 346.313 164.838C349.182 166.061 351.733 167.926 353.769 170.289C355.806 172.653 357.274 175.452 358.061 178.471C358.848 181.491 358.932 184.651 358.308 187.708C357.684 190.766 356.368 193.64 354.461 196.109C352.554 198.578 350.107 200.577 347.308 201.952C344.508 203.327 341.431 204.042 338.312 204.041Z" fill="#184655"/>
<path d="M112.01 416.52C112.01 416.52 111.292 421.576 110.034 423.206C109.613 423.754 108.838 424.446 108.345 425.437C107.56 426.976 107.993 429.267 108.572 430.533C108.869 431.182 108.551 431.179 109.225 431.39C110.198 431.676 111.243 431.595 112.16 431.163C113.078 430.731 113.806 429.977 114.206 429.044C114.795 427.681 115.126 426.22 115.181 424.735C115.394 420.147 116.818 417.813 116.818 417.813L112.01 416.52Z" fill="#F7A491"/>
<path d="M133.882 418.833C133.882 418.833 134.33 424.532 133.966 426.385C133.772 427.378 132.686 429.42 133.184 430.353C133.681 431.287 134.251 431.519 134.251 431.519L147.168 431.727C147.871 431.739 147.407 431.287 146.838 430.868C145.91 430.183 145.163 429.731 142.197 428.292C142.004 428.199 141.298 427.749 141.044 427.593C140.356 427.136 139.735 426.586 139.198 425.959C138.272 424.922 138.191 419.903 138.191 419.903L133.882 418.833Z" fill="#F7A491"/>
<path d="M143.972 343.058C143.972 343.058 145.599 352.312 144.532 358.378C143.465 364.443 138.341 420.692 138.341 420.692L132.645 421.013C132.645 421.013 131.449 397.519 131.667 394.252C131.885 390.985 133.581 385.517 133.581 385.517L132.999 366.55L140.176 341.629L143.972 343.058Z" fill="#355389"/>
<path d="M127.24 341.11C127.24 341.11 122.754 347.879 121.688 353.481C120.621 359.082 122.472 376.295 120.417 383.641C119.305 387.612 115.093 393.749 114.454 398.884C113.815 404.018 111.299 417.456 111.299 417.456L116.992 418.588L130.218 385L140.592 354.641L143.25 339.006L127.24 341.11Z" fill="#466EB6"/>
<path d="M130.869 302.603C130.869 302.603 124.931 302.225 122.585 304.791C120.238 307.357 127.792 327.667 128.221 330.935C128.649 334.202 126.044 342.889 126.044 342.889C126.044 342.889 139.987 345.704 143.984 343.058C143.984 343.058 144.412 319.562 143.984 317.228C143.556 314.895 139.999 305.404 139.145 304.47C138.291 303.536 130.869 302.603 130.869 302.603Z" fill="#F7CC7F"/>
<path d="M132.844 294.661C132.844 294.661 132.813 294.836 132.758 295.14C132.492 296.576 131.473 301.32 130.785 302.625C129.954 304.204 133.633 309.234 137.176 308.609C138.231 308.424 136.286 303.987 136.38 303.515C136.559 302.615 136.801 301.387 137.049 300.128C137.188 299.41 137.332 298.692 137.466 298.019L138.152 294.522L132.844 294.661Z" fill="#F7A491"/>
<path d="M132.761 295.12C132.816 294.824 132.847 294.642 132.847 294.642L138.155 294.508L137.467 298.012C137.333 298.685 137.191 299.403 137.053 300.109C136.102 299.939 135.221 299.495 134.517 298.833C133.64 298.059 132.98 297.069 132.604 295.961C132.663 295.633 132.718 295.343 132.761 295.12Z" fill="#F47458"/>
<path d="M136.418 282.546C136.418 282.546 133.915 282.257 132.351 284.291C130.787 286.326 129.093 292.617 132.987 296.037C136.882 299.458 140.733 295.585 141.305 291.489C141.876 287.394 142.089 282.398 136.418 282.546Z" fill="#F7A491"/>
<path d="M142.453 291.42C141.987 292.327 141.207 292.83 140.71 292.542C140.212 292.255 140.186 291.286 140.65 290.388C141.114 289.49 141.896 288.981 142.394 289.268C142.891 289.555 142.917 290.513 142.453 291.42Z" fill="#F7A491"/>
<path d="M136.698 281.874C136.698 281.874 133.349 287.858 130.957 288.133C128.565 288.409 128.254 291.587 128.254 291.587C128.254 291.587 129.108 284.263 131.476 282.85C133.844 281.438 136.698 281.874 136.698 281.874Z" fill="#13375B"/>
<path d="M114.593 428.034C111.483 428.601 109.426 426.782 108.352 425.42C107.565 426.962 107.18 429.264 107.759 430.533C108.271 431.651 109.763 431.617 110.938 431.663C112.182 431.708 113.141 431.016 113.758 429.93C114.099 429.327 114.379 428.692 114.593 428.034Z" fill="#F47458"/>
<path d="M141.039 427.593C137.623 428.472 135.099 427.874 133.688 427.304C133.324 428.338 132.841 429.638 133.097 430.385C133.411 431.301 133.855 431.51 134.25 431.519C137.36 431.603 145.675 431.713 148.052 431.744C148.127 431.745 148.2 431.725 148.264 431.686C148.327 431.646 148.377 431.589 148.409 431.522C148.441 431.454 148.453 431.379 148.443 431.305C148.433 431.231 148.402 431.162 148.354 431.105C147.765 430.399 141.292 427.749 141.039 427.593Z" fill="#F47458"/>
<path d="M131.591 289.634C131.785 290.697 131.393 291.671 130.716 291.81C130.039 291.949 129.333 291.202 129.14 290.134C128.946 289.067 129.336 288.097 130.013 287.958C130.69 287.82 131.395 288.574 131.591 289.634Z" fill="#F7A491"/>
<path d="M135.494 293.316L138.513 293.452C138.513 293.452 138.391 294.596 137.064 294.575C135.442 294.548 135.494 293.316 135.494 293.316Z" fill="white"/>
<path d="M392.873 52.4832C393.249 52.4975 394.28 52.8422 395.784 55.6907C397.698 59.3291 400.521 70.3161 400.521 70.3161L392.129 73.4422L391.05 71.1491L389.275 53.4933C389.275 53.4933 392.78 52.4784 392.873 52.4832Z" fill="#DD513A"/>
<path d="M381.777 50.8986C384.169 50.8986 390.113 51.6024 392.869 52.4832C392.869 52.4832 394.893 69.8924 391.046 83.1223C390.185 86.0833 391.764 95.397 391.764 95.397L366.9 95.0691C366.9 95.0691 369.845 72.5518 368.737 68.9134C367.63 65.275 367.601 52.6005 367.601 52.6005C367.601 52.6005 367.771 52.5742 373.187 51.6431C376.027 51.1754 378.899 50.9265 381.777 50.8986Z" fill="#F47458"/>
<path d="M378.884 127.712C378.884 127.712 379.434 134.064 380.446 135.824C381.458 137.583 380.394 140.573 380.339 140.985C380.284 141.396 378.21 141.98 374.911 141.628C371.612 141.277 371.663 140.515 371.931 139.283C372.198 138.05 373.952 136.468 374.06 135.295C374.167 134.122 373.048 129.902 373.048 129.902L378.884 127.712Z" fill="#F7A491"/>
<path d="M388.952 90.1549C388.952 90.1549 406.115 89.1975 409.948 91.5241C413.78 93.8508 407.225 105.245 407.225 105.245C407.225 105.245 395.284 104.694 371.89 106.047C366.352 106.365 365.873 91.5935 366.909 90.3704C367.945 89.1472 388.952 90.1549 388.952 90.1549Z" fill="#E0973F"/>
<path d="M374.499 142.122C371.1 141.76 371.521 140.089 371.794 138.821C371.966 138.026 372.939 137.09 373.521 136.207C373.824 136.446 374.32 136.875 375.796 137.313C377.326 137.765 379.429 136.867 380.766 136.307C381.115 137.742 381.268 139.217 381.221 140.693C381.166 141.116 377.896 142.485 374.499 142.122Z" fill="#DD513A"/>
<path d="M376.375 102.449C377.059 107.641 380.455 133.49 380.455 133.49L372.576 134.467C372.576 134.467 362.89 100.716 363.386 95.5669C363.881 90.4181 367.51 89.9729 367.51 89.9729C367.51 89.9729 374.559 88.6971 376.375 102.449Z" fill="#F7CC7F"/>
<path d="M367.327 54.5345C369.652 53.6632 370.791 74.6223 371.104 83.2586C375.221 83.656 382.395 83.2586 384.182 83.127C385.022 83.0647 386.959 82.3538 387.796 82.2461C388.474 82.1285 389.163 82.0956 389.849 82.148C390.004 82.1743 394.296 83.9313 394.662 84.3166C395.118 84.7954 396.348 85.9922 396.14 86.5188C395.932 87.0454 393.774 85.0683 393.774 85.0683L392.717 84.4746C394.032 85.76 396.544 87.45 396.176 88.0651C395.807 88.6803 393.564 86.9497 391.954 85.7816C393.334 87.0287 395.063 89.2644 394.657 89.6114C394.3 89.925 392.348 87.3375 390.263 86.593C389.488 86.3178 388.717 87.0718 388.11 87.1747C387.662 87.2417 386.971 87.3853 386.533 87.2609L384.275 86.6217C383.505 86.6912 383.486 87.146 382.708 87.3111C381.807 87.5026 380.316 87.7061 379.175 87.9861C372.559 89.6043 370.353 90.3559 368.327 90.3559C362.189 90.3415 361.835 56.5979 367.327 54.5345Z" fill="#F7A491"/>
<path d="M362.916 74.2034C362.481 65.366 362.545 54.4747 367.495 52.6173C369.449 51.8824 372.891 56.2915 372.279 74.3829C369.631 74.6103 365.748 74.7875 362.916 74.2034Z" fill="#DD513A"/>
<path d="M401.92 133.145C401.92 133.145 401.233 135.35 402.463 136.81C403.692 138.27 408.809 139.699 409.481 140.489C410.153 141.279 410.101 141.952 410.101 141.952L395.748 141.557L395.906 137.217L396.566 134.105L401.92 133.145Z" fill="#F7A491"/>
<path d="M403.357 137.535C403.357 137.535 399.668 139.029 397.886 138.146C396.104 137.262 396.159 137.016 395.642 137.346C395.126 137.676 394.941 141.743 394.941 141.743L411.083 142.222C412.207 142.196 412.774 141.368 411.863 140.659C411.304 140.265 410.716 139.915 410.102 139.613C408.839 138.883 403.357 137.535 403.357 137.535Z" fill="#DD513A"/>
<path d="M401.377 94.2264C402.487 91.8902 405.008 88.8478 409.448 90.679C413.684 92.4264 414.82 96.7206 413.483 101.118C412.146 105.515 403.353 131.367 403.047 134.921L396.023 134.967C396.023 134.967 397.301 114.498 397.612 109.551C397.913 104.79 399.456 98.2694 401.377 94.2264Z" fill="#F7CC7F"/>
<path d="M412.778 70.4166H389.302C388.998 70.4172 388.7 70.5087 388.448 70.6792C388.196 70.8498 388 71.0917 387.886 71.3741L380.657 89.0753H367.716C367.542 89.076 367.375 89.1456 367.252 89.269C367.13 89.3923 367.061 89.5594 367.061 89.7336C367.061 89.9075 367.13 90.0744 367.253 90.1974C367.375 90.3204 367.542 90.3895 367.716 90.3895H404.554C405.05 90.3894 405.536 90.2454 405.953 89.9748C406.369 89.7042 406.699 89.3186 406.901 88.8647L414.177 72.5877C414.283 72.3536 414.329 72.0966 414.31 71.8403C414.291 71.5839 414.208 71.3364 414.069 71.1204C413.93 70.9044 413.739 70.7268 413.513 70.6039C413.288 70.4809 413.035 70.4165 412.778 70.4166Z" fill="black"/>
<path d="M400.138 80.7238C399.98 81.5185 399.289 82.0499 398.595 81.9206C397.902 81.7914 397.469 81.023 397.638 80.2283C397.808 79.4336 398.488 78.9022 399.181 79.0315C399.875 79.1608 400.296 79.9291 400.138 80.7238Z" fill="white"/>
<path d="M387.359 29.6356C386.65 29.4011 385.957 29.1229 385.282 28.8026C384.522 28.4364 383.539 28.0055 382.914 27.9098C381.606 27.7063 379.355 27.8427 378.111 29.1904C376.563 30.866 373.805 29.4944 374.367 38.2983C374.994 48.2632 380.529 47.1693 380.666 46.9993C380.802 46.8294 385.603 40.625 385.603 40.625C385.603 40.625 387.277 44.3017 387.277 44.1676C387.277 44.0336 395.858 32.4984 387.359 29.6356Z" fill="#0E2E35"/>
<path d="M383.157 47.7366L383.635 51.296C383.635 51.296 384.707 56.4256 383.329 57.4142C381.951 58.4028 377.471 51.1499 377.471 51.1499L377.949 42.1282L383.157 47.7366Z" fill="#F7A491"/>
<path d="M377.791 45.0532C378.93 48.1291 381.638 50.0201 383.563 50.755L383.157 47.7365L377.949 42.1282L377.791 45.0532Z" fill="#F47458"/>
<path d="M382.874 32.3141C383.558 32.2089 384.256 32.2546 384.921 32.4482C385.585 32.6417 386.199 32.9784 386.72 33.4346C387.24 33.8907 387.655 34.4553 387.934 35.0888C388.214 35.7222 388.351 36.4092 388.337 37.1015C388.301 38.6308 388.167 40.1562 387.938 41.6686C387.304 45.7785 384.5 49.3978 382.649 49.0746C380.797 48.7515 376.133 45.2064 376.953 39.3587C377.47 35.7562 379.809 32.8048 382.874 32.3141Z" fill="#F7A491"/>
<path d="M378.241 40.0649C378.083 40.9697 377.361 41.5968 376.624 41.47C375.887 41.3431 375.428 40.5125 375.574 39.6005C375.72 38.6885 376.454 38.0685 377.191 38.1954C377.928 38.3223 378.397 39.1625 378.241 40.0649Z" fill="#F7A491"/>
<path d="M377.19 38.1954C377.19 38.1954 379.429 38.7531 380.262 37.3121C381.094 35.8712 384.065 32.7642 387.845 34.0472C391.624 35.3302 384.52 30.9115 384.218 30.9115L380.288 30.8851C380.288 30.8851 377.489 33.1878 377.389 33.4416C377.289 33.6953 376.482 36.4504 376.482 36.4504L377.19 38.1954Z" fill="#0E2E35"/>
<path d="M381.298 44.213L385.364 44.991C385.364 44.991 384.977 46.5277 383.173 46.2381C380.975 45.8838 381.298 44.213 381.298 44.213Z" fill="white"/>
<path d="M312.332 328.215C312.43 328.593 312.579 328.956 312.777 329.292C314.054 331.621 317.021 334.944 317.021 334.944L319.315 329.771C319.315 329.771 318.941 328.146 318.293 325.824C316.076 326.403 313.966 326.736 312.332 328.215Z" fill="#F8A492"/>
<path d="M325.485 323.73C325.485 323.73 312.69 329.235 312.276 329.139C312.008 329.07 307.013 320.726 306.973 312.877C306.949 309.253 310.709 304.891 314.907 305.755C317.019 306.189 316.988 306.778 320.115 311.323C323.241 315.869 325.485 323.73 325.485 323.73Z" fill="#13375B"/>
<path d="M336.411 422.595C336.411 422.595 336.107 427.622 336.105 427.622C335.995 428.261 335.555 429.839 335.555 430.42C335.555 432.601 345.903 428.568 343.583 427.601C343.372 427.514 342.274 426.854 342.205 426.112C342.097 424.968 341.829 422.653 341.829 422.653L336.411 422.595Z" fill="#F7A491"/>
<path d="M343.558 427.594C343.558 427.594 341.127 428.259 339.883 428.427C338.639 428.594 336.999 427.189 336.118 427.57C335.149 427.986 335.188 431.744 335.188 431.744C335.188 431.744 348.215 432.814 351.88 431.708C353.329 431.268 348.526 429.147 343.558 427.594Z" fill="#DD513A"/>
<path d="M315.243 422.595C315.243 422.595 314.939 427.622 314.937 427.622C314.824 428.261 314.387 429.839 314.387 430.42C314.387 432.601 324.735 428.568 322.415 427.601C322.204 427.514 320.778 426.358 320.709 425.616C320.604 424.474 320.661 422.653 320.661 422.653L315.243 422.595Z" fill="#F7A491"/>
<path d="M322.387 427.594C322.387 427.594 319.959 428.259 318.716 428.427C317.472 428.594 315.831 427.189 314.95 427.57C313.982 427.986 313.943 431.744 313.943 431.744C313.943 431.744 327.031 432.991 330.712 431.708C332.14 431.208 327.356 429.147 322.387 427.594Z" fill="#DD513A"/>
<path d="M318.406 331.004L327.52 318.227C327.558 318.116 327.64 317.887 327.759 317.537C328.219 316.269 329.173 313.631 330.005 311.007V310.979C330.266 310.062 330.821 308.463 331.357 306.909C331.953 305.188 332.692 303.053 332.718 302.689L332.594 302.366C332.261 301.5 331.809 299.431 331.637 298.536C331.536 297.964 331.434 296.571 332.115 296.571C333.185 296.571 332.675 297.962 333.168 298.828C333.481 297.882 333.728 296.915 333.909 295.934L334.089 293.218C334.122 293.014 333.905 291.516 334.656 291.516H334.692C335.364 291.566 335.349 293.158 335.629 295.853C335.718 295.542 335.806 295.168 335.868 294.826C335.914 294.347 335.994 293.872 336.108 293.404C335.974 292.653 336.05 291.468 336.852 291.58C337.251 291.635 337.218 293.289 337.218 293.289C337.218 293.514 337.189 295.262 337.203 295.609C337.285 295.022 337.605 292.521 338.232 292.521C338.751 292.521 338.794 293.194 338.782 293.718C338.782 294.031 338.449 296.741 338.43 297.069C338.67 296.657 338.966 294.271 339.208 294.271C340.222 294.271 339.856 297.665 339.483 298.548C339.436 298.706 339.397 298.865 339.368 299.027C339.215 299.91 338.922 300.762 338.5 301.552C337.863 302.641 336.986 304.374 336.852 304.64C336.753 305.181 336.447 307.127 336.065 309.576C335.9 310.622 335.72 311.771 335.534 312.961C335.5 313.219 335.311 314.038 334.577 317.109C333.591 321.312 333.488 321.494 333.445 321.571C333.017 322.329 323.19 335.681 322.772 336.251L322.533 336.586L318.406 331.004Z" fill="#F7A491"/>
<path d="M335.356 301.207C335.356 301.207 334.617 299.314 333.299 299.309C333.529 299.237 333.774 299.221 334.012 299.263C334.25 299.305 334.475 299.403 334.667 299.549C335.299 300.044 335.356 301.207 335.356 301.207Z" fill="#F47458"/>
<path d="M316.201 297.55L315.029 304.97C315.029 304.97 319.5 308.561 322.105 307.804C324.291 307.17 322.792 304.31 322.792 304.31C322.792 304.31 321.627 300.346 321.985 298.268C322.344 296.19 316.201 297.55 316.201 297.55Z" fill="#F7A491"/>
<path d="M317.046 299.793C318.654 300.514 320.358 300.997 322.105 301.229C321.94 300.188 321.844 299.089 321.985 298.278C322.151 297.32 320.931 297.093 319.569 297.126C317.79 297.277 316.201 297.557 316.201 297.557L315.977 298.993C316.281 299.323 316.643 299.594 317.046 299.793Z" fill="#FE875E"/>
<path d="M310.561 288.985C310.377 288.985 312.329 297.279 315.345 298.706C318.361 300.133 322.87 299.391 323.717 297.155C324.653 294.685 321.241 286.223 316.996 285.148C312.75 284.074 310.561 288.985 310.561 288.985Z" fill="#F7A491"/>
<path d="M314.057 281.364C312.344 282.36 310.983 283.866 310.165 285.672C309.034 286.211 307.663 287.372 307.005 290.505C306.197 294.359 309.072 297.33 312.12 298.223C315.167 299.115 315.638 301.133 315.638 301.133L315.995 298.969C315.995 298.969 315.318 297.078 314.299 296.13C313.28 295.183 314.777 293.806 314.914 292.681C315.014 291.815 314.378 290.132 314.516 288.71C314.516 288.71 316.21 286.142 317.88 285.507C320.712 284.413 317.153 279.581 314.057 281.364Z" fill="#13375B"/>
<path d="M315.341 294.113C315.735 295.07 315.58 296.028 314.98 296.238C314.379 296.449 313.585 295.85 313.19 294.893C312.796 293.936 312.951 292.978 313.549 292.767C314.147 292.557 314.946 293.155 315.341 294.113Z" fill="#F7A491"/>
<path d="M326.592 331.207L344.171 328.335C344.171 328.335 342.169 323.308 341.456 323.308C340.743 323.308 328.163 328.814 328.163 328.814L327.163 330.822L326.592 331.207Z" fill="#F8A492"/>
<path d="M317.585 343.269C317.585 343.269 315.831 351.752 316.547 358.187C317.262 364.621 317.317 387.468 317.317 387.468L314.59 424.029L321.048 424.171C321.048 424.171 328.722 387.626 328.579 388.565C328.435 389.503 331.152 362.835 331.152 362.835L322.005 342.465L317.585 343.269Z" fill="#184655"/>
<path d="M319.3 342.867C319.3 342.867 318.157 350.505 319.587 353.856C321.017 357.208 331.846 390.08 331.987 392.758C332.129 395.437 335.733 425.073 335.733 425.073L343.257 424.862L344.886 391.925L341.477 350.529L338.169 340.062L319.3 342.867Z" fill="#13375B"/>
<path d="M315.037 304.973C315.037 304.973 316.893 306.191 318.625 306.05C320.357 305.909 322.802 304.312 322.802 304.312L322.462 303.158C322.462 303.158 317.987 302.505 317.872 302.577C317.757 302.648 315.037 304.973 315.037 304.973Z" fill="#F7A491"/>
<path d="M334.805 323.052C334.805 323.052 341.455 329.333 344.457 328.261C347.459 327.188 348.698 323.524 341.376 318.162C334.821 313.363 334.805 323.052 334.805 323.052Z" fill="#F8A492"/>
<path d="M339.31 330.805C338.325 325.429 331.177 308.695 330.593 305.612C330.314 304.113 326.453 304.08 322.774 304.276C318.889 304.482 315.031 304.973 315.031 304.973C315.031 304.973 311.591 305.54 310.079 306.957C308.567 308.374 308.165 312.3 310.337 319.749C312.055 325.63 314.184 328.859 315.236 333.153C315.452 334.59 315.633 336.007 315.875 337.663C316.262 344.069 315.875 352.528 315.875 352.528C315.875 352.528 334.6 356.415 341.602 350.517C341.59 350.505 340.324 336.311 339.31 330.805Z" fill="#355389"/>
<path d="M344.084 319.244C344.084 319.244 336.738 325.312 336.31 325.312C336.033 325.312 325.826 317.798 323.469 311.625C322.166 308.211 324.905 304.393 328.014 304.405C330.167 304.405 331.141 304.973 335.43 308.59C339.719 312.206 344.084 319.244 344.084 319.244Z" fill="#466EB6"/>
<path d="M214.845 48.3518C216.041 45.453 217.273 42.5495 220.397 41.0798C222.926 39.8829 225.566 40.3401 227.813 42.0372C234.176 46.8246 228.631 52.0907 235.876 61.1866C238.127 64.0088 240.852 66.2876 242.201 69.5932C244.088 74.2226 241.84 76.4439 238.235 78.6629C220.99 89.2668 211.951 67.5012 212.276 62.5056C212.518 58.8001 214.07 50.226 214.845 48.3518Z" fill="#13375B"/>
<path d="M196.947 104.807C197.665 104.692 199.44 103.425 200.057 103.311C200.535 103.222 201.583 103.071 202.03 102.997C202.573 100.958 205.343 89.8485 205.654 86.5907C205.991 83.0624 208.484 67.798 208.484 67.798L214.943 68.9733C214.943 68.9733 212.266 80.7166 211.524 86.4112C210.888 91.3015 205.525 102.298 204.843 103.459C204.843 103.488 204.843 103.514 204.843 103.543C204.74 105.269 203.908 104.694 203.908 104.694L202.559 105.039C202.559 105.039 197.775 105.498 197.468 105.613C197.162 105.728 196.22 104.921 196.947 104.807Z" fill="#F7A491"/>
<path d="M214.12 58.8839C209.556 60.4326 206.961 72.8486 206.961 72.8486C206.961 72.8486 214.123 74.8473 215.958 73.8061C215.958 73.8061 218.041 64.5689 218.787 64.892L214.12 58.8839Z" fill="#6A97CE"/>
<path d="M178.815 126.259C177.879 128.748 177.148 131.31 176.629 133.918C176.598 134.127 176.89 135.115 176.868 135.355C174.064 139.185 170.036 140.018 166.582 140.262C168.343 138.543 170.928 136.911 171.053 136.367C171.9 133.059 172.496 129.691 172.835 126.292C174.976 127.281 176.435 126.491 178.815 126.259Z" fill="#F7A491"/>
<path d="M218.538 85.0253L224.704 102.411C224.704 102.411 214.794 104.278 211.086 104.957C207.378 105.637 186.687 106.542 186.151 106.911C185.764 107.184 181.487 121.033 179.575 128.657C177.408 129.136 173.698 128.561 171.725 127.882C172.791 116.959 176.643 99.6578 177.875 97.774C179.884 94.7077 218.538 85.0253 218.538 85.0253Z" fill="#256653"/>
<path d="M194.441 133.88C193.986 136.503 193.746 139.158 193.724 141.82C193.724 142.028 194.202 142.957 194.219 143.172C192.181 147.457 188.38 149.034 185.033 149.923C186.44 147.902 188.674 145.817 188.693 145.26C188.908 141.85 188.863 138.429 188.559 135.027C190.863 135.601 192.147 134.555 194.441 133.88Z" fill="#F7A491"/>
<path d="M225.738 85.9324L228.13 90.0208C228.984 91.4851 229.511 93.1174 229.674 94.8052C229.838 96.4929 229.633 98.1961 229.075 99.7971C228.517 101.398 227.619 102.859 226.442 104.079C225.266 105.3 223.839 106.25 222.259 106.865L222.152 106.908C218.64 108.27 198.47 113.043 198.025 113.503C197.693 113.843 196.085 128.243 195.633 136.099C193.593 136.973 189.84 137.107 187.775 136.817C186.778 125.89 187.321 108.172 188.18 106.09C189.581 102.688 225.738 85.9324 225.738 85.9324Z" fill="#327F6B"/>
<path d="M193.42 141.944C193.958 141.351 195.929 144.618 196.422 145.315C196.977 146.097 196.819 146.689 196.752 146.811C196.577 147.134 186.181 153.255 183.646 153.69C183.378 153.705 183.113 153.635 182.888 153.489C181.895 152.611 186.457 146.129 188.504 145.279C189.829 144.723 191.004 144.609 193.42 141.944Z" fill="#13375B"/>
<path d="M176.297 134.045C176.936 133.567 178.261 137.143 178.615 137.918C179.012 138.792 178.746 139.354 178.658 139.453C178.419 139.737 167.068 143.799 164.497 143.761C164.227 143.727 163.975 143.607 163.779 143.419C162.971 142.373 168.664 136.86 170.836 136.408C172.247 136.101 173.426 136.212 176.297 134.045Z" fill="#13375B"/>
<path d="M218.451 58.8408C218.293 58.83 218.138 58.7977 217.989 58.7451C217.142 58.5943 215.288 58.3717 213.848 58.9844C212.092 59.7265 209.375 66.6442 209.543 73.7438C209.607 74.8305 209.672 75.8024 209.729 76.4798C210.172 81.844 211.71 91.9094 211.793 91.9645C213.884 93.3121 226.507 88.0867 227.376 86.9378C228.244 85.7888 228.753 71.8456 229.177 71.1515L230.004 59.0251C228.536 58.5871 220.694 58.8241 218.451 58.8408Z" fill="#9BC1F9"/>
<path d="M223.567 54.3742C223.567 54.3742 222.754 58.5823 222.916 60.2411C223.079 61.9 222.297 67.2474 218.785 67.2618C215.273 67.2762 218.12 60.4638 218.45 58.8384C218.78 57.2131 218.859 52.1816 218.859 52.1816L223.567 54.3742Z" fill="#F7A491"/>
<path d="M218.787 54.707C218.84 53.3282 218.859 52.1816 218.859 52.1816L223.566 54.3743C223.566 54.3743 223.399 55.2336 223.232 56.3299C221.172 56.744 219.679 55.9828 218.787 54.707Z" fill="#F47458"/>
<path d="M225.286 42.7649C226.465 43.5004 227.343 44.6327 227.762 45.9581C228.425 48.1411 227.671 53.771 222.978 55.1306C218.285 56.4902 216.263 52.0189 217.237 48.5456C218.21 45.0724 220.311 40.6393 225.286 42.7649Z" fill="#F7A491"/>
<path d="M216.651 47.1884C216.742 48.1243 217.259 48.8401 217.804 48.7874C218.35 48.7347 218.716 47.9305 218.625 46.9945C218.534 46.0586 218.017 45.3429 217.472 45.3956C216.926 45.4482 216.558 46.2525 216.651 47.1884Z" fill="#F7A491"/>
<path d="M224.736 42.4801C224.736 42.4801 225.586 48.7611 227.607 49.9005C229.628 51.0399 228.786 53.8213 228.786 53.8213C228.786 53.8213 230.626 47.3584 229.025 45.2711C227.425 43.1838 224.736 42.4801 224.736 42.4801Z" fill="#13375B"/>
<path d="M226.414 50.7981C225.864 51.6167 225.866 52.5814 226.414 52.9524C226.961 53.3234 227.861 52.9644 228.411 52.1457C228.961 51.3271 228.959 50.3624 228.411 49.9914C227.863 49.6204 226.964 49.9794 226.414 50.7981Z" fill="#F7A491"/>
<path d="M219.593 51.1475L222.897 51.9781C222.897 51.9781 222.5 53.2324 221.036 52.9093C219.247 52.5167 219.593 51.1475 219.593 51.1475Z" fill="white"/>
<path d="M235.98 104.282L250.216 103.564C250.216 103.564 244.374 107.765 244.255 107.765C244.135 107.765 239.602 105.975 239.404 105.975C239.205 105.975 235.98 104.282 235.98 104.282Z" fill="#50BFA5"/>
<path d="M520.996 422.801C520.996 422.801 521.273 427.742 521.276 427.751C521.379 428.379 521.781 429.93 521.781 430.499C521.781 432.654 512.282 428.68 514.411 427.732C514.604 427.646 515.607 426.995 515.676 426.267C515.774 425.142 516.023 422.871 516.023 422.871L520.996 422.801Z" fill="#F7A491"/>
<path d="M514.309 427.749C514.309 427.749 516.541 428.403 517.682 428.568C518.823 428.733 520.33 427.352 521.138 427.725C522.028 428.135 521.992 431.826 521.992 431.826C521.992 431.826 510.032 432.876 506.671 431.79C505.339 431.364 509.752 429.279 514.309 427.749Z" fill="#F7CC7F"/>
<path d="M536.802 422.545C536.802 422.545 537.082 427.486 537.082 427.495C537.185 428.122 537.589 429.674 537.589 430.243C537.589 432.386 528.09 428.424 530.219 427.476C530.411 427.39 531.721 426.255 531.784 425.525C531.882 424.403 531.829 422.615 531.829 422.615L536.802 422.545Z" fill="#F7A491"/>
<path d="M530.244 427.455C531.353 427.785 532.479 428.058 533.617 428.273C534.758 428.438 536.262 427.06 537.071 427.431C537.961 427.842 537.996 431.534 537.996 431.534C537.996 431.534 526.122 432.012 522.603 431.498C521.221 431.292 525.684 428.982 530.244 427.455Z" fill="#F7CC7F"/>
<path d="M533.983 344.066C533.983 344.066 535.593 352.401 534.94 358.72C534.287 365.04 534.222 387.492 534.222 387.492L537.248 423.397L530.79 423.548C530.79 423.548 523.745 387.643 523.877 388.567C524.008 389.491 521.516 363.287 521.516 363.287L529.912 343.274L533.983 344.066Z" fill="#355389"/>
<path d="M531.733 338.683C531.733 338.683 539.027 346.371 536.314 354.766C535.223 358.139 525.059 390.355 524.93 392.988C524.801 395.621 521.493 424.726 521.493 424.726L514.585 424.518L513.102 392.157L515.075 348.557L519.266 341.203L531.733 338.683Z" fill="#466EB6"/>
<path d="M487.459 313.667C489.851 311 495.044 307.204 495.044 307.204C495.044 307.204 498.139 304.559 499.402 304.123C501.261 303.482 504.442 301.772 509.045 308.752C512.339 313.748 533.123 339.612 536.535 340.481L514.255 351.152C513.645 346.058 502.634 336.433 501.048 334.635C497.508 330.623 485.198 316.204 487.459 313.667Z" fill="#F47458"/>
<path d="M488.496 302.83L495.433 306.9C495.433 306.9 495.627 312.829 493.359 314.368C491.446 315.661 490.01 312.558 490.01 312.558C490.01 312.558 487.429 308.968 485.465 307.867C483.501 306.766 488.496 302.83 488.496 302.83Z" fill="#F7A491"/>
<path d="M489.659 305.432C489.314 307.022 488.705 308.542 487.858 309.93C487.093 309.102 486.234 308.29 485.466 307.855C484.562 307.34 485.136 306.229 486.019 305.181C487.265 303.884 488.492 302.823 488.492 302.823L489.827 303.604C489.918 304.118 489.748 305.028 489.659 305.432Z" fill="#F47458"/>
<path d="M484.875 292.641C484.992 292.497 490.697 299.604 489.994 302.933C489.291 306.263 485.841 309.308 483.445 308.472C480.792 307.546 475.864 299.18 477.632 295.118C479.4 291.056 484.875 292.641 484.875 292.641Z" fill="#F7A491"/>
<path d="M478.636 290.4C481.121 289.014 485.178 288.617 488.204 290.206C491.931 292.157 492.778 297.071 491.613 300.068C490.448 303.065 491.781 304.757 491.781 304.757L489.805 303.604C489.805 303.604 488.649 301.799 488.499 300.363C488.348 298.926 486.252 299.166 485.229 298.527C484.442 298.024 483.437 296.394 482.162 295.546C482.162 295.546 478.952 295.154 477.378 296.04C474.691 297.55 475.067 292.382 478.636 290.4Z" fill="#13375B"/>
<path d="M486.84 299.726C486.821 300.791 487.319 301.662 487.965 301.674C488.611 301.686 489.137 300.829 489.161 299.759C489.185 298.689 488.682 297.82 488.036 297.811C487.391 297.801 486.857 298.658 486.84 299.726Z" fill="#F7A491"/>
<path d="M480.996 305.382L484.017 303.122C484.017 303.122 484.814 304.346 483.515 305.377C481.931 306.629 480.996 305.382 480.996 305.382Z" fill="white"/>
<path d="M473.412 350.34C474.168 349.234 474.498 347.638 475.543 346.419C476.009 345.921 476.528 345.476 477.091 345.091C482.114 342.144 495.232 334.559 495.749 333.96C496.354 333.261 505.3 318.387 505.3 318.387L497.266 316.565L489.412 330.449C488.757 330.968 476.292 340.188 476.292 340.188C476.292 340.188 473.814 342.125 472.464 343.032C471.851 343.382 471.206 343.67 470.536 343.894C469.804 344.148 468.41 344.851 468.13 345.091C467.802 345.38 467.147 345.996 466.757 346.371C466.367 346.747 465.896 347.173 465.712 347.398C465.497 347.584 465.255 347.736 464.994 347.848C464.911 347.89 464.843 347.956 464.798 348.038C464.753 348.119 464.734 348.212 464.742 348.305C464.751 348.397 464.787 348.485 464.846 348.557C464.905 348.629 464.984 348.681 465.073 348.708C465.453 348.815 465.97 348.576 466.288 348.427C467.19 348.001 468.293 346.857 468.352 346.991C468.412 347.125 467.29 349.586 467.18 349.876C467.07 350.165 465.786 353.026 465.719 353.662C465.652 354.299 466.037 354.448 466.324 354.215C466.563 354.014 468.637 350.194 468.637 350.194C468.637 350.194 468.9 349.715 469.003 349.986C469.106 350.256 467.235 353.737 467.054 354.306C466.872 354.876 467.018 355.343 467.532 355.144C468.171 354.905 469.941 351.075 469.941 351.075C469.941 351.075 470.18 350.596 470.326 350.764C470.472 350.931 468.843 353.856 468.826 354.194C468.809 354.531 469.111 354.864 469.544 354.582C470.065 354.249 471.615 350.819 471.615 350.819C471.615 350.819 471.807 350.591 471.854 350.752C471.902 350.912 470.694 353.507 470.785 353.885C470.791 353.926 470.806 353.966 470.827 354.001C470.849 354.036 470.878 354.067 470.912 354.091C470.946 354.115 470.985 354.131 471.025 354.139C471.066 354.148 471.108 354.147 471.149 354.139C471.816 354.134 472.653 351.446 473.412 350.34Z" fill="#F8A492"/>
<path d="M503.093 326.257C503.093 326.257 500.476 325.424 498.787 324.654C497.665 324.139 492.762 321.697 492.762 321.697C492.762 321.697 494.874 312.774 496.304 309.564C501.548 297.789 507.509 305.911 508.317 307.804C510.135 312.025 503.093 326.257 503.093 326.257Z" fill="#355389"/>
<path d="M320.299 295.41L322.789 293.545C322.789 293.545 323.447 294.553 322.375 295.405C321.079 296.444 320.299 295.41 320.299 295.41Z" fill="white"/>
<path d="M250.54 103.552C250.48 103.401 250.348 103.399 250.214 103.394C248.907 103.375 247.602 103.277 246.306 103.102C246.091 103.073 245.881 103.02 245.679 102.942C245.333 102.806 244.952 102.793 244.598 102.904C244.401 102.952 244.199 102.973 243.997 102.966C243.342 102.966 241.466 102.324 240.505 102.157C240.397 102.138 240.297 102.088 240.218 102.013C240.138 101.938 240.081 101.842 240.055 101.735C239.098 97.987 237.077 89.578 236.811 86.8109C236.477 83.2755 234.034 67.3288 234.034 67.3288L227.504 69.1528C227.504 69.1528 230.193 80.9225 230.937 86.6266C231.508 91.0334 235.912 100.385 237.29 103.074C237.964 105.077 239.476 105.132 239.828 105.175C240.029 105.199 240.213 105.297 240.345 105.45C240.581 105.731 240.86 105.973 241.17 106.169C241.394 106.314 241.585 106.505 241.732 106.729C242.009 107.133 242.258 107.557 242.502 107.983C242.665 108.263 242.837 108.354 243.079 108.287C243.202 108.255 243.31 108.177 243.379 108.07C243.449 107.963 243.477 107.834 243.457 107.708C243.44 107.252 243.305 106.808 243.064 106.42C242.957 106.285 242.903 106.116 242.913 105.944C242.923 105.772 242.995 105.61 243.117 105.489C243.254 105.288 243.414 105.105 243.595 104.943C243.683 104.857 243.788 104.792 243.903 104.75C244.018 104.709 244.141 104.693 244.263 104.704C244.735 104.825 245.214 104.914 245.698 104.969L246.093 105.051L246.308 105.096C246.342 105.096 247.026 105.18 247.265 105.18C247.456 105.18 247.765 105.194 248.028 105.206C248.284 105.192 248.539 105.154 248.789 105.094C249.014 105.091 249.231 105.006 249.399 104.854C249.468 104.79 249.537 104.718 249.502 104.615C249.486 104.57 249.457 104.531 249.419 104.502C249.382 104.474 249.336 104.457 249.289 104.455C248.967 104.417 248.648 104.364 248.332 104.294C248.571 104.294 249.327 104.275 249.568 104.27C249.725 104.27 249.879 104.237 250.022 104.174C250.164 104.111 250.293 104.019 250.399 103.904C250.497 103.799 250.597 103.703 250.54 103.552Z" fill="#F7A491"/>
<path d="M230.081 58.9964C233.303 58.41 235.961 72.8414 235.961 72.8414C235.961 72.8414 228.801 74.8401 226.967 73.7989C226.967 73.7989 224.883 64.5617 224.137 64.8848L230.081 58.9964Z" fill="#9BC1F9"/>
<path d="M152.149 318.358C152.362 317.745 149.391 317.252 149.233 316.635C149.075 316.017 152.986 315.967 153.125 315.423C153.383 314.423 148.838 315.213 148.927 314.744C149.015 314.275 153.663 313.231 153.161 312.427C152.658 311.622 148.455 314.014 148.329 313.47C148.202 312.927 152.438 311.598 152.362 310.402C152.321 309.762 145.41 313.588 144.609 313.24C143.808 312.893 145.47 309.889 144.831 309.444C144.193 308.999 142.363 315.548 141.923 315.766C141.482 315.984 132.146 321.317 128.824 322.164C128.419 321.051 127.549 319.55 127.192 318.497C125.326 319.823 123.944 320.491 122.021 321.7C123.413 325.194 125.398 329.022 126.369 329.462C129.326 330.798 140.76 321.307 143.042 319.684C145.324 318.061 146.63 318.586 148.18 318.071C149.73 317.556 151.936 318.976 152.149 318.358Z" fill="#F7A491"/>
<path d="M121.621 323.385C121.621 323.385 119.061 312.075 119.504 308.784C119.946 305.492 123.845 302.445 126.546 303.577C129.246 304.71 130.471 320.513 130.471 320.513L121.621 323.385Z" fill="#F7CC7F"/>
</svg>
