<svg width="69" height="70" viewBox="0 0 69 70" fill="none" xmlns="http://www.w3.org/2000/svg">
<g filter="url(#filter0_d)">
<path d="M61.6245 0.00878906H6.83152C5.51381 0.00878906 4.44922 1.09916 4.44922 2.44879V58.5688C4.44922 59.9184 5.51381 61.0088 6.83152 61.0088H61.6245C62.9422 61.0088 64.0068 59.9184 64.0068 58.5688V2.44879C64.0068 1.09916 62.9422 0.00878906 61.6245 0.00878906ZM54.7456 17.8132H49.9884C46.2586 17.8132 45.5365 19.6279 45.5365 22.2967V28.1755H54.4404L53.279 37.3789H45.5365V61.0088H36.253V37.3865H28.4881V28.1755H36.253V21.3893C36.253 13.5127 40.9506 9.21979 47.8146 9.21979C51.1051 9.21979 53.9267 9.47141 54.753 9.58579V17.8132H54.7456Z" fill="white"/>
</g>
<defs>
<filter id="filter0_d" x="0.449219" y="0.00878906" width="67.5576" height="69" filterUnits="userSpaceOnUse" color-interpolation-filters="sRGB">
<feFlood flood-opacity="0" result="BackgroundImageFix"/>
<feColorMatrix in="SourceAlpha" type="matrix" values="0 0 0 0 0 0 0 0 0 0 0 0 0 0 0 0 0 0 127 0" result="hardAlpha"/>
<feOffset dy="4"/>
<feGaussianBlur stdDeviation="2"/>
<feColorMatrix type="matrix" values="0 0 0 0 0 0 0 0 0 0 0 0 0 0 0 0 0 0 0.25 0"/>
<feBlend mode="normal" in2="BackgroundImageFix" result="effect1_dropShadow"/>
<feBlend mode="normal" in="SourceGraphic" in2="effect1_dropShadow" result="shape"/>
</filter>
</defs>
</svg>
