<svg width="69" height="70" viewBox="0 0 69 70" fill="none" xmlns="http://www.w3.org/2000/svg">
<g filter="url(#filter0_d)">
<path d="M34.6692 20.3374C29.2012 20.3374 24.7389 24.9078 24.7389 30.5082C24.7389 36.1086 29.2012 40.679 34.6692 40.679C40.1372 40.679 44.5995 36.1086 44.5995 30.5082C44.5995 24.9078 40.1372 20.3374 34.6692 20.3374ZM64.4527 30.5082C64.4527 26.2965 64.49 22.1228 64.259 17.9187C64.0281 13.0355 62.9404 8.70164 59.454 5.1308C55.9602 1.55232 51.7362 0.445969 46.9685 0.209439C42.8563 -0.0270916 38.7814 0.0110586 34.6767 0.0110586C30.5645 0.0110586 26.4896 -0.0270916 22.3848 0.209439C17.6171 0.445969 13.3857 1.55995 9.89933 5.1308C6.40547 8.70927 5.32528 13.0355 5.09434 17.9187C4.86341 22.1305 4.90065 26.3041 4.90065 30.5082C4.90065 34.7124 4.86341 38.8936 5.09434 43.0977C5.32528 47.9809 6.41292 52.3148 9.89933 55.8856C13.3932 59.4641 17.6171 60.5705 22.3848 60.807C26.497 61.0435 30.5719 61.0054 34.6767 61.0054C38.7889 61.0054 42.8638 61.0435 46.9685 60.807C51.7362 60.5705 55.9676 59.4565 59.454 55.8856C62.9479 52.3072 64.0281 47.9809 64.259 43.0977C64.4974 38.8936 64.4527 34.72 64.4527 30.5082V30.5082ZM34.6692 46.1574C26.2139 46.1574 19.3901 39.1683 19.3901 30.5082C19.3901 21.8482 26.2139 14.8591 34.6692 14.8591C43.1245 14.8591 49.9483 21.8482 49.9483 30.5082C49.9483 39.1683 43.1245 46.1574 34.6692 46.1574ZM50.5741 17.8729C48.6 17.8729 47.0058 16.2401 47.0058 14.2181C47.0058 12.1962 48.6 10.5634 50.5741 10.5634C52.5483 10.5634 54.1425 12.1962 54.1425 14.2181C54.1431 14.6983 54.0512 15.1738 53.872 15.6175C53.6929 16.0612 53.4301 16.4643 53.0986 16.8038C52.7672 17.1433 52.3736 17.4125 51.9404 17.5959C51.5072 17.7794 51.0429 17.8735 50.5741 17.8729V17.8729Z" fill="white"/>
</g>
<defs>
<filter id="filter0_d" x="0.898438" y="0.00878906" width="67.5576" height="68.9989" filterUnits="userSpaceOnUse" color-interpolation-filters="sRGB">
<feFlood flood-opacity="0" result="BackgroundImageFix"/>
<feColorMatrix in="SourceAlpha" type="matrix" values="0 0 0 0 0 0 0 0 0 0 0 0 0 0 0 0 0 0 127 0" result="hardAlpha"/>
<feOffset dy="4"/>
<feGaussianBlur stdDeviation="2"/>
<feColorMatrix type="matrix" values="0 0 0 0 0 0 0 0 0 0 0 0 0 0 0 0 0 0 0.25 0"/>
<feBlend mode="normal" in2="BackgroundImageFix" result="effect1_dropShadow"/>
<feBlend mode="normal" in="SourceGraphic" in2="effect1_dropShadow" result="shape"/>
</filter>
</defs>
</svg>
