<svg width="69" height="70" viewBox="0 0 69 70" fill="none" xmlns="http://www.w3.org/2000/svg">
<g filter="url(#filter0_d)">
<path fill-rule="evenodd" clip-rule="evenodd" d="M4.67578 5.10507C4.67578 3.75345 5.20001 2.4572 6.13315 1.50146C7.06629 0.545723 8.33189 0.00879586 9.65155 0.00879586H59.2522C59.9062 0.00770187 60.5539 0.138734 61.1584 0.39439C61.7629 0.650046 62.3122 1.0253 62.7749 1.49868C63.2376 1.97206 63.6045 2.53426 63.8548 3.1531C64.1051 3.77193 64.2337 4.43525 64.2334 5.10507V55.907C64.2341 56.5769 64.1058 57.2404 63.8559 57.8596C63.606 58.4787 63.2394 59.0413 62.777 59.5151C62.3146 59.989 61.7655 60.3648 61.1611 60.6211C60.5568 60.8774 59.909 61.0092 59.2549 61.0088H9.65155C8.99789 61.0088 8.35064 60.8769 7.74678 60.6206C7.14291 60.3643 6.59427 59.9887 6.13219 59.5151C5.67011 59.0416 5.30366 58.4795 5.05376 57.8609C4.80387 57.2422 4.67543 56.5792 4.67578 55.9097V5.10507ZM28.2498 23.2664H36.3144V27.4144C37.4785 25.0299 40.4564 22.8838 44.9313 22.8838C53.5103 22.8838 55.5434 27.6335 55.5434 36.3482V52.491H46.8615V38.3334C46.8615 33.3702 45.6974 30.5698 42.7412 30.5698C38.6398 30.5698 36.9343 33.5893 36.9343 38.3334V52.491H28.2498V23.2664ZM13.3604 52.1111H22.0449V22.8838H13.3604V52.1083V52.1111ZM23.2875 13.3512C23.3039 14.1128 23.1716 14.87 22.8983 15.5785C22.6251 16.287 22.2164 16.9325 21.6963 17.4771C21.1762 18.0216 20.5552 18.4543 19.8696 18.7497C19.184 19.0451 18.4478 19.1972 17.704 19.1972C16.9602 19.1972 16.224 19.0451 15.5384 18.7497C14.8528 18.4543 14.2318 18.0216 13.7117 17.4771C13.1916 16.9325 12.7829 16.287 12.5097 15.5785C12.2364 14.87 12.1041 14.1128 12.1205 13.3512C12.1526 11.8563 12.755 10.4337 13.7986 9.38806C14.8422 8.34245 16.2441 7.75695 17.704 7.75695C19.1639 7.75695 20.5658 8.34245 21.6094 9.38806C22.653 10.4337 23.2554 11.8563 23.2875 13.3512V13.3512Z" fill="white"/>
</g>
<defs>
<filter id="filter0_d" x="0.675781" y="0.00878906" width="67.5576" height="69" filterUnits="userSpaceOnUse" color-interpolation-filters="sRGB">
<feFlood flood-opacity="0" result="BackgroundImageFix"/>
<feColorMatrix in="SourceAlpha" type="matrix" values="0 0 0 0 0 0 0 0 0 0 0 0 0 0 0 0 0 0 127 0" result="hardAlpha"/>
<feOffset dy="4"/>
<feGaussianBlur stdDeviation="2"/>
<feColorMatrix type="matrix" values="0 0 0 0 0 0 0 0 0 0 0 0 0 0 0 0 0 0 0.25 0"/>
<feBlend mode="normal" in2="BackgroundImageFix" result="effect1_dropShadow"/>
<feBlend mode="normal" in="SourceGraphic" in2="effect1_dropShadow" result="shape"/>
</filter>
</defs>
</svg>
