<svg width="652" height="305" viewBox="0 0 652 305" fill="none" xmlns="http://www.w3.org/2000/svg">
<path d="M398.959 216.458L404.778 217.413C405.219 217.483 405.633 217.67 405.977 217.954C406.309 218.227 406.549 218.597 406.664 219.012C406.696 219.135 406.715 219.262 406.719 219.389C406.724 219.507 406.717 219.625 406.697 219.741L393.308 300.743C393.137 301.789 392.049 302.503 390.858 302.352L390.742 302.337L384.923 301.381L384.807 301.359C383.636 301.107 382.83 300.102 383.004 299.051L396.393 218.049C396.434 217.807 396.525 217.576 396.66 217.37C396.901 217.013 397.248 216.74 397.652 216.589C398.068 216.429 398.519 216.384 398.959 216.458Z" fill="#FFB93E"/>
<path d="M400.446 257.559L393.272 300.954C393.118 301.887 392.045 302.497 390.857 302.352L390.741 302.337L384.922 301.381L384.806 301.359C383.635 301.107 382.814 300.195 382.968 299.262L389.263 261.196C392.393 261.085 396.825 260.356 400.446 257.559Z" fill="#FFA412"/>
<path d="M395.062 225.922L394.91 226.842L405.213 228.541L405.365 227.621L395.062 225.922Z" fill="#FFA412"/>
<path d="M394.589 229.075L394.438 229.996L404.741 231.691L404.893 230.771L394.589 229.075Z" fill="#FFA412"/>
<path d="M393.933 232.782L393.781 233.702L404.085 235.399L404.237 234.479L393.933 232.782Z" fill="#FFA412"/>
<path d="M393.011 238.531L392.859 239.451L403.162 241.148L403.315 240.228L393.011 238.531Z" fill="#FFA412"/>
<path d="M392 244.578L391.848 245.499L402.151 247.196L402.303 246.276L392 244.578Z" fill="#FFA412"/>
<path d="M390.484 253.881L390.332 254.801L400.635 256.496L400.787 255.576L390.484 253.881Z" fill="#FFA412"/>
<path d="M389.008 262.538L388.855 263.458L399.158 265.157L399.311 264.237L389.008 262.538Z" fill="#FFA412"/>
<path d="M387.758 270.33L387.605 271.25L397.909 272.948L398.061 272.027L387.758 270.33Z" fill="#FFA412"/>
<path d="M395.259 221.084L395.109 222.007L405.447 223.675L405.597 222.752L395.259 221.084Z" fill="#FFA412"/>
<path d="M395.898 221.016L395.746 221.937L406.049 223.634L406.201 222.714L395.898 221.016Z" fill="#FFA412"/>
<path d="M395.884 217.239L395.734 218.162L406.072 219.83L406.222 218.907L395.884 217.239Z" fill="#FFA412"/>
<path d="M396.297 218.624L406.603 220.316L406.697 219.741C406.717 219.624 406.724 219.506 406.719 219.389L396.486 217.709C396.443 217.819 396.412 217.933 396.393 218.049L396.297 218.624Z" fill="#FFA412"/>
<path d="M396.66 217.37L406.664 219.012C406.55 218.597 406.31 218.227 405.977 217.953L397.652 216.588C397.248 216.74 396.902 217.013 396.66 217.37Z" fill="#FFA412"/>
<path d="M409.515 216.458L415.334 217.413C415.774 217.483 416.187 217.67 416.531 217.954C416.864 218.227 417.104 218.597 417.218 219.012C417.251 219.135 417.27 219.261 417.273 219.389C417.279 219.507 417.272 219.625 417.253 219.741L403.865 300.743C403.691 301.789 402.606 302.503 401.414 302.352L401.299 302.337L395.477 301.381L395.364 301.359C394.193 301.107 393.387 300.102 393.558 299.051L406.949 218.049C406.988 217.806 407.079 217.575 407.216 217.37C407.457 217.013 407.804 216.74 408.208 216.589C408.624 216.429 409.076 216.384 409.515 216.458Z" fill="#FFB93E"/>
<path d="M411.004 257.559L403.83 300.954C403.677 301.887 402.601 302.497 401.415 302.352L401.3 302.337L395.478 301.381L395.365 301.359C394.191 301.107 393.373 300.195 393.526 299.262L399.822 261.196C402.952 261.085 407.381 260.356 411.004 257.559Z" fill="#FFA412"/>
<path d="M405.617 225.919L405.465 226.839L415.768 228.538L415.92 227.618L405.617 225.919Z" fill="#FFA412"/>
<path d="M405.16 229.085L405.008 230.005L415.311 231.7L415.463 230.78L405.16 229.085Z" fill="#FFA412"/>
<path d="M404.492 232.779L404.34 233.699L414.643 235.396L414.795 234.476L404.492 232.779Z" fill="#FFA412"/>
<path d="M403.562 238.523L403.41 239.443L413.713 241.14L413.865 240.22L403.562 238.523Z" fill="#FFA412"/>
<path d="M402.558 244.581L402.406 245.501L412.709 247.198L412.862 246.278L402.558 244.581Z" fill="#FFA412"/>
<path d="M401.008 253.849L400.855 254.77L411.159 256.467L411.311 255.547L401.008 253.849Z" fill="#FFA412"/>
<path d="M399.586 262.558L399.434 263.478L409.737 265.175L409.889 264.255L399.586 262.558Z" fill="#FFA412"/>
<path d="M398.304 270.325L398.152 271.246L408.455 272.943L408.608 272.023L398.304 270.325Z" fill="#FFA412"/>
<path d="M406.117 222.963L405.965 223.883L416.268 225.58L416.42 224.66L406.117 222.963Z" fill="#FFA412"/>
<path d="M406.488 221.043L406.336 221.963L416.639 223.658L416.791 222.738L406.488 221.043Z" fill="#FFA412"/>
<path d="M406.781 219.137L406.629 220.058L416.932 221.753L417.084 220.833L406.781 219.137Z" fill="#FFA412"/>
<path d="M406.855 218.624L417.159 220.316L417.255 219.741C417.274 219.624 417.281 219.506 417.275 219.389L407.042 217.709C407 217.819 406.97 217.933 406.951 218.049L406.855 218.624Z" fill="#FFA412"/>
<path d="M407.219 217.37L417.221 219.012C417.107 218.596 416.867 218.226 416.533 217.953L408.211 216.588C407.807 216.739 407.46 217.013 407.219 217.37Z" fill="#FFA412"/>
<path d="M370.914 294.223V300.11C370.915 300.552 370.797 300.986 370.572 301.367C370.355 301.739 370.028 302.035 369.635 302.214C369.519 302.265 369.397 302.304 369.273 302.33C369.157 302.353 369.039 302.364 368.92 302.365L286.677 302.169C285.617 302.169 284.746 301.206 284.695 300.012C284.695 299.974 284.695 299.934 284.695 299.896V294.009C284.695 293.969 284.695 293.932 284.695 293.891C284.751 292.697 285.627 291.742 286.687 291.745L368.93 291.938C369.048 291.941 369.165 291.953 369.28 291.976C369.406 292.002 369.528 292.041 369.645 292.094C370.037 292.275 370.362 292.573 370.577 292.946C370.804 293.333 370.921 293.775 370.914 294.223Z" fill="#FFB93E"/>
<path d="M330.505 302.284L286.438 302.178C285.492 302.178 284.714 301.216 284.676 300.022C284.676 299.984 284.676 299.944 284.676 299.906V294.019C284.676 293.979 284.676 293.941 284.676 293.901C284.726 292.707 285.509 291.752 286.454 291.754L325.104 291.845C325.726 294.917 327.156 299.162 330.505 302.284Z" fill="#FFA412"/>
<path d="M359.105 291.224V301.648H360.04V291.224H359.105Z" fill="#FFA412"/>
<path d="M355.953 291.217V301.641H356.887V291.217H355.953Z" fill="#FFA412"/>
<path d="M353.008 291.906L352.98 302.33L353.915 302.333L353.942 291.908L353.008 291.906Z" fill="#FFA412"/>
<path d="M347.172 291.875L347.148 302.299L348.083 302.301L348.106 291.877L347.172 291.875Z" fill="#FFA412"/>
<path d="M340.227 291.181V301.605H341.161V291.181H340.227Z" fill="#FFA412"/>
<path d="M330.82 291.158V301.583H331.754V291.158H330.82Z" fill="#FFA412"/>
<path d="M322.818 291.864L322.793 302.288L323.727 302.29L323.753 291.866L322.818 291.864Z" fill="#FFA412"/>
<path d="M314.91 291.823L314.883 302.247L315.817 302.25L315.844 291.826L314.91 291.823Z" fill="#FFA412"/>
<path d="M363.01 291.957L362.984 302.381L363.919 302.384L363.944 291.96L363.01 291.957Z" fill="#FFA412"/>
<path d="M364.967 291.939L364.945 302.363L365.88 302.365L365.901 291.941L364.967 291.939Z" fill="#FFA412"/>
<path d="M366.012 291.241V301.666H366.946V291.241H366.012Z" fill="#FFA412"/>
<path d="M368.337 291.948L368.316 302.372H368.898C369.017 302.372 369.135 302.36 369.251 302.337L369.268 291.983C369.153 291.96 369.036 291.948 368.918 291.945L368.337 291.948Z" fill="#FFA412"/>
<path d="M369.637 292.104L369.617 302.223C370.01 302.045 370.337 301.749 370.554 301.376L370.569 292.956C370.354 292.582 370.029 292.284 369.637 292.104Z" fill="#FFA412"/>
<path d="M362.132 283.776V289.663C362.131 290.105 362.012 290.539 361.787 290.92C361.572 291.292 361.245 291.589 360.853 291.767C360.736 291.819 360.613 291.858 360.488 291.882C360.372 291.906 360.255 291.917 360.138 291.918L277.894 291.724C276.834 291.724 275.963 290.761 275.91 289.567C275.91 289.527 275.91 289.489 275.91 289.449V283.562C275.91 283.524 275.91 283.484 275.91 283.447C275.966 282.253 276.839 281.295 277.902 281.297L360.143 281.493H360.301C360.323 281.492 360.345 281.492 360.367 281.493H360.442H360.495C360.62 281.518 360.742 281.557 360.858 281.609L360.911 281.634L360.961 281.659L361.059 281.715L361.117 281.75L361.168 281.785L361.261 281.853L361.364 281.941L361.439 282.011L361.49 282.064C361.54 282.117 361.588 282.175 361.633 282.232L361.674 282.285L361.711 282.341L361.784 282.456C362.022 282.855 362.142 283.312 362.132 283.776Z" fill="#FFB93E"/>
<path d="M321.731 291.837L277.665 291.732C276.718 291.732 275.943 290.771 275.902 289.578C275.902 289.537 275.902 289.5 275.902 289.459V283.572C275.902 283.535 275.902 283.495 275.902 283.457C275.953 282.263 276.733 281.305 277.68 281.308L316.328 281.401C316.346 281.483 316.364 281.567 316.381 281.652C317.025 284.704 318.473 288.803 321.731 291.837Z" fill="#FFA412"/>
<path d="M351.172 281.463L351.148 291.887L352.083 291.889L352.106 281.465L351.172 281.463Z" fill="#FFA412"/>
<path d="M348.008 281.452L347.984 291.876L348.919 291.879L348.942 281.454L348.008 281.452Z" fill="#FFA412"/>
<path d="M343.41 280.787V291.211H344.344V280.787H343.41Z" fill="#FFA412"/>
<path d="M337.609 280.775V291.199H338.544V280.775H337.609Z" fill="#FFA412"/>
<path d="M332.272 281.435L332.25 291.859L333.184 291.861L333.206 281.437L332.272 281.435Z" fill="#FFA412"/>
<path d="M322.848 281.417L322.82 291.841L323.755 291.843L323.782 281.419L322.848 281.417Z" fill="#FFA412"/>
<path d="M313.258 280.715V291.139H314.192V280.715H313.258Z" fill="#FFA412"/>
<path d="M306.131 281.375L306.109 291.799L307.044 291.801L307.065 281.377L306.131 281.375Z" fill="#FFA412"/>
<path d="M354.184 281.471L354.16 291.895L355.094 291.897L355.118 281.473L354.184 281.471Z" fill="#FFA412"/>
<path d="M356.225 281.515L356.199 291.939L357.133 291.942L357.159 281.518L356.225 281.515Z" fill="#FFA412"/>
<path d="M357.258 280.82V291.244H358.192V280.82H357.258Z" fill="#FFA412"/>
<path d="M359.561 281.501L359.543 291.928H360.127C360.245 291.927 360.362 291.916 360.477 291.892L360.497 281.541C360.381 281.516 360.263 281.503 360.145 281.503L359.561 281.501Z" fill="#FFA412"/>
<path d="M360.861 281.657L360.844 291.777C361.235 291.597 361.561 291.301 361.778 290.93L361.793 282.509C361.579 282.135 361.253 281.837 360.861 281.657Z" fill="#FFA412"/>
<path d="M366.401 273.618V279.505C366.402 279.947 366.283 280.381 366.059 280.762C365.842 281.134 365.516 281.43 365.124 281.609C365.007 281.661 364.885 281.7 364.759 281.725C364.644 281.748 364.527 281.76 364.409 281.76L282.166 281.566C281.843 281.567 281.527 281.48 281.25 281.315C280.943 281.121 280.688 280.857 280.504 280.545C280.319 280.233 280.212 279.882 280.189 279.52C280.187 279.486 280.187 279.452 280.189 279.417C280.189 279.38 280.189 279.342 280.189 279.302L280.202 273.415V273.299C280.26 272.105 281.134 271.147 282.194 271.15L364.437 271.346C364.555 271.346 364.672 271.358 364.787 271.384C364.913 271.408 365.035 271.447 365.152 271.499C365.544 271.68 365.869 271.978 366.084 272.351C366.3 272.738 366.41 273.175 366.401 273.618Z" fill="#FFB93E"/>
<path d="M326.003 281.679L281.936 281.574C281.645 281.574 281.359 281.486 281.118 281.322C280.836 281.113 280.605 280.842 280.442 280.532C280.279 280.221 280.187 279.878 280.174 279.528C280.171 279.493 280.171 279.459 280.174 279.425C280.174 279.387 280.174 279.349 280.174 279.309L280.186 273.422V273.306C280.239 272.112 281.02 271.155 281.967 271.157L320.614 271.248C321.211 274.236 322.581 278.336 325.736 281.428C325.822 281.508 325.91 281.594 326.003 281.679Z" fill="#FFA412"/>
<path d="M368.395 263.199V269.086C368.396 269.528 368.278 269.962 368.052 270.343C367.837 270.716 367.509 271.013 367.116 271.19C367 271.244 366.878 271.282 366.753 271.306C366.637 271.331 366.519 271.343 366.401 271.343L284.16 271.147C283.1 271.147 282.226 270.185 282.176 268.991C282.176 268.95 282.176 268.913 282.176 268.875V262.985C282.176 262.948 282.176 262.91 282.176 262.87C282.229 261.764 282.982 260.859 283.938 260.738C284.016 260.728 284.094 260.723 284.173 260.723L366.416 260.917C366.533 260.916 366.651 260.929 366.766 260.954C366.892 260.98 367.014 261.019 367.131 261.073C367.522 261.253 367.847 261.55 368.063 261.922C368.285 262.311 368.4 262.751 368.395 263.199Z" fill="#FFB93E"/>
<path d="M327.989 271.258L283.923 271.155C282.976 271.155 282.198 270.192 282.16 268.998C282.16 268.958 282.16 268.921 282.16 268.883V262.993C282.16 262.956 282.16 262.918 282.16 262.878C282.208 261.774 282.88 260.867 283.729 260.746C283.799 260.734 283.87 260.728 283.94 260.729L322.588 260.822C322.588 260.827 322.588 260.833 322.588 260.839C323.212 263.906 324.645 268.144 327.989 271.258Z" fill="#FFA412"/>
<path d="M362.351 252.775V258.662C362.349 259.104 362.23 259.538 362.006 259.919C361.79 260.291 361.463 260.587 361.071 260.766C360.955 260.819 360.832 260.857 360.706 260.882L360.59 260.902H360.525H360.462H360.356L278.113 260.708C277.053 260.708 276.182 259.743 276.129 258.549C276.129 258.511 276.129 258.471 276.129 258.433L276.142 252.547C276.142 252.506 276.142 252.469 276.142 252.428C276.142 252.388 276.142 252.366 276.142 252.335C276.163 251.893 276.318 251.468 276.584 251.115C276.851 250.761 277.218 250.495 277.637 250.352L277.698 250.335C277.838 250.299 277.983 250.281 278.128 250.282L360.369 250.478C360.429 250.478 360.49 250.478 360.548 250.478H360.628L360.721 250.498C360.846 250.523 360.968 250.561 361.084 250.614C361.476 250.793 361.802 251.091 362.016 251.466C362.247 251.863 362.363 252.316 362.351 252.775Z" fill="#FFB93E"/>
<path d="M321.962 260.836L277.895 260.731C276.951 260.731 276.173 259.768 276.133 258.574C276.133 258.536 276.133 258.496 276.133 258.458L276.145 252.571C276.145 252.531 276.145 252.493 276.145 252.453C276.145 252.413 276.145 252.39 276.145 252.36C276.218 251.377 276.788 250.573 277.528 250.349L277.603 250.329C277.707 250.306 277.812 250.294 277.918 250.294L316.568 250.384C316.568 250.41 316.568 250.435 316.583 250.46C317.2 253.519 318.63 257.714 321.942 260.806L321.962 260.836Z" fill="#FFA412"/>
<path d="M362.208 242.424V248.311C362.208 248.753 362.09 249.187 361.865 249.567C361.649 249.939 361.322 250.235 360.931 250.415C360.839 250.455 360.744 250.487 360.647 250.51L360.568 250.53C360.453 250.553 360.336 250.565 360.218 250.565L277.975 250.369C277.891 250.37 277.807 250.363 277.723 250.349C277.69 250.346 277.658 250.34 277.625 250.332C276.731 250.146 276.041 249.271 275.996 248.213C275.996 248.175 275.996 248.135 275.996 248.097V242.21C275.996 242.17 275.996 242.132 275.996 242.092C276.051 240.898 276.925 239.943 277.988 239.945L360.229 240.141H360.387H360.453H360.528H360.581C360.706 240.168 360.827 240.208 360.944 240.26L360.997 240.285L361.047 240.31L361.145 240.365L361.253 240.435C361.286 240.456 361.317 240.479 361.347 240.503C361.382 240.531 361.417 240.559 361.45 240.589L361.525 240.662L361.576 240.712C361.627 240.766 361.675 240.823 361.719 240.883L361.76 240.936L361.797 240.991C361.822 241.029 361.848 241.066 361.87 241.107C362.104 241.505 362.221 241.962 362.208 242.424Z" fill="#FFB93E"/>
<path d="M321.809 250.485L277.743 250.38H277.64C277.602 250.377 277.564 250.372 277.526 250.364C276.678 250.229 276.015 249.329 275.973 248.225C275.973 248.188 275.973 248.147 275.973 248.11V242.223C275.973 242.183 275.973 242.145 275.973 242.105C276.023 240.911 276.804 239.955 277.75 239.958L316.398 240.048L316.451 240.3C317.085 243.316 318.511 247.378 321.711 250.405L321.809 250.485Z" fill="#FFA412"/>
<path d="M366.476 232.264L366.463 238.151C366.464 238.593 366.346 239.027 366.121 239.408C365.904 239.779 365.578 240.075 365.187 240.255C365.07 240.307 364.947 240.346 364.822 240.37C364.706 240.393 364.589 240.405 364.472 240.406L282.229 240.21C281.906 240.211 281.589 240.124 281.312 239.958C281.006 239.763 280.751 239.499 280.567 239.188C280.382 238.876 280.275 238.525 280.252 238.163C280.249 238.129 280.249 238.095 280.252 238.06C280.252 238.023 280.252 237.982 280.252 237.945V232.058C280.252 232.018 280.252 231.98 280.252 231.94C280.31 230.746 281.184 229.79 282.244 229.793L364.487 229.989C364.604 229.989 364.722 230.001 364.837 230.024C364.963 230.049 365.085 230.089 365.202 230.142C365.593 230.327 365.917 230.63 366.129 231.007C366.354 231.388 366.474 231.822 366.476 232.264Z" fill="#FFB93E"/>
<path d="M326.077 240.327L282.011 240.222C281.719 240.222 281.434 240.134 281.192 239.97C280.911 239.76 280.68 239.49 280.517 239.18C280.353 238.869 280.262 238.526 280.248 238.176C280.245 238.141 280.245 238.107 280.248 238.073C280.248 238.035 280.248 237.995 280.248 237.957V232.07C280.248 232.03 280.248 231.992 280.248 231.952C280.301 230.758 281.081 229.803 282.028 229.805L320.676 229.896C321.273 232.882 322.642 236.984 325.798 240.076C325.896 240.156 325.984 240.242 326.077 240.327Z" fill="#FFA412"/>
<path d="M373.215 221.857V227.744C373.215 228.186 373.097 228.62 372.873 229.001C372.655 229.373 372.328 229.669 371.936 229.848C371.819 229.901 371.697 229.939 371.571 229.964C371.456 229.987 371.339 229.999 371.221 229.999L288.978 229.803C287.918 229.803 287.046 228.84 286.996 227.646C286.996 227.609 286.996 227.568 286.996 227.531V221.644C286.996 221.603 286.996 221.566 286.996 221.526C287.046 220.422 287.799 219.515 288.759 219.394C288.837 219.384 288.916 219.379 288.995 219.379L371.239 219.575C371.356 219.575 371.473 219.587 371.589 219.61C371.714 219.635 371.835 219.675 371.951 219.728C372.344 219.908 372.67 220.206 372.885 220.58C373.109 220.969 373.222 221.41 373.215 221.857Z" fill="#FFB93E"/>
<path d="M332.814 229.918L288.747 229.813C287.8 229.813 287.022 228.85 286.984 227.656C286.984 227.618 286.984 227.578 286.984 227.54V221.653C286.984 221.613 286.984 221.576 286.984 221.535C287.03 220.432 287.702 219.524 288.553 219.404C288.622 219.394 288.692 219.389 288.762 219.389L327.412 219.479C327.412 219.479 327.412 219.492 327.412 219.497C328.039 222.566 329.47 226.804 332.814 229.918Z" fill="#FFA412"/>
<path d="M362.436 211.423V217.31C362.435 217.752 362.316 218.186 362.091 218.567C361.875 218.939 361.549 219.234 361.157 219.414C361.04 219.465 360.918 219.504 360.792 219.53L360.676 219.55C360.646 219.55 360.616 219.55 360.583 219.55H360.538H360.442L278.199 219.354C277.139 219.354 276.268 218.391 276.215 217.197C276.215 217.159 276.215 217.119 276.215 217.081V211.194C276.215 211.154 276.215 211.117 276.215 211.076C276.27 209.882 277.144 208.927 278.207 208.93L360.447 209.126H360.553C360.637 209.131 360.722 209.142 360.805 209.158C360.93 209.184 361.051 209.224 361.167 209.277C361.227 209.303 361.285 209.332 361.341 209.365L361.442 209.427L361.54 209.5C361.546 209.499 361.552 209.499 361.558 209.5L361.646 209.573C361.717 209.634 361.784 209.701 361.845 209.772L361.9 209.837L361.933 209.88C361.954 209.906 361.974 209.934 361.991 209.963C362.018 210.003 362.044 210.043 362.069 210.086C362.317 210.487 362.445 210.952 362.436 211.423Z" fill="#FFB93E"/>
<path d="M322.036 219.484L277.97 219.379C277.025 219.379 276.245 218.416 276.207 217.222C276.207 217.184 276.207 217.144 276.207 217.106V211.219C276.207 211.179 276.207 211.141 276.207 211.101C276.257 209.907 277.038 208.952 277.985 208.955L316.635 209.045C316.65 209.126 316.665 209.206 316.685 209.296C317.32 212.34 318.758 216.44 322.008 219.477L322.036 219.484Z" fill="#FFA412"/>
<path d="M368.503 201.253V207.14C368.504 207.582 368.386 208.016 368.161 208.397C367.944 208.769 367.617 209.065 367.224 209.244C367.108 209.296 366.986 209.335 366.861 209.36C366.745 209.383 366.627 209.395 366.509 209.395L284.268 209.199C283.955 209.195 283.648 209.109 283.379 208.947C283.064 208.754 282.801 208.487 282.611 208.169C282.421 207.852 282.311 207.494 282.289 207.125C282.289 207.095 282.289 207.065 282.289 207.032C282.289 206.999 282.289 206.954 282.289 206.916V201.029C282.289 200.989 282.289 200.952 282.289 200.911C282.342 199.808 283.095 198.9 284.052 198.78C284.129 198.77 284.208 198.764 284.286 198.765L366.529 198.961C366.647 198.961 366.764 198.973 366.879 198.996C367.004 199.023 367.127 199.062 367.244 199.114C367.636 199.295 367.961 199.593 368.176 199.966C368.401 200.357 368.514 200.802 368.503 201.253Z" fill="#FFB93E"/>
<path d="M328.105 209.314L284.039 209.209C283.755 209.203 283.48 209.116 283.245 208.957C282.955 208.747 282.717 208.474 282.548 208.158C282.38 207.842 282.286 207.492 282.273 207.135C282.273 207.105 282.273 207.074 282.273 207.042C282.273 207.009 282.273 206.964 282.273 206.926V201.039C282.273 200.999 282.273 200.961 282.273 200.921C282.321 199.818 282.994 198.91 283.842 198.789C283.911 198.779 283.981 198.774 284.051 198.774L322.701 198.865C322.703 198.871 322.703 198.877 322.701 198.882C323.301 201.871 324.675 205.973 327.838 209.063L328.105 209.314Z" fill="#FFA412"/>
<path d="M362.476 190.831V196.718C362.475 197.16 362.355 197.594 362.131 197.975C361.916 198.348 361.589 198.644 361.196 198.822C361.079 198.874 360.957 198.913 360.831 198.938L360.715 198.958H360.65H360.587H360.481L278.238 198.764C277.178 198.764 276.307 197.802 276.254 196.608C276.254 196.568 276.254 196.53 276.254 196.49V190.603V190.487C276.312 189.293 277.186 188.338 278.246 188.338L360.489 188.534C360.607 188.534 360.724 188.546 360.839 188.572C360.965 188.597 361.087 188.637 361.204 188.69C361.596 188.869 361.922 189.166 362.136 189.539C362.365 189.931 362.483 190.378 362.476 190.831Z" fill="#FFB93E"/>
<path d="M322.075 198.89L278.009 198.787C277.062 198.787 276.284 197.824 276.246 196.63C276.246 196.59 276.246 196.552 276.246 196.512V190.625V190.51C276.299 189.316 277.08 188.358 278.026 188.36L316.674 188.453C317.286 191.518 318.711 195.743 322.05 198.875L322.075 198.89Z" fill="#FFA412"/>
<path d="M355.49 271.345L355.465 281.77L356.399 281.772L356.425 271.348L355.49 271.345Z" fill="#FFA412"/>
<path d="M352.299 271.314L352.277 281.738L353.212 281.74L353.233 271.316L352.299 271.314Z" fill="#FFA412"/>
<path d="M348.495 271.299L348.473 281.723L349.407 281.725L349.429 271.301L348.495 271.299Z" fill="#FFA412"/>
<path d="M342.717 271.315L342.691 281.739L343.626 281.742L343.651 271.317L342.717 271.315Z" fill="#FFA412"/>
<path d="M336.565 271.3L336.539 281.724L337.473 281.726L337.499 271.302L336.565 271.3Z" fill="#FFA412"/>
<path d="M327.135 271.277L327.109 281.701L328.044 281.703L328.069 271.279L327.135 271.277Z" fill="#FFA412"/>
<path d="M318.28 271.236L318.258 281.66L319.192 281.662L319.214 271.238L318.28 271.236Z" fill="#FFA412"/>
<path d="M310.424 271.24L310.398 281.664L311.333 281.666L311.358 271.242L310.424 271.24Z" fill="#FFA412"/>
<path d="M357.617 270.677V281.101H358.551V270.677H357.617Z" fill="#FFA412"/>
<path d="M360.463 271.337L360.441 281.761L361.376 281.763L361.397 271.339L360.463 271.337Z" fill="#FFA412"/>
<path d="M361.516 270.687V281.111H362.45V270.687H361.516Z" fill="#FFA412"/>
<path d="M363.83 271.343L363.812 281.767H364.397C364.514 281.767 364.631 281.755 364.747 281.732L364.764 271.378C364.649 271.355 364.532 271.343 364.414 271.343H363.83Z" fill="#FFA412"/>
<path d="M365.123 271.5L365.105 281.619C365.497 281.44 365.823 281.144 366.04 280.772L366.055 272.352C365.84 271.978 365.515 271.68 365.123 271.5Z" fill="#FFA412"/>
<path d="M328.309 260.208V270.632H329.243V260.208H328.309Z" fill="#FFA412"/>
<path d="M320.25 260.796L320.227 271.22L321.161 271.222L321.184 260.798L320.25 260.796Z" fill="#FFA412"/>
<path d="M312.416 260.818L312.391 271.242L313.325 271.244L313.35 260.82L312.416 260.818Z" fill="#FFA412"/>
<path d="M361.376 271.339L361.397 260.912H360.588L360.717 260.892L360.737 250.538L360.563 250.511L360.581 240.408H360.946L360.928 250.423C361.32 250.243 361.646 249.947 361.863 249.575L361.878 241.155C361.699 240.845 361.444 240.585 361.137 240.401H361.465L361.482 229.977H360.548L360.53 240.172C360.432 240.154 360.331 240.144 360.231 240.144H359.647L359.629 250.568H359.8L359.783 260.917H360.367H360.472L360.452 271.331L361.376 271.339Z" fill="#FFA412"/>
<path d="M362.483 260.936L362.457 271.36L363.391 271.363L363.417 260.939L362.483 260.936Z" fill="#FFA412"/>
<path d="M363.414 260.225V270.649H364.348V260.225H363.414Z" fill="#FFA412"/>
<path d="M365.818 260.919L365.801 271.346H366.38C366.498 271.347 366.617 271.335 366.732 271.311L366.75 260.96C366.635 260.934 366.518 260.922 366.4 260.922L365.818 260.919Z" fill="#FFA412"/>
<path d="M367.118 261.08L367.098 271.198C367.491 271.02 367.819 270.724 368.034 270.35L368.049 261.93C367.835 261.557 367.509 261.26 367.118 261.08Z" fill="#FFA412"/>
<path d="M352.339 260.907L352.356 250.483H352.185L352.203 240.131L351.268 240.129L351.248 250.555H351.422L351.404 260.889L350.49 260.887L350.473 271.313H351.407L351.427 260.907H352.339Z" fill="#FFA412"/>
<path d="M345.401 250.465H345.227L345.247 240.116L344.313 240.114L344.293 250.538H344.467L344.447 260.889H344.678L344.658 271.298L345.592 271.301L345.612 260.876L345.383 260.874L345.401 250.465Z" fill="#FFA412"/>
<path d="M361.092 250.656L361.074 260.776C361.466 260.597 361.792 260.301 362.008 259.929L362.023 251.508C361.81 251.134 361.484 250.836 361.092 250.656Z" fill="#FFA412"/>
<path d="M339.431 240.101L338.497 240.099L338.477 250.525H338.65L338.633 260.859H338.527L338.509 271.283L339.443 271.285L339.464 260.876H339.567L339.584 250.452H339.413L339.431 240.101Z" fill="#FFA412"/>
<path d="M333.282 240.087L332.348 240.084L332.328 250.511H332.502L332.482 260.862L333.418 260.864L333.436 250.438H333.262L333.282 240.087Z" fill="#FFA412"/>
<path d="M323.853 240.063H322.916L322.898 250.488H323.072L323.052 260.839L323.986 260.841L324.006 250.415H323.833L323.853 240.063Z" fill="#FFA412"/>
<path d="M315.025 240.044L314.09 240.041L314.07 250.468H314.244L314.224 260.819H315.161L315.178 250.395H315.005L315.025 240.044Z" fill="#FFA412"/>
<path d="M307.139 240.026L306.205 240.023L306.188 250.448H306.359L306.341 260.799L307.275 260.801L307.295 250.377L307.122 250.375L307.139 240.026Z" fill="#FFA412"/>
<path d="M355.217 240.139L354.283 240.137L354.266 250.561L354.437 250.563L354.419 260.897H354.288L354.271 271.321L355.205 271.323L355.223 260.914H355.353L355.371 250.49H355.2L355.217 240.139Z" fill="#FFA412"/>
<path d="M357.207 240.144L356.456 240.141L356.474 229.974L355.54 229.971L355.52 240.398H356.272L356.255 250.565L356.426 250.568L356.408 260.917L357.343 260.919L357.363 250.495H357.189L357.207 240.144Z" fill="#FFA412"/>
<path d="M352.404 229.98L352.379 240.404L353.313 240.407L353.339 229.983L352.404 229.98Z" fill="#FFA412"/>
<path d="M348.559 240.124L348.104 240.121L348.086 250.548H348.26L348.24 260.897L349.174 260.899L349.194 250.475H349.02L349.038 240.38L349.494 240.383L349.514 229.959L348.58 229.956L348.559 240.124Z" fill="#FFA412"/>
<path d="M342.762 229.938L342.734 240.362L343.669 240.365L343.696 229.941L342.762 229.938Z" fill="#FFA412"/>
<path d="M336.643 229.945L336.617 240.369L337.551 240.371L337.577 229.947L336.643 229.945Z" fill="#FFA412"/>
<path d="M327.164 229.889L327.141 240.313L328.075 240.315L328.099 229.891L327.164 229.889Z" fill="#FFA412"/>
<path d="M318.35 229.875L318.328 240.299L319.262 240.301L319.284 229.877L318.35 229.875Z" fill="#FFA412"/>
<path d="M310.502 229.884L310.477 240.309L311.411 240.311L311.436 229.887L310.502 229.884Z" fill="#FFA412"/>
<path d="M358.534 240.147H358.194L358.176 250.571H358.348L358.33 260.907L357.454 260.904L357.434 271.328L358.368 271.331L358.388 260.922L359.264 260.924L359.285 250.5L359.111 250.498L359.128 240.406H359.468L359.486 229.982L358.552 229.979L358.534 240.147Z" fill="#FFA412"/>
<path d="M361.594 229.433V239.857H362.528V229.433H361.594Z" fill="#FFA412"/>
<path d="M364.821 240.383L364.839 230.029C364.723 230.006 364.606 229.994 364.489 229.994H363.904L363.887 240.418H364.471C364.588 240.418 364.706 240.406 364.821 240.383Z" fill="#FFA412"/>
<path d="M366.129 239.42V231.007C365.914 230.633 365.589 230.336 365.197 230.155L365.18 240.275C365.578 240.096 365.91 239.797 366.129 239.42Z" fill="#FFA412"/>
<path d="M362.311 219.579L362.285 230.003L363.219 230.005L363.245 219.581L362.311 219.579Z" fill="#FFA412"/>
<path d="M348.668 218.999V229.423H349.602V218.999H348.668Z" fill="#FFA412"/>
<path d="M343.381 219.536L343.355 229.96L344.29 229.962L344.315 219.538L343.381 219.536Z" fill="#FFA412"/>
<path d="M333.955 219.513L333.93 229.937L334.864 229.939L334.889 219.515L333.955 219.513Z" fill="#FFA412"/>
<path d="M325.127 219.493L325.102 229.917L326.036 229.919L326.061 219.495L325.127 219.493Z" fill="#FFA412"/>
<path d="M317.213 219.454L317.191 229.878L318.126 229.88L318.147 219.456L317.213 219.454Z" fill="#FFA412"/>
<path d="M365.318 219.586L365.293 230.01L366.227 230.013L366.253 219.589L365.318 219.586Z" fill="#FFA412"/>
<path d="M366.398 219.042V229.466H367.333V219.042H366.398Z" fill="#FFA412"/>
<path d="M369.176 219.562L369.152 229.986L370.087 229.988L370.11 219.564L369.176 219.562Z" fill="#FFA412"/>
<path d="M370.645 219.583L370.625 230.007H371.209C371.328 230.006 371.446 229.995 371.562 229.972L371.579 219.618C371.464 219.595 371.347 219.582 371.229 219.58L370.645 219.583Z" fill="#FFA412"/>
<path d="M371.946 219.738L371.926 229.858C372.318 229.679 372.646 229.383 372.863 229.011L372.878 220.59C372.663 220.217 372.337 219.919 371.946 219.738Z" fill="#FFA412"/>
<path d="M351.484 219.552L352.418 219.557L352.435 209.131L351.524 209.128L351.542 198.961L352.456 198.963L352.473 188.537H351.539L351.519 198.946L350.607 198.943L350.59 209.367L351.501 209.37L351.484 219.552Z" fill="#FFA412"/>
<path d="M348.332 209.116L348.305 219.54L349.239 219.542L349.266 209.118L348.332 209.116Z" fill="#FFA412"/>
<path d="M332.604 209.101L332.578 219.525L333.512 219.528L333.538 209.104L332.604 209.101Z" fill="#FFA412"/>
<path d="M323.125 209.046L323.102 219.47L324.036 219.472L324.059 209.048L323.125 209.046Z" fill="#FFA412"/>
<path d="M313.562 208.532V218.957H314.497V208.532H313.562Z" fill="#FFA412"/>
<path d="M306.414 209.006L306.391 219.43L307.325 219.432L307.349 209.008L306.414 209.006Z" fill="#FFA412"/>
<path d="M354.494 219.56L355.32 219.562L355.302 229.971L356.236 229.974L356.256 219.547H355.428L355.445 209.138H355.317L355.335 198.971H355.466L355.483 188.544H354.549L354.529 198.95H354.4L354.383 209.377H354.511L354.494 219.56Z" fill="#FFA412"/>
<path d="M356.532 209.16L356.512 219.584L357.446 219.586L357.466 209.162L356.532 209.16Z" fill="#FFA412"/>
<path d="M361.327 209.39H361.49L361.51 198.966H360.689C360.733 198.962 360.777 198.955 360.82 198.946L360.841 188.594C360.725 188.569 360.607 188.556 360.488 188.557H359.904L359.886 198.983H360.47H360.576L360.556 209.164H360.45H359.866L359.848 219.573H359.345L359.362 209.166H358.489L358.506 198.998H359.383L359.4 188.574H358.466L358.448 198.983H357.567L357.547 209.41H358.423L358.406 219.595H359.116L359.095 230.004H360.032L360.05 219.593H360.435C360.553 219.592 360.67 219.581 360.785 219.557L360.803 209.41H361.168L361.15 219.442C361.542 219.262 361.868 218.966 362.084 218.595L362.1 210.174C361.917 209.848 361.65 209.578 361.327 209.39Z" fill="#FFA412"/>
<path d="M329.209 198.893L329.188 209.317L330.122 209.319L330.144 198.895L329.209 198.893Z" fill="#FFA412"/>
<path d="M319.617 198.387V208.812H320.551V198.387H319.617Z" fill="#FFA412"/>
<path d="M312.529 198.868L312.504 209.292L313.438 209.295L313.464 198.871L312.529 198.868Z" fill="#FFA412"/>
<path d="M362.539 198.956L362.516 209.38L363.45 209.382L363.473 198.958L362.539 198.956Z" fill="#FFA412"/>
<path d="M363.613 198.493V208.917H364.547V198.493H363.613Z" fill="#FFA412"/>
<path d="M365.934 198.978L365.914 209.402H366.498C366.617 209.402 366.735 209.39 366.851 209.367L366.868 199.013C366.753 198.99 366.636 198.978 366.518 198.978H365.934Z" fill="#FFA412"/>
<path d="M368.144 208.407L368.159 199.986C367.944 199.612 367.619 199.315 367.227 199.134L367.207 209.254C367.6 209.075 367.927 208.779 368.144 208.407Z" fill="#FFA412"/>
<path d="M348.401 188.542L348.375 198.966L349.309 198.969L349.335 188.544L348.401 188.542Z" fill="#FFA412"/>
<path d="M345.516 188.522L344.581 188.519L344.561 198.946H344.793L344.773 209.113H344.544L344.523 219.537L345.458 219.54L345.478 209.355H345.707L345.727 198.931H345.495L345.516 188.522Z" fill="#FFA412"/>
<path d="M338.742 198.913H338.639L338.621 209.339H338.724L338.707 219.525H339.641L339.659 209.101H339.555L339.575 198.933H339.679L339.696 188.506H338.762L338.742 198.913Z" fill="#FFA412"/>
<path d="M331.812 188.031V198.455H332.747V188.031H331.812Z" fill="#FFA412"/>
<path d="M322.406 188.009V198.433H323.34V188.009H322.406Z" fill="#FFA412"/>
<path d="M314.363 188.45L314.336 198.874L315.27 198.876L315.297 188.452L314.363 188.45Z" fill="#FFA412"/>
<path d="M306.475 188.429L306.453 198.853L307.387 198.855L307.409 188.431L306.475 188.429Z" fill="#FFA412"/>
<path d="M356.535 188.546L356.508 198.97L357.442 198.973L357.469 188.549L356.535 188.546Z" fill="#FFA412"/>
<path d="M361.205 188.712L361.188 198.83C361.58 198.652 361.907 198.356 362.122 197.983L362.137 189.562C361.923 189.188 361.597 188.891 361.205 188.712Z" fill="#FFA412"/>
<path d="M388.606 216.506L394.413 217.534C394.853 217.61 395.264 217.803 395.604 218.092C395.933 218.369 396.168 218.742 396.276 219.158C396.308 219.281 396.325 219.408 396.327 219.535C396.332 219.653 396.324 219.771 396.301 219.887L381.875 300.711C381.689 301.754 380.591 302.445 379.405 302.289L379.289 302.272L373.483 301.241L373.367 301.218C372.201 300.967 371.408 299.931 371.604 298.888L386.023 218.064C386.032 218.013 386.043 217.962 386.058 217.911C386.062 217.889 386.068 217.867 386.075 217.846C386.075 217.823 386.091 217.798 386.101 217.775C386.106 217.758 386.113 217.741 386.121 217.725C386.167 217.606 386.227 217.493 386.3 217.388L386.33 217.34L386.365 217.295L386.436 217.207L386.483 217.157C386.496 217.141 386.51 217.127 386.526 217.114C386.551 217.087 386.579 217.059 386.607 217.034L386.71 216.948L386.796 216.886L386.856 216.845C386.918 216.805 386.981 216.768 387.047 216.735L387.108 216.705L387.168 216.677C387.209 216.657 387.251 216.639 387.294 216.624C387.713 216.467 388.166 216.426 388.606 216.506Z" fill="#FFB93E"/>
<path d="M389.569 257.622L381.838 300.922C381.672 301.852 380.579 302.45 379.406 302.289L379.29 302.271L373.483 301.241L373.367 301.218C372.199 300.967 371.391 300.029 371.557 299.099L378.335 261.116H378.587C381.715 261.005 386.023 260.299 389.569 257.622Z" fill="#FFA412"/>
<path d="M384.609 225.934L384.445 226.852L394.725 228.683L394.89 227.765L384.609 225.934Z" fill="#FFA412"/>
<path d="M384.046 229.039L383.883 229.958L394.164 231.784L394.328 230.866L384.046 229.039Z" fill="#FFA412"/>
<path d="M383.367 232.758L383.203 233.676L393.484 235.504L393.648 234.586L383.367 232.758Z" fill="#FFA412"/>
<path d="M382.344 238.472L382.18 239.39L392.46 241.218L392.624 240.3L382.344 238.472Z" fill="#FFA412"/>
<path d="M381.285 244.528L381.121 245.446L391.402 247.272L391.566 246.354L381.285 244.528Z" fill="#FFA412"/>
<path d="M379.664 253.829L379.5 254.747L389.78 256.576L389.944 255.658L379.664 253.829Z" fill="#FFA412"/>
<path d="M378.082 262.47L377.918 263.388L388.199 265.214L388.363 264.296L378.082 262.47Z" fill="#FFA412"/>
<path d="M376.719 270.234L376.555 271.152L386.835 272.983L386.999 272.065L376.719 270.234Z" fill="#FFA412"/>
<path d="M385.117 222.957L384.953 223.875L395.234 225.704L395.398 224.785L385.117 222.957Z" fill="#FFA412"/>
<path d="M385.519 221.048L385.355 221.966L395.636 223.796L395.8 222.878L385.519 221.048Z" fill="#FFA412"/>
<path d="M385.801 219.117L385.637 220.035L395.917 221.863L396.081 220.945L385.801 219.117Z" fill="#FFA412"/>
<path d="M385.918 218.638L396.199 220.46L396.303 219.887C396.325 219.771 396.333 219.653 396.328 219.535L386.117 217.725C386.073 217.835 386.041 217.948 386.021 218.064L385.918 218.638Z" fill="#FFA412"/>
<path d="M386.293 217.388L396.275 219.148C396.167 218.731 395.931 218.358 395.6 218.082L387.29 216.609C386.885 216.759 386.536 217.031 386.293 217.388Z" fill="#FFA412"/>
<path d="M584.619 302.277H549.275C547.382 300.675 550.587 297.033 553.934 296.787C555.389 296.679 557.227 296.98 559.33 297.425C559.816 290.978 562.604 261.983 573.061 263.154C584.831 264.459 573.061 275.918 569.732 282.705C567.27 287.733 564.668 294.939 563.48 298.34C564.437 298.546 565.426 298.75 566.436 298.936C567.995 294.16 573.799 278.073 581.182 279.008C589.847 280.106 586.364 286.549 580.223 290.382C575.715 293.197 570.18 297.196 567.552 299.129C569.834 299.526 572.148 299.711 574.464 299.682C580.517 299.539 583.473 301.319 584.619 302.277Z" fill="#82B378"/>
<path d="M123.798 301.108C122.395 298.906 118.17 293.192 112.544 293.949C106.413 294.773 119.313 298.808 123.264 301.123C122.526 301.162 121.787 301.077 121.078 300.871C118.437 299.931 113.917 301.734 112.469 302.365H137.607C137.32 301.4 136.678 300.58 135.809 300.07C135.399 299.818 134.568 299.783 133.497 299.866C134.991 298.106 136.028 292.486 131.868 293.934C128.829 294.99 128.847 298.423 129.136 300.454C128.489 300.555 127.832 300.658 127.185 300.751C125.926 294.384 121.506 275.722 112.534 275.225C103.439 274.722 120.247 294.58 125.845 300.929C125.127 301.012 124.437 301.078 123.798 301.108Z" fill="#82B378"/>
<path d="M373.061 142.615C387.198 128.503 387.198 105.623 373.061 91.5109C358.924 77.3988 336.004 77.3988 321.867 91.5109C307.73 105.623 307.73 128.503 321.867 142.615C336.004 156.727 358.924 156.727 373.061 142.615Z" fill="#E2810E"/>
<path d="M378.758 126.176C383.757 106.817 372.087 87.0794 352.694 82.0901C333.302 77.1007 313.529 88.7494 308.53 108.108C303.532 127.467 315.202 147.205 334.594 152.194C353.987 157.184 373.76 145.535 378.758 126.176Z" fill="#FFB93E"/>
<path d="M344.959 151.875C339.138 151.887 333.417 150.36 328.377 147.451C323.338 144.541 319.16 140.352 316.267 135.309C313.374 130.266 311.87 124.549 311.907 118.737C311.944 112.926 313.521 107.228 316.477 102.223C319.434 97.2165 323.665 93.0808 328.741 90.2353C333.817 87.3897 339.557 85.9358 345.377 86.0211C351.198 86.1064 356.893 87.728 361.883 90.721C366.873 93.7141 370.981 97.9721 373.789 103.063C382.567 118.961 376.752 139.025 360.826 147.79C355.968 150.471 350.509 151.876 344.959 151.875ZM344.861 87.9807C336.995 87.9783 329.421 90.9522 323.665 96.3031C317.909 101.654 314.399 108.984 313.841 116.816C313.284 124.648 315.722 132.399 320.663 138.509C325.604 144.618 332.681 148.63 340.468 149.737C348.255 150.845 356.172 148.964 362.626 144.475C369.079 139.986 373.588 133.222 375.243 125.547C376.899 117.871 375.579 109.854 371.548 103.112C367.517 96.3692 361.076 91.4024 353.523 89.2124C350.708 88.3973 347.792 87.9827 344.861 87.9807Z" fill="#FFA412"/>
<path d="M353.5 125.137C353.27 124.537 352.934 123.982 352.508 123.499C352.099 123.056 351.595 122.712 351.033 122.493C350.357 122.236 349.647 122.077 348.925 122.023C347.968 121.948 347.007 121.942 346.049 122.005C344.288 122.095 342.523 122.095 340.761 122.005C339.266 121.942 337.787 121.675 336.365 121.211C335.086 120.788 333.91 120.103 332.913 119.2C330.878 117.179 329.726 114.437 329.707 111.571C329.73 110.286 330.025 109.02 330.573 107.856C331.159 106.629 331.96 105.515 332.938 104.568C334.044 103.496 335.308 102.599 336.685 101.906L334.625 96.8439L338.707 95.1899L340.794 100.323C342.243 99.9302 343.747 99.7765 345.246 99.8678C346.629 99.948 347.981 100.305 349.223 100.916C350.465 101.528 351.571 102.383 352.476 103.43C353.502 104.615 354.319 105.967 354.89 107.426L347.515 110.415C346.748 108.523 345.751 107.278 344.526 106.68C343.3 106.082 341.983 106.069 340.573 106.642C339.893 106.9 339.267 107.28 338.724 107.763C338.288 108.16 337.944 108.647 337.717 109.191C337.512 109.711 337.426 110.27 337.465 110.827C337.506 111.424 337.644 112.01 337.876 112.562C338.087 113.104 338.391 113.606 338.775 114.045C339.166 114.468 339.651 114.795 340.19 115C340.87 115.256 341.585 115.412 342.31 115.462C343.315 115.544 344.324 115.565 345.332 115.525C347.23 115.47 348.988 115.492 350.605 115.591C352.099 115.668 353.576 115.945 354.996 116.415C356.344 116.853 357.574 117.593 358.593 118.577C359.611 119.562 360.391 120.765 360.873 122.096C361.415 123.367 361.685 124.737 361.667 126.118C361.636 127.398 361.333 128.658 360.778 129.813C360.18 131.032 359.362 132.13 358.365 133.053C357.236 134.104 355.965 134.992 354.588 135.69L356.504 140.398L352.445 142.042L350.516 137.371C349.062 137.8 347.56 138.048 346.044 138.11C344.571 138.176 343.098 137.964 341.703 137.485C340.272 136.978 338.969 136.166 337.883 135.107C336.72 133.997 335.753 132.497 334.982 130.605L342.355 127.616C342.716 128.584 343.264 129.472 343.969 130.228C344.523 130.808 345.206 131.25 345.964 131.515C346.666 131.751 347.412 131.824 348.147 131.731C348.891 131.641 349.619 131.452 350.312 131.17C351.031 130.895 351.7 130.503 352.292 130.011C352.777 129.606 353.176 129.107 353.463 128.543C353.721 128.028 353.856 127.459 353.858 126.882C353.855 126.283 353.733 125.69 353.5 125.137Z" fill="#FFA412"/>
<path d="M380.735 97.6131C379.224 96.5448 375.784 94.1971 375.608 94.7199C375.479 95.097 375.661 95.7254 376.074 96.4016C373.996 95.6274 371.886 95.1196 366.9 96.0748C366.403 96.1641 365.929 96.3532 365.507 96.6306C365.085 96.9079 364.724 97.2678 364.445 97.6885C363.941 98.4778 363.748 99.4657 365.019 100.257C367.565 101.836 366.827 100.888 370.365 103.191C373.903 105.493 378.232 106.079 380.82 104.463L384.293 103.885L384.723 98.1837C384.723 98.1837 382.731 97.9474 380.735 97.6131Z" fill="#FFB27D"/>
<path d="M471.717 49.7909C471.717 49.7909 463.531 59.486 453.106 55.429C453.106 55.429 450.863 50.0146 450.84 46.023C450.84 45.5202 450.84 45.0552 450.822 44.6027C450.767 40.1084 450.613 37.5872 450.613 37.5872C451.087 37.3886 466.55 31.0517 466.535 31.5796C466.276 43.7406 471.717 49.7909 471.717 49.7909Z" fill="#FFB27D"/>
<path d="M464.989 34.4754C463.498 37.2404 458.381 42.6322 450.814 44.6029C450.759 40.1085 450.605 37.5873 450.605 37.5873C451.046 37.4692 465.432 33.661 464.989 34.4754Z" fill="#ED975D"/>
<path d="M447.368 37.1195C447.368 37.1195 464.758 41.1991 467.138 30.3502C469.517 19.5013 473.365 12.722 462.353 9.6579C451.342 6.59377 448.28 10.2587 446.603 13.6797C444.926 17.1008 442.906 35.7772 447.368 37.1195Z" fill="#FFB27D"/>
<path d="M466.544 33.3064C466.781 33.4598 470.523 34.606 477.608 20.5145C478.721 18.3025 479.479 13.5165 476.886 9.28858C474.292 5.06064 465.099 1.74765 457.461 0.289742C449.824 -1.16817 447.988 3.13267 446.188 7.44608C444.299 11.9706 438.848 15.6984 438.848 15.6984C445.435 19.3733 453.367 14.1198 456.117 14.982C458.866 15.8442 459.836 20.1701 460.042 21.5577C460.249 22.9452 460.566 24.0939 464.021 22.8572C467.476 21.6205 465.585 27.7463 465.028 28.9176C465.031 28.9101 464.56 32.0396 466.544 33.3064Z" fill="#A9453D"/>
<path d="M511.34 303.865H521.868C524.076 303.865 526.529 301.661 527.144 297.621C527.758 293.582 532.293 291.375 533.275 288.069C534.257 284.764 529.228 280.106 529.228 280.106L528.385 279.028L527.511 277.904L519.171 279.862C519.171 279.862 518.965 281.846 518.836 284.369C518.728 286.295 518.716 288.224 518.801 290.151C519.053 294.56 517.565 299.305 513.641 300.165C509.718 301.025 511.34 303.865 511.34 303.865Z" fill="#2C3A64"/>
<path d="M438.035 303.865H465.946C466.15 303.834 466.35 303.776 466.54 303.694C468.403 302.764 467.819 295.65 467.595 293.441C467.552 293.034 467.522 292.795 467.522 292.795C467.522 292.795 457.701 284.957 456.357 290.957C456.314 291.146 456.264 291.329 456.213 291.51C454.508 297.126 446.896 299.675 442.492 300.386C439.131 300.934 438.259 302.897 438.035 303.865Z" fill="#2C3A64"/>
<path d="M443.66 143.195C443.66 143.195 445.151 161.759 446.903 184.072C449.283 214.387 452.149 251.621 452.443 258.675C452.947 270.924 454.898 290.518 454.898 290.518C454.898 290.518 459.557 295.17 468.884 293.21C468.884 293.21 477.193 265.24 479.568 235.647C479.603 235.161 479.64 234.674 479.679 234.184C481.887 204.058 485.319 140.624 485.319 140.624L443.66 143.195Z" fill="#2B478B"/>
<path d="M443.66 143.195C443.66 143.195 445.151 161.759 446.903 184.072L479.555 235.647C479.591 235.161 479.628 234.674 479.666 234.184C481.875 204.058 485.307 140.624 485.307 140.624L443.66 143.195Z" fill="#233862"/>
<path d="M450.469 145.4C450.469 145.4 477.337 212.63 495.001 244.226C512.665 275.823 518.188 284.638 518.188 284.638C518.188 284.638 528.31 280.596 529.229 277.851C529.229 277.851 522.473 216.855 510.643 201.987C503.958 193.584 496.107 168.37 495.739 159.554C495.371 150.739 493.347 133.284 493.347 133.284L450.469 145.4Z" fill="#2B478B"/>
<path d="M511.738 133.184L512.023 137.507C512.023 137.507 509.167 145.189 517.17 149.13C517.17 149.13 520.597 150.51 520.735 147.846C520.874 145.181 520.435 146.184 520.715 142.436C520.994 138.688 519.516 135.147 517.031 133.95L514.994 131.603L511.738 133.184Z" fill="#FFB27D"/>
<path d="M514.864 136.331C511.89 137.286 511.414 137.07 511.414 137.07C511.414 137.07 496.94 110.764 495.475 108.356C494.009 105.948 464.754 78.8587 464.754 78.8587L472.273 50.8643C472.273 50.8643 505.549 93.8903 509.155 100.064C515.095 110.267 518.575 133.96 518.575 133.96C517.563 135.055 516.284 135.872 514.864 136.331Z" fill="#96D9C9"/>
<path d="M437.991 89.851C438.094 95.5997 438.429 102.062 438.88 108.625L438.963 109.794C439.252 113.861 439.564 117.936 439.925 121.91C440.068 123.504 440.222 125.08 440.383 126.626L440.405 126.834C440.405 127.415 440.489 128.043 440.554 128.616C442.02 143.502 443.558 155.261 443.845 155.445C444.178 155.677 444.585 155.78 444.988 155.736C448.901 155.246 460.568 156.131 470.121 154.057C478.179 152.358 485.124 149.14 492.479 144.802C493.456 144.226 495.682 142.7 495.501 141.559C495.322 140.302 494.997 138.495 494.577 136.218C493.129 128.3 490.626 114.678 489.772 98.7368C489.605 95.769 489.365 92.8364 489.052 89.939C488.231 82.4283 486.917 75.2945 485.157 68.9551C481.883 57.1837 477.066 48.1673 471.028 44.6407C470.24 44.1983 465.992 46.9029 462.094 49.3914C458.493 51.6965 454.703 52.3349 451.014 52.0132L447.768 55.5951C443.838 60.1549 439.655 66.2253 438.512 74.8546C438.426 75.4931 438.353 76.1693 438.29 76.8907C437.978 80.4173 437.895 84.8665 437.991 89.851Z" fill="#50BFA5"/>
<path d="M437.991 89.8511C438.094 95.5999 438.429 102.062 438.879 108.626L438.963 109.794C461.303 95.8361 464.745 70.2925 464.745 70.2925C453.754 70.7751 445.024 73.2963 438.293 76.9034C437.978 80.4174 437.895 84.8666 437.991 89.8511Z" fill="#96D9C9"/>
<path d="M381.545 100.845C381.315 97.5375 383.03 96.987 383.03 96.987C383.03 96.987 416.712 90.894 419.575 89.9941C422.438 89.0942 446.924 63.6712 446.924 63.6712C446.924 63.6712 456.309 53.1139 463.992 55.439C470.67 57.465 473.281 62.6657 474.17 67.6201C474.677 70.5095 474.3 73.4844 473.087 76.1563C471.874 78.8282 469.882 81.0727 467.371 82.5964C455.876 89.6346 432.873 103.5 427.444 105.086C415.383 108.618 382.975 105.37 382.975 105.37C382.157 103.991 381.667 102.443 381.545 100.845Z" fill="#96D9C9"/>
<path opacity="0.2" d="M421.178 165.426V290.405C421.168 293.917 419.765 297.282 417.278 299.765C414.79 302.249 411.419 303.649 407.9 303.659H279.209C278.115 303.66 277.025 303.528 275.963 303.264C274.087 302.797 272.331 301.938 270.812 300.744C269.293 299.55 268.045 298.048 267.15 296.337C267.109 296.261 267.072 296.184 267.034 296.106C266.243 294.526 265.775 292.805 265.656 291.043C265.634 290.736 265.621 290.425 265.621 290.111V166.228C265.631 162.781 266.512 159.392 268.18 156.373C269.849 153.355 272.253 150.805 275.17 148.959H275.185C278.477 146.857 280.984 143.731 282.318 140.064C283.652 136.397 283.739 132.393 282.565 128.672H404.224C403.088 132.277 403.134 136.149 404.355 139.726C405.576 143.303 407.908 146.397 411.013 148.56C411.317 148.773 411.632 148.98 411.952 149.171C414.758 150.862 417.082 153.245 418.698 156.092C420.313 158.94 421.168 162.154 421.178 165.426Z" fill="#ED9F4A"/>
<path opacity="0.2" d="M421.178 165.426V290.404C421.168 293.755 419.891 296.978 417.604 299.429C415.316 301.88 412.186 303.379 408.839 303.626C408.529 303.649 408.217 303.659 407.9 303.659H351.243C347.646 303.649 344.199 302.218 341.656 299.68C339.112 297.141 337.679 293.701 337.668 290.11V166.228C337.678 162.781 338.558 159.391 340.227 156.373C341.896 153.355 344.3 150.805 347.217 148.959C350.513 146.859 353.025 143.732 354.362 140.063C355.699 136.395 355.787 132.388 354.612 128.664H404.244C403.05 132.45 403.161 136.526 404.56 140.242C405.958 143.957 408.563 147.098 411.959 149.163C414.765 150.855 417.087 153.241 418.702 156.089C420.317 158.938 421.169 162.153 421.178 165.426Z" fill="#ED9F4A"/>
<path opacity="0.6" d="M411.011 148.56C407.037 146.184 389.821 137.751 346.044 138.121C295.899 138.53 275.812 148.648 275.195 148.962C278.488 146.86 280.995 143.733 282.329 140.066C283.663 136.399 283.75 132.396 282.576 128.674H404.234C403.098 132.277 403.143 136.148 404.361 139.724C405.58 143.301 407.909 146.396 411.011 148.56Z" fill="#ED9F4A"/>
<path d="M406.991 127.79V133.458C406.991 133.725 406.885 133.98 406.696 134.169C406.507 134.357 406.251 134.463 405.984 134.463H280.835C280.568 134.463 280.312 134.357 280.123 134.169C279.934 133.98 279.828 133.725 279.828 133.458V127.79C279.831 127.524 279.939 127.27 280.127 127.082C280.315 126.894 280.569 126.787 280.835 126.784H405.984C406.251 126.784 406.507 126.89 406.696 127.079C406.885 127.267 406.991 127.523 406.991 127.79Z" fill="#2B478B"/>
<path d="M406.991 127.789V133.457C406.991 133.724 406.885 133.98 406.696 134.168C406.507 134.357 406.251 134.463 405.984 134.463H358.609C358.343 134.46 358.088 134.353 357.9 134.165C357.712 133.977 357.605 133.723 357.602 133.457V127.789C357.605 127.524 357.713 127.27 357.901 127.083C358.089 126.895 358.343 126.788 358.609 126.784H405.976C406.109 126.783 406.241 126.808 406.364 126.858C406.487 126.908 406.599 126.982 406.694 127.076C406.788 127.169 406.863 127.28 406.914 127.403C406.965 127.525 406.991 127.657 406.991 127.789Z" fill="#233862"/>
<path d="M323.499 155.849C323.499 155.849 320.274 160.374 317.318 160.444C314.361 160.514 309.862 158.343 309.862 158.343C309.862 158.343 307.147 152.31 308.988 149.94C309.618 149.715 310.296 149.654 310.957 149.763C311.617 149.871 312.24 150.146 312.765 150.56C313.139 150.836 313.477 151.157 313.772 151.516C314.172 152.015 314.713 152.381 315.326 152.566C317.436 153.207 319.939 151.699 320.866 153.155C321.325 153.864 321.874 154.511 322.497 155.082C322.809 155.366 323.144 155.623 323.499 155.849Z" fill="#F9DDBF"/>
<path d="M281.453 188.552C281.453 188.552 292.855 160.977 313.375 160.452C313.375 160.452 332.316 162.553 333.368 188.552H281.453Z" fill="#F9DDBF"/>
<path d="M307.751 161.294C307.751 161.294 315.977 163.121 318.513 162.048C318.513 162.048 318.898 158.614 315.433 159.097C313.064 159.426 311.518 158.287 310.611 157.84C309.325 157.174 307.411 159.871 307.751 161.294Z" fill="#F1A34F"/>
<path d="M314.909 156.118C314.382 156.513 312.766 150.568 312.766 150.568C313.139 150.844 313.478 151.165 313.773 151.523C314.172 152.022 314.714 152.388 315.327 152.574C315.324 152.747 315.42 155.736 314.909 156.118Z" fill="#E5C1A1"/>
<path d="M322.5 155.095C322.384 155.163 318.579 157.438 318.066 157.438C317.552 157.438 320.868 153.165 320.868 153.165C321.328 153.875 321.876 154.523 322.5 155.095Z" fill="#E5C1A1"/>
<path d="M292.602 180.85C292.39 180.669 300.66 168.681 302.948 168.593C305.237 168.505 310.352 171.22 314.061 171.57C317.77 171.919 321.363 170.871 322.066 173.058C322.768 175.245 324.697 183.004 323.514 184.246C322.33 185.488 297.134 184.731 292.602 180.85Z" fill="#E5C1A1"/>
<path opacity="0.5" d="M283.37 294.218C282.71 294.562 282.048 294.891 281.378 295.208C280.744 295.575 280.094 295.935 279.434 296.279C276.442 297.851 273.306 299.132 270.07 300.107C268.887 299.03 267.903 297.754 267.161 296.337C266.658 296.606 266.154 296.867 265.633 297.119V202.824C267.974 203.136 270.293 203.602 272.573 204.219C285.334 207.66 296.698 215.767 303.61 227.687C317.342 251.368 308.279 281.159 283.37 294.218Z" fill="#E2810E"/>
<path d="M291.998 223.969C278.27 199.104 246.945 190.057 222.039 203.764C197.132 217.471 188.067 248.743 201.798 273.608C215.529 298.473 246.852 307.52 271.761 293.813C296.67 280.106 305.73 248.839 291.998 223.969Z" fill="#E2810E"/>
<path d="M269.763 294.853C269.128 295.241 268.483 295.614 267.826 295.975C267.605 296.098 267.383 296.226 267.162 296.334C266.658 296.603 266.154 296.864 265.633 297.116C241.11 309.141 211.197 299.913 197.864 275.77C185.148 252.745 191.984 224.223 212.849 209.246C214.533 208.037 216.288 206.93 218.104 205.931C218.764 205.569 219.429 205.219 220.099 204.89C220.768 204.561 221.403 204.259 222.06 203.968C226.965 201.79 232.181 200.391 237.519 199.82C247.604 198.754 257.78 200.683 266.773 205.364C275.765 210.046 283.173 217.272 288.069 226.138C301.435 250.362 293.199 280.626 269.763 294.853Z" fill="#FFB93E"/>
<path d="M243.329 298.348C238.894 298.344 234.482 297.716 230.223 296.483C218.897 293.183 209.244 285.722 203.208 275.602C197.172 265.482 195.201 253.455 197.693 241.943C200.185 230.43 206.953 220.288 216.636 213.558C226.319 206.829 238.197 204.011 249.877 205.673C261.558 207.335 272.174 213.354 279.587 222.517C287 231.679 290.66 243.305 289.83 255.054C289 266.803 283.741 277.801 275.113 285.834C266.485 293.867 255.128 298.339 243.329 298.348ZM204.621 272.751C209.549 281.675 217.424 288.617 226.905 292.394C236.385 296.172 246.885 296.551 256.614 293.467C266.343 290.383 274.7 284.027 280.261 275.482C285.822 266.937 288.243 256.732 287.111 246.605C285.979 236.478 281.364 227.056 274.054 219.944C266.743 212.833 257.188 208.472 247.017 207.604C236.847 206.737 226.689 209.416 218.276 215.187C209.862 220.957 203.713 229.461 200.877 239.249C199.251 244.803 198.745 250.624 199.387 256.375C200.03 262.125 201.809 267.692 204.621 272.751Z" fill="#FFA412"/>
<path d="M265.953 255.962C265.853 255.711 265.744 255.46 265.634 255.223C264.907 253.542 263.844 252.027 262.511 250.769C261.091 249.479 259.42 248.495 257.601 247.881C255.581 247.21 253.479 246.816 251.354 246.71C249.054 246.569 246.552 246.536 243.85 246.612C242.422 246.668 240.993 246.639 239.569 246.526C238.535 246.453 237.517 246.231 236.547 245.868C235.779 245.575 235.09 245.109 234.533 244.505C233.988 243.882 233.555 243.169 233.254 242.399C232.926 241.612 232.73 240.778 232.672 239.928C232.619 239.135 232.744 238.34 233.039 237.603C233.361 236.828 233.852 236.134 234.475 235.572C235.245 234.884 236.135 234.343 237.101 233.975C239.116 233.161 240.991 233.179 242.727 234.028C244.462 234.878 245.88 236.649 246.98 239.342L257.472 235.092C256.66 233.015 255.498 231.092 254.038 229.406C252.75 227.917 251.176 226.702 249.409 225.832C247.642 224.962 245.718 224.455 243.751 224.341C241.62 224.208 239.481 224.426 237.421 224.987L234.435 217.685L228.643 220.037L231.566 227.236C229.608 228.224 227.81 229.501 226.233 231.024C224.845 232.372 223.708 233.955 222.874 235.7C222.096 237.353 221.674 239.152 221.638 240.979C221.616 242.911 221.993 244.826 222.746 246.607C223.639 248.807 224.791 250.549 226.203 251.832C227.622 253.12 229.294 254.098 231.113 254.703C233.136 255.363 235.239 255.744 237.366 255.834C239.871 255.961 242.382 255.961 244.887 255.834C246.25 255.742 247.618 255.751 248.979 255.862C250.006 255.937 251.016 256.16 251.978 256.525C252.777 256.834 253.496 257.32 254.078 257.948C254.684 258.635 255.162 259.424 255.491 260.278C255.822 261.064 255.993 261.907 255.994 262.759C255.995 263.58 255.804 264.39 255.435 265.125C255.026 265.925 254.459 266.636 253.768 267.213C252.925 267.912 251.973 268.469 250.951 268.862C249.964 269.263 248.928 269.532 247.871 269.662C246.826 269.792 245.765 269.685 244.766 269.35C243.688 268.973 242.716 268.346 241.928 267.52C241.047 266.639 240.282 265.4 239.634 263.805L229.147 268.061C230.239 270.742 231.615 272.876 233.274 274.463C234.82 275.972 236.677 277.126 238.715 277.846C240.699 278.529 242.795 278.831 244.892 278.736C247.048 278.649 249.184 278.296 251.253 277.685L253.962 284.351L259.734 282.011L257.009 275.315C258.973 274.322 260.787 273.059 262.398 271.562C263.713 270.343 264.811 268.91 265.646 267.324C265.712 267.203 265.772 267.073 265.83 266.955C266.619 265.312 267.048 263.52 267.089 261.698C267.114 259.728 266.728 257.775 265.953 255.962Z" fill="#FFA412"/>
<path d="M204.701 69.9705C204.857 69.3421 190.985 76.2294 190.28 77.0087C183.773 84.2103 185.629 93.6163 189.361 93.7068C191.748 93.7646 191.284 97.7286 191.284 97.7286L217.885 86.4951C217.885 86.4951 214.677 67.8489 204.701 69.9705Z" fill="#2C3A64"/>
<path d="M207.976 71.4256C207.976 71.4256 208.928 61.0845 197.347 61.0845C197.347 61.0845 200.857 62.0346 202.673 63.9349C202.673 63.9349 195.287 59.6064 187.25 66.2575C179.212 72.9086 184.208 89.5816 181.763 92.7564C179.318 95.9311 169.802 96.557 170.965 106.795C172.129 117.033 201.17 129.85 199.306 138.321C199.306 138.321 210.686 121.623 202.547 113.999C202.547 113.999 206.516 117.729 206.919 122.163C206.919 122.163 207.996 113.506 202.477 110.739C197.594 108.288 193.595 99.3295 194.018 97.7284C194.441 96.1272 207.976 71.4256 207.976 71.4256Z" fill="#2C3A64"/>
<path d="M197.463 120.093C195.678 111.511 184.53 108.849 179.255 115.857C178.253 117.171 177.62 118.728 177.422 120.367C176.218 130.11 191.82 169.79 194.056 173.382C198.123 179.925 222.08 202.352 222.08 202.352L226.494 199.68C226.494 199.68 209.504 170.959 206.871 168.272C203.829 165.165 200.852 136.389 197.463 120.093Z" fill="#ED985F"/>
<path d="M220.398 199.687C220.398 199.687 226.842 195.464 229.282 195.735C231.722 196.007 238.783 198.035 238.869 199.071C238.954 200.106 231.002 200.755 230.468 201.321C229.934 201.886 224.533 205.486 222.577 204.362C220.62 203.238 220.398 199.687 220.398 199.687Z" fill="#ED985F"/>
<path d="M175.453 295.105L169.697 294.263C169.697 294.263 150.33 278.905 147.46 250.254C147.158 247.311 147.111 244.347 147.321 241.396C147.364 241.057 147.293 240.713 147.12 240.418C146.5 239.468 144.957 237.095 142.869 233.717C140.812 230.389 137.292 224.097 133.417 217.039C126.439 204.325 118.308 189.12 115.538 184.276C106.657 168.842 110.938 158.463 110.938 158.463C110.938 158.463 135.713 156.02 142.499 150.09L144.944 153.861C144.944 153.861 150.313 177.582 150.059 177.69C150.322 178.496 150.591 179.318 150.864 180.156C155.102 193.207 159.975 209.52 162.631 222.805C164.122 230.281 164.915 236.793 164.49 241.23C164.344 242.753 164.52 245.091 164.928 247.982C167.307 264.989 175.453 295.105 175.453 295.105Z" fill="#2B478B"/>
<path d="M187.529 302.374H163.511C163.511 302.374 162.935 298.719 164.189 295.947C165.392 293.287 167.105 293.202 164.408 289.034C165.934 290.603 170.841 291.251 174.314 290.794C174.739 291.482 177.056 296.103 178.476 297.121C180.042 298.237 187.045 297.837 187.529 302.374Z" fill="#233862"/>
<path d="M150.844 180.141C148.746 191.703 143.793 210.913 133.409 217.031C126.431 204.317 118.3 189.112 115.53 184.268C106.649 168.834 110.93 158.455 110.93 158.455C110.93 158.455 135.705 156.012 142.491 150.083L144.936 153.853C144.936 153.853 150.305 177.574 150.051 177.682C150.306 178.485 150.57 179.304 150.844 180.141Z" fill="#233862"/>
<path d="M194.899 114.769C194.899 114.769 198.296 118.288 199.847 122.516C199.847 122.516 194.43 138.045 181.77 139.99C181.762 139.99 191.779 114.761 194.899 114.769Z" fill="#ED7D2B"/>
<path d="M134 160.24L134.081 155.756C125.132 156.882 103.224 145.081 103.224 145.081C103.224 145.081 93.8597 151.297 92.5805 169.048C91.9535 177.718 87.9951 214.359 87.5595 225.301C87.3983 229.268 87.3454 232.088 87.3278 233.229C87.3072 233.57 87.1734 233.895 86.9476 234.152C85.1163 236.484 83.4902 238.97 82.0877 241.582C68.4321 266.947 75.5734 301.407 75.5734 301.407L78.7462 300.6C78.7462 300.6 90.2916 264.873 97.8383 249.419C99.12 246.798 100.283 244.759 101.258 243.58C104.096 240.139 107.087 234.295 110.036 227.264C115.611 213.972 121.025 196.429 124.893 182.848C125.167 182.901 134 160.24 134 160.24Z" fill="#2B478B"/>
<path d="M186.376 130.313C171.744 126.962 181.088 106.433 181.939 106.8C183.966 106.388 188.418 102.834 192.402 95.896L192.938 96.361L201.925 104.226C201.925 104.226 199.848 107.285 198.1 110.279C196.736 112.627 195.582 114.937 195.759 115.729C196.481 116.297 190.277 131.215 186.376 130.313Z" fill="#FFB27D"/>
<path d="M201.927 104.229C201.927 104.229 199.849 107.283 198.102 110.282C192.514 106.846 192.509 99.9407 192.94 96.3638L201.927 104.229Z" fill="#ED985F"/>
<path d="M202.173 108.168C202.173 108.168 188.608 100.627 193.438 92.2717C198.268 83.9164 199.771 77.308 208.637 81.7647C217.503 86.2214 217.327 90.3739 216.393 93.5562C215.459 96.7385 205.827 109.912 202.173 108.168Z" fill="#FFB27D"/>
<path d="M218.684 88.6794C218.065 84.9668 216.166 84.6124 214.857 84.8612C209.848 76.5888 201.664 79.8163 201.664 79.8163C197.293 85.2935 190.973 86.2211 190.973 86.2211C190.973 86.2211 192.546 89.1445 199.031 90.9543C201.01 91.5073 203.258 91.173 205.429 90.4515C202.532 92.0183 199.435 93.1836 196.223 93.9153C204.769 94.6971 212.903 86.8947 213.746 86.0602C214.139 87.2693 214.831 89.8005 214.416 91.6506C213.854 94.1642 211.618 98.7189 212.983 99.3071C212.986 99.3071 219.618 94.2446 218.684 88.6794Z" fill="#2C3A64"/>
<path d="M94.6788 302.374H70.6663C70.6663 302.374 70.0922 298.719 71.3462 295.947C72.5473 293.287 74.4309 292.078 73.9801 288.861C75.5061 290.429 77.9939 292.186 81.4639 291.719C81.8894 292.408 84.2111 296.093 85.6313 297.111C87.2026 298.237 94.2003 297.837 94.6788 302.374Z" fill="#233862"/>
<path d="M188.1 146.584C185.01 147.66 180.672 148.248 176.235 148.73C169.919 149.419 163.393 149.889 159.986 151.244C158.727 151.747 157.906 152.353 157.646 153.134C156.166 157.578 149.641 164.446 149.641 164.446C107.821 162.545 103.23 145.091 103.23 145.091C131.36 112.421 179.002 102.967 179.002 102.967C179.002 102.967 182.404 101.527 190.973 108.324C196.692 112.863 195.939 114.608 195.939 114.608C195.939 114.608 197.19 143.417 188.1 146.584Z" fill="#F99746"/>
<path d="M176.229 148.731C169.913 149.419 163.387 149.889 159.98 151.244C158.582 130.424 168.425 114.764 168.425 114.764C168.425 114.764 174.846 140.85 176.229 148.731Z" fill="#ED7D2B"/>
<path d="M182.734 110.739C182.734 110.739 166.905 112.3 165.636 122.553C164.367 132.807 180.8 174.649 183.165 178.434C187.445 185.327 212.697 208.955 212.697 208.955L217.35 206.14C217.35 206.14 199.434 175.88 196.664 173.047C192.32 168.603 188.103 114.296 182.734 110.739Z" fill="#FFB27D"/>
<path d="M166.092 128.742C166.132 128.976 180.697 133.493 190.071 128.742C190.071 128.742 192.086 107.153 180.885 108.326C169.685 109.5 163.067 113.014 162.785 118.363C162.503 123.712 166.092 128.742 166.092 128.742Z" fill="#F99746"/>
<path d="M211.266 205.953C211.266 205.953 216.944 200.75 219.394 200.624C221.844 200.499 229.142 201.378 229.393 202.384C229.645 203.389 221.902 205.31 221.466 205.953C221.031 206.597 216.282 211.018 214.164 210.226C212.046 209.435 211.266 205.953 211.266 205.953Z" fill="#FFB27D"/>
</svg>
