<svg width="400" height="319" viewBox="0 0 400 319" fill="none" xmlns="http://www.w3.org/2000/svg">
<path d="M97.7781 210.582C96.8409 210.582 96.0777 211.66 96.0742 212.997C96.0707 214.334 96.8286 215.417 97.7658 215.421C98.703 215.424 99.4644 214.341 99.4679 213.006C99.4714 211.671 98.7153 210.584 97.7781 210.582ZM97.7781 211.266C98.281 211.266 98.6872 211.52 98.6872 211.827C98.6872 212.135 98.2775 212.387 97.7746 212.387C97.2717 212.387 96.8637 212.133 96.8655 211.824C96.8673 211.514 97.2717 211.265 97.7763 211.266H97.7781ZM97.7781 214.513C97.0748 214.513 96.4945 214.123 96.4962 213.646C96.498 213.169 97.073 212.782 97.7816 212.784C98.4903 212.786 99.067 213.175 99.0652 213.651C99.0635 214.128 98.4709 214.515 97.7676 214.513H97.7781Z" fill="#466EB6"/>
<path d="M93.9232 215.924C93.5677 216.693 93.3818 217.529 93.3781 218.376L93.3359 236.087C93.3392 236.602 93.5462 237.095 93.9116 237.457C94.2771 237.82 94.7712 238.023 95.286 238.022L105.411 238.047C105.927 238.05 106.424 237.848 106.791 237.485C107.159 237.122 107.367 236.628 107.371 236.112L107.415 218.401C107.419 217.552 107.239 216.712 106.888 215.938L93.9232 215.924Z" fill="#7F1CA0"/>
<path d="M93.9232 215.924C93.5677 216.693 93.3818 217.529 93.3781 218.376L93.3359 236.087C93.3392 236.602 93.5462 237.095 93.9116 237.457C94.2771 237.82 94.7712 238.023 95.286 238.022L105.411 238.047C105.927 238.05 106.424 237.848 106.791 237.485C107.159 237.122 107.367 236.628 107.371 236.112L107.415 218.401C107.419 217.552 107.239 216.712 106.888 215.938L93.9232 215.924Z" fill="#7F1CA0"/>
<path d="M107.415 218.409L107.373 236.122C107.369 236.639 107.161 237.133 106.793 237.495C106.425 237.858 105.929 238.06 105.412 238.057L95.2877 238.032C94.7727 238.034 94.2781 237.831 93.9123 237.468C93.5464 237.106 93.3392 236.613 93.3359 236.097L93.3799 218.385C93.3824 217.538 93.5684 216.702 93.925 215.935L106.881 215.966C107.233 216.732 107.416 217.566 107.415 218.409V218.409Z" fill="#F47458"/>
<path d="M96.0192 236.094L96.0632 218.381C96.0662 217.535 96.2521 216.699 96.6083 215.931H93.9232C93.5677 216.7 93.3818 217.536 93.3781 218.383L93.3359 236.094C93.3392 236.609 93.5462 237.102 93.9116 237.464C94.2771 237.827 94.7712 238.03 95.286 238.029H97.971C97.456 238.03 96.9614 237.827 96.5955 237.465C96.2297 237.102 96.0225 236.609 96.0192 236.094V236.094Z" fill="#F48C7F"/>
<path d="M107.415 218.409L107.373 236.122C107.369 236.639 107.161 237.133 106.793 237.495C106.426 237.858 105.929 238.06 105.413 238.057L101.273 238.046C101.531 238.049 101.786 238.002 102.024 237.906C102.263 237.811 102.481 237.669 102.665 237.49C102.848 237.31 102.995 237.096 103.096 236.859C103.197 236.623 103.251 236.369 103.253 236.111L103.297 218.399C103.297 217.552 103.113 216.715 102.757 215.947H106.881C107.236 216.719 107.419 217.559 107.415 218.409V218.409Z" fill="#B75742"/>
<path d="M106.885 215.956L93.9258 215.924C93.9281 215.651 94.0386 215.39 94.2331 215.198C94.4275 215.006 94.6901 214.899 94.9632 214.9L105.851 214.929C105.986 214.928 106.12 214.954 106.246 215.006C106.371 215.057 106.485 215.133 106.581 215.228C106.677 215.323 106.753 215.437 106.805 215.562C106.857 215.687 106.884 215.82 106.885 215.956V215.956Z" fill="#13375B"/>
<path d="M93.3452 232.589L93.3398 234.789L107.375 234.823L107.38 232.623L93.3452 232.589Z" fill="#355389"/>
<path d="M81.1743 210.222H82.7217C82.4515 210.04 82.1329 209.944 81.8073 209.945H43.0248C40.9956 209.945 39.3516 211.404 39.3516 213.203V215.271C39.3516 217.071 40.9956 218.529 43.0248 218.529L81.373 218.518L81.1743 210.222Z" fill="#86B1F2"/>
<path d="M59.1535 209.952C57.2192 209.952 55.6367 211.347 55.6367 213.068V215.407C55.6367 217.127 57.2192 218.522 59.1535 218.522H83.2958V217.994H83.1974L77.0589 217.479L75.8192 213.164C75.8192 213.164 78.2124 210.779 78.3689 210.718C78.5254 210.656 83.1974 210.47 83.1974 210.47H83.2958V209.942L59.1535 209.952Z" fill="#466EB6"/>
<path d="M81.7318 214.221C81.7318 211.699 83.2018 210.475 83.2018 210.475H59.6485C57.8673 210.475 56.4219 211.757 56.4219 213.336V215.138C56.4219 216.721 57.8673 217.998 59.6485 217.998H83.2018C83.2018 217.998 81.7318 217.407 81.7318 214.221Z" fill="#FAE0B2"/>
<g style="mix-blend-mode:multiply">
<path d="M56.4219 213.336V215.138C56.4221 215.37 56.4541 215.6 56.5168 215.824C57.3099 214.1 58.8326 212.439 61.7304 211.906C68.4983 210.659 83.2018 210.475 83.2018 210.475H59.6485C57.8673 210.475 56.4219 211.757 56.4219 213.336Z" fill="#DAEEF7"/>
</g>
<path d="M80.5362 227.38H82.2946C81.997 227.153 81.6333 227.029 81.2589 227.028H37.356C36.8153 227.023 36.2788 227.124 35.7772 227.326C35.2757 227.528 34.8188 227.827 34.4328 228.206C34.0468 228.585 33.7391 229.036 33.5275 229.534C33.3158 230.032 33.2043 230.566 33.1992 231.107V233.696C33.2045 234.237 33.3162 234.771 33.528 235.269C33.7397 235.767 34.0474 236.217 34.4334 236.596C34.8194 236.975 35.2762 237.274 35.7776 237.476C36.2791 237.678 36.8154 237.779 37.356 237.773L80.7595 237.759L80.5362 227.38Z" fill="#50BFA5"/>
<path d="M55.6141 227.044C55.0965 227.039 54.5828 227.136 54.1027 227.33C53.6225 227.523 53.1852 227.81 52.8158 228.173C52.4464 228.535 52.1521 228.968 51.9498 229.444C51.7475 229.921 51.6411 230.433 51.6367 230.951V233.878C51.6474 234.922 52.0724 235.92 52.8183 236.651C53.5641 237.383 54.5698 237.788 55.6141 237.777H82.9374V237.123H82.8214L75.8758 236.477L74.4691 231.076C74.4691 231.076 77.1788 228.085 77.3563 228.013C77.5339 227.941 82.8214 227.697 82.8214 227.697H82.9339V227.046L55.6141 227.044Z" fill="#3C8F7C"/>
<path d="M81.169 232.388C81.169 229.222 82.8324 227.698 82.8324 227.698H56.1756C55.2166 227.689 54.2931 228.061 53.6083 228.733C52.9234 229.404 52.5332 230.32 52.5234 231.28V233.533C52.528 234.008 52.6261 234.478 52.8122 234.915C52.9982 235.352 53.2685 235.748 53.6076 236.081C53.9468 236.414 54.3481 236.676 54.7887 236.854C55.2293 237.031 55.7006 237.12 56.1756 237.116H82.8324C82.8324 237.116 81.169 236.365 81.169 232.388Z" fill="#FAE0B2"/>
<g style="mix-blend-mode:multiply">
<path d="M52.5234 231.28V233.533C52.5234 233.823 52.5588 234.112 52.6289 234.393C53.5275 232.235 55.2507 230.157 58.5318 229.489C66.1895 227.929 82.8324 227.698 82.8324 227.698H56.1756C55.2166 227.689 54.2931 228.061 53.6083 228.733C52.9234 229.404 52.5332 230.32 52.5234 231.28V231.28Z" fill="#DAEEF7"/>
</g>
<path d="M31.7545 218.782H29.9961C30.3102 218.599 30.6681 218.504 31.0318 218.508H74.947C77.2452 218.508 79.1073 219.956 79.1073 221.743V223.799C79.1073 225.586 77.2452 227.034 74.947 227.034L31.5276 227.023L31.7545 218.782Z" fill="#F47458"/>
<path d="M56.6793 218.515C58.8773 218.515 60.6585 219.901 60.6585 221.609V223.933C60.6585 225.641 58.8773 227.027 56.6793 227.027H29.3438V226.499H29.4563L36.4071 225.987L37.8138 221.701C37.8138 221.701 35.1042 219.331 34.9266 219.271C34.749 219.212 29.4598 219.023 29.4598 219.023H29.3473V218.506L56.6793 218.515Z" fill="#B75742"/>
<path d="M31.1253 222.756C31.1253 220.249 29.4619 219.036 29.4619 219.036H56.1205C58.1374 219.036 59.7744 220.307 59.7744 221.876V223.665C59.7744 225.234 58.1374 226.508 56.1205 226.508H29.4531C29.4531 226.508 31.1253 225.911 31.1253 222.756Z" fill="#FAE0B2"/>
<g style="mix-blend-mode:multiply">
<path d="M59.7744 221.876V223.665C59.7744 223.896 59.7382 224.126 59.6672 224.346C58.7686 222.634 57.0437 220.986 53.7626 220.455C46.1013 219.224 29.4531 219.036 29.4531 219.036H56.1205C58.1374 219.036 59.7744 220.307 59.7744 221.876Z" fill="#DAEEF7"/>
</g>
<path d="M192.941 223.349L188.824 222.568L170.948 316.935L175.065 317.715L192.941 223.349Z" fill="#184655"/>
<path d="M311.631 318.159H316.582L298.128 222.567L294.012 223.347L311.631 318.159Z" fill="#184655"/>
<path d="M220.974 318.159H225.926L207.472 222.567L203.355 223.347L220.974 318.159Z" fill="#184655"/>
<path d="M266.512 318.159L262.492 318.207L280.183 222.997L284.301 223.776L266.512 318.159Z" fill="#184655"/>
<path d="M248.551 93.8266C264.853 95.5732 285.949 97.4166 307.127 133.368C330.274 172.661 318.091 231.357 299.821 247.661C281.552 263.964 221.882 284.11 171.722 253.959C171.722 253.959 141.436 235.689 156.98 205.365C180.894 158.7 177.52 148.97 188.214 130.682C198.909 112.394 213.948 90.1205 248.551 93.8266Z" fill="#FAE0B2"/>
<path d="M307.13 133.368C292.674 108.829 278.259 100.184 265.379 96.606C270.361 101.763 275.402 108.391 280.466 116.98C303.613 156.273 291.429 214.969 273.16 231.28C256.958 245.744 208.199 263.214 162.383 245.957C167.092 251.17 171.721 253.963 171.721 253.963C221.881 284.113 281.551 263.975 299.82 247.664C318.09 231.354 330.277 172.661 307.13 133.368Z" fill="#F7CC7F"/>
<path d="M22.3858 121.678C21.9251 125.322 25.7267 128.216 29.0939 127.987C32.8252 127.736 35.9903 124.675 36.5353 121.008C37.1262 117.038 34.7418 113.863 31.0528 113.573C27.4622 113.29 25.164 116.487 26.2014 119.713C26.9452 122.026 29.0553 122.879 30.1191 122.25C30.9473 121.752 30.898 120.491 29.894 120.276C29.6977 120.244 29.4962 120.269 29.3136 120.347C29.1309 120.426 28.9748 120.556 28.8636 120.721C27.9844 120.369 27.151 118.772 27.7171 117.045C28.4416 114.839 31.2339 114.712 32.9624 115.741C35.1656 117.052 35.512 119.872 34.7031 122.119C33.8556 124.478 31.5381 126.341 29.0166 126.517C27.6359 126.606 26.2754 126.15 25.2281 125.245C24.1809 124.341 23.5308 123.061 23.4179 121.681C23.4107 121.55 23.3534 121.426 23.2578 121.335C23.1622 121.244 23.0354 121.193 22.9035 121.193C22.7716 121.192 22.6445 121.242 22.5483 121.332C22.452 121.423 22.3939 121.546 22.3858 121.678V121.678Z" fill="#F48C7F"/>
<path d="M273.575 0.000896341C256.695 -0.0993637 242.979 8.22398 242.914 18.5912C242.883 23.7748 246.275 28.4888 251.783 31.9188L244.845 47.1636L259.325 35.3663C263.862 36.8067 268.592 37.5417 273.352 37.5456C290.232 37.6459 303.947 29.3226 304.012 18.9536C304.077 8.58456 290.446 0.101156 273.575 0.000896341Z" fill="#FAE0B2"/>
<path d="M261.884 20.5614C262.422 22.5981 263.551 24.4296 265.129 25.8244C266.706 27.2192 268.662 28.1147 270.749 28.3977C272.835 28.6806 274.959 28.3383 276.851 27.414C278.743 26.4897 280.319 25.025 281.379 23.205C282.439 21.385 282.935 19.2914 282.806 17.1891C282.676 15.0867 281.927 13.0699 280.651 11.3938C279.376 9.71765 277.633 8.45738 275.642 7.77235C273.65 7.08732 271.501 7.00828 269.465 7.54524C268.112 7.90142 266.843 8.52075 265.73 9.36781C264.617 10.2149 263.682 11.273 262.978 12.4819C262.274 13.6907 261.815 15.0265 261.627 16.4128C261.44 17.7991 261.527 19.2089 261.884 20.5614V20.5614Z" fill="#F7CC7F"/>
<path d="M278.112 18.0269C278.303 18.7503 278.349 19.5043 278.249 20.2457C278.148 20.9871 277.903 21.7014 277.526 22.3479C277.15 22.9943 276.649 23.5603 276.054 24.0134C275.459 24.4665 274.781 24.798 274.057 24.9888C273.334 25.1796 272.58 25.226 271.839 25.1254C271.098 25.0248 270.384 24.7792 269.738 24.4026C269.091 24.0259 268.526 23.5256 268.073 22.9303C267.62 22.3349 267.288 21.6561 267.098 20.9326L278.112 18.0269Z" fill="#EFEFEF"/>
<path d="M99.4181 147.204L145.999 146.852C146.508 146.846 146.995 146.64 147.353 146.278C147.711 145.916 147.912 145.427 147.912 144.917L147.678 113.764C147.673 113.255 147.466 112.768 147.104 112.41C146.742 112.052 146.253 111.851 145.744 111.851L99.1613 112.202C98.6523 112.208 98.1662 112.415 97.8084 112.777C97.4506 113.139 97.25 113.628 97.25 114.137L97.4768 145.29C97.4824 145.801 97.6896 146.288 98.0533 146.647C98.4169 147.005 98.9075 147.206 99.4181 147.204Z" fill="#F47458"/>
<path d="M146.248 129.174L161.289 144.507L142.734 141.044L146.248 129.174Z" fill="#F47458"/>
<path d="M132.678 127.014L128.152 126.934C128.152 126.934 122.449 122.673 122.274 121.166C122.098 119.659 123.035 116.475 122.15 116.065C121.266 115.655 119.392 115.349 118.208 117.344C117.348 118.79 118.064 124.074 117.531 124.427C117.199 124.649 114.597 124.675 112.694 124.665C112.08 124.66 111.477 124.824 110.95 125.139C110.423 125.454 109.992 125.907 109.705 126.45V126.45C109.513 126.812 109.451 127.23 109.529 127.632C109.608 128.035 109.823 128.398 110.137 128.661L111.147 129.505L110.352 130.561C110.069 130.939 109.948 131.414 110.013 131.882C110.079 132.35 110.327 132.773 110.704 133.058L111.502 133.667L110.955 134.304C110.791 134.493 110.668 134.714 110.594 134.953C110.521 135.193 110.498 135.445 110.528 135.694C110.558 135.942 110.64 136.182 110.768 136.397C110.897 136.612 111.069 136.798 111.273 136.942L111.977 137.438L111.871 137.635C111.657 138.028 111.599 138.487 111.707 138.922C111.815 139.356 112.082 139.734 112.455 139.981L113.167 140.453L125.222 140.666C126.352 140.687 127.473 140.476 128.518 140.047L132.771 139.42C132.992 139.387 133.194 139.276 133.34 139.107C133.486 138.938 133.567 138.722 133.568 138.499L133.594 127.945C133.594 127.701 133.497 127.466 133.326 127.292C133.155 127.118 132.922 127.019 132.678 127.014V127.014Z" fill="white"/>
<path d="M196.214 153.552L192.023 166.127L204.793 161.101L196.214 153.552Z" fill="#F79C8D"/>
<path d="M209.38 116.132C208.527 116.167 206.196 116.946 202.785 123.373C198.427 131.581 192.059 156.375 192.059 156.375L211.063 163.43L213.504 158.255L217.525 118.415C217.525 118.415 209.616 116.123 209.38 116.132Z" fill="#042A44"/>
<path d="M234.5 112.56C229.065 112.56 215.618 114.143 209.378 116.136C209.378 116.136 204.792 155.42 213.505 185.262C215.455 191.946 211.892 212.964 211.892 212.964L268.206 212.222C268.206 212.222 261.535 161.418 264.047 153.205C266.56 144.993 266.62 116.394 266.62 116.394C266.62 116.394 266.235 116.334 253.96 114.22C248.247 113.239 240.302 112.551 234.5 112.56Z" fill="#07345A"/>
<path d="M241.065 285.886C241.065 285.886 239.818 300.222 237.527 304.192C235.236 308.162 237.648 314.909 237.769 315.836C237.891 316.763 242.591 318.084 250.066 317.29C257.54 316.497 257.419 314.777 256.816 311.998C256.213 309.219 252.244 305.646 251.995 303.001C251.745 300.355 254.28 290.827 254.28 290.827L241.065 285.886Z" fill="#F7A491"/>
<path d="M218.246 201.14C218.246 201.14 179.374 198.989 170.692 204.229C162.011 209.469 172.263 220.235 172.263 220.235C172.263 220.235 203.913 233.955 256.891 237C269.437 237.721 270.518 204.387 268.173 201.629C265.827 198.871 218.246 201.14 218.246 201.14Z" fill="#327F6B"/>
<path d="M250.995 318.404C258.691 317.586 257.74 313.817 257.119 310.955C256.731 309.163 254.522 307.052 253.207 305.054C252.518 305.599 251.399 306.565 248.057 307.548C244.586 308.572 239.827 306.549 236.803 305.281C235.722 309.291 235.672 314.403 235.774 315.178C235.89 316.133 243.298 319.22 250.995 318.404Z" fill="#355389"/>
<path d="M246.748 228.865C245.195 240.581 237.504 298.906 237.504 298.906L255.348 301.112C255.348 301.112 277.289 224.983 276.163 213.34C275.038 201.698 266.825 200.716 266.825 200.716C266.825 200.716 250.859 197.849 246.748 228.865Z" fill="#3C8F7C"/>
<path d="M229.654 62.9958C229.654 62.9958 235.583 56.7445 240.35 64.3502C240.35 64.3502 244.023 62.2869 246.601 65.9614C246.601 65.9614 253.237 63.9632 254.849 73.889C254.849 73.889 258.264 73.2452 258.718 77.3066C259.171 81.368 257.107 84.0733 257.107 84.0733C257.107 84.0733 259.025 85.5121 258.162 89.2463C257.42 92.4124 254.795 92.9049 254.795 92.9049C254.795 92.9049 254.091 98.2539 251.767 99.8651C249.442 101.476 246.289 100.704 246.289 100.704C246.289 100.704 245.451 103.605 242.745 103.343C240.038 103.08 236.678 100.511 233.649 101.668C230.619 102.825 222.759 101.605 222.759 101.605C222.759 101.605 213.932 97.6717 216.573 88.6483C216.573 88.6483 211.934 84.4585 215.993 79.4314C215.993 79.4314 213.03 71.5671 218.892 66.927C224.755 62.2869 229.654 62.9958 229.654 62.9958Z" fill="#07345A"/>
<path d="M230.659 105.444L229.586 113.409C229.586 113.409 227.181 124.883 230.274 127.094C233.367 129.305 243.427 113.082 243.427 113.082L242.372 92.9014L230.659 105.444Z" fill="#F7A491"/>
<path d="M242.705 99.4411C240.15 106.324 234.066 110.556 229.746 112.197L230.657 105.444L242.362 92.9014L242.705 99.4411Z" fill="#F47458"/>
<path d="M235.217 71.7009C228.941 69.5391 222.25 73.7096 221.294 80.1808C220.789 83.5648 220.501 86.9777 220.43 90.3985C220.255 99.6998 225.074 108.753 229.296 108.753C233.518 108.753 245.188 102.732 245.61 89.526C245.872 81.3733 241.803 73.9682 235.217 71.7009Z" fill="#F7A491"/>
<path d="M242.5 90.5708C242.5 92.6235 243.859 94.2857 245.537 94.2857C247.214 94.2857 248.575 92.6235 248.575 90.5708C248.575 88.5182 247.214 86.856 245.537 86.856C243.859 86.856 242.5 88.5182 242.5 90.5708Z" fill="#F7A491"/>
<path d="M216.924 67.0716C212.562 70.528 211.034 75.7802 213.51 78.8021C215.985 81.8239 221.529 81.4722 225.89 78.0158C230.251 74.5595 231.781 69.3073 229.305 66.2854C226.829 63.2635 221.285 63.6153 216.924 67.0716Z" fill="#07345A"/>
<path d="M267.234 120.765C261.959 118.797 259.393 166.091 258.683 185.559C249.364 186.453 233.107 185.56 229.06 185.262C227.157 185.12 222.77 183.517 220.876 183.271C218.942 183.018 217.184 182.886 216.225 183.051C215.874 183.111 206.157 187.074 205.324 187.943C204.291 189.021 201.504 191.739 201.983 192.914C202.461 194.089 207.344 189.639 207.344 189.639L209.734 188.302C206.758 191.2 201.082 195.016 201.9 196.405C202.698 197.761 207.817 193.888 211.466 191.248C208.336 194.062 204.448 199.109 205.343 199.895C206.148 200.598 210.571 194.764 215.297 193.083C217.055 192.46 218.794 194.185 220.171 194.393C221.184 194.546 222.747 194.873 223.741 194.592L228.858 193.144C230.602 193.302 230.646 194.33 232.406 194.704C234.449 195.137 237.802 195.594 240.405 196.228C255.391 199.877 260.39 201.573 264.978 201.571C278.879 201.562 279.678 125.414 267.234 120.765Z" fill="#F7A491"/>
<path d="M277.225 165.166C278.212 145.225 278.067 120.649 266.851 116.456C262.427 114.801 254.627 124.749 256.03 165.571C262.021 166.065 270.809 166.463 277.225 165.166Z" fill="#07345A"/>
<path d="M214.496 156.6H215.639L232.82 198.693L231.637 198.514L214.496 156.6Z" fill="#F79C8D"/>
<path d="M188.887 298.143C188.887 298.143 190.445 303.119 187.656 306.41C184.867 309.701 173.285 312.93 171.764 314.712C170.243 316.494 170.357 318.012 170.357 318.012L202.87 317.12L202.518 307.331L201.02 300.296L188.887 298.143Z" fill="#F7A491"/>
<path d="M185.636 308.056C185.636 308.056 193.99 311.425 198.025 309.43C202.061 307.435 201.94 306.883 203.107 307.627C204.275 308.371 204.69 317.547 204.69 317.547L168.13 318.619C165.585 318.561 164.3 316.684 166.371 315.101C167.778 314.003 169.426 313.27 170.356 312.737C173.217 311.096 185.636 308.056 185.636 308.056Z" fill="#355389"/>
<path d="M190.119 210.325C187.607 205.048 181.892 198.188 171.832 202.324C162.242 206.267 159.668 215.957 162.689 225.88C165.71 235.802 185.636 294.127 186.33 302.155L202.235 302.26C202.235 302.26 199.344 256.072 198.635 244.908C197.962 234.166 194.468 219.451 190.119 210.325Z" fill="#3C8F7C"/>
<path d="M164.3 156.6H217.468C218.156 156.599 218.829 156.804 219.401 157.187C219.973 157.571 220.418 158.116 220.678 158.753L237.049 198.694H266.361C266.754 198.694 267.131 198.85 267.41 199.128C267.688 199.406 267.844 199.783 267.845 200.176V200.176C267.845 200.57 267.688 200.948 267.41 201.226C267.132 201.504 266.754 201.661 266.361 201.661H182.933C181.811 201.661 180.712 201.336 179.769 200.725C178.827 200.115 178.081 199.245 177.621 198.22L161.137 161.488C160.899 160.96 160.798 160.381 160.842 159.804C160.886 159.226 161.074 158.669 161.388 158.183C161.703 157.697 162.134 157.297 162.643 157.021C163.151 156.744 163.721 156.6 164.3 156.6Z" fill="#F47458"/>
<path d="M192.925 179.859C193.277 181.653 194.849 182.849 196.419 182.538C197.99 182.226 198.972 180.515 198.614 178.721C198.255 176.926 196.69 175.73 195.12 176.04C193.55 176.35 192.567 178.065 192.925 179.859Z" fill="white"/>
<path opacity="0.3" d="M342.405 100.101C356.904 100.101 368.657 88.319 368.657 73.7853C368.657 59.2516 356.904 47.4697 342.405 47.4697C327.906 47.4697 316.152 59.2516 316.152 73.7853C316.152 88.319 327.906 100.101 342.405 100.101Z" fill="#9BC1F9"/>
<path d="M323.846 73.2681H314.168V74.0139H323.846V73.2681Z" fill="#184655"/>
<path d="M370.694 73.2681H361.016V74.0139H370.694V73.2681Z" fill="#184655"/>
<path d="M342.732 45.6826H341.988V55.385H342.732V45.6826Z" fill="#184655"/>
<path d="M342.732 92.4565H341.988V102.159H342.732V92.4565Z" fill="#184655"/>
<path d="M343.205 73.7855C343.205 73.9442 343.158 74.0993 343.07 74.2313C342.982 74.3632 342.856 74.466 342.71 74.5267C342.563 74.5873 342.402 74.6031 342.246 74.572C342.091 74.5409 341.948 74.4643 341.836 74.352C341.724 74.2397 341.647 74.0966 341.617 73.9409C341.586 73.7852 341.602 73.6238 341.663 73.4773C341.724 73.3308 341.827 73.2056 341.959 73.1177C342.091 73.0298 342.246 72.9831 342.405 72.9834C342.618 72.9839 342.821 73.0686 342.971 73.2189C343.121 73.3693 343.205 73.5731 343.205 73.7855V73.7855Z" fill="#184655"/>
<path d="M342.403 74.1439C342.356 74.1441 342.309 74.1349 342.266 74.1168C342.222 74.0987 342.183 74.072 342.15 74.0383L327.754 59.615C327.721 59.5817 327.694 59.5422 327.676 59.4987C327.658 59.4552 327.649 59.4085 327.648 59.3614C327.648 59.3143 327.658 59.2676 327.675 59.224C327.693 59.1805 327.72 59.1409 327.753 59.1075C327.786 59.0741 327.826 59.0476 327.869 59.0295C327.913 59.0114 327.959 59.002 328.007 59.002C328.054 59.0019 328.1 59.0111 328.144 59.029C328.187 59.047 328.227 59.0733 328.26 59.1066L342.656 73.53C342.71 73.5787 342.747 73.6428 342.763 73.7135C342.779 73.7843 342.773 73.8582 342.745 73.9252C342.717 73.9923 342.67 74.0491 342.608 74.0879C342.547 74.1267 342.475 74.1456 342.403 74.1421V74.1439Z" fill="#184655"/>
<path d="M347.03 88.3686C346.999 88.3533 346.972 88.332 346.949 88.306C346.927 88.2801 346.91 88.2499 346.9 88.2173L342.247 74.1282C342.226 74.0628 342.232 73.9918 342.263 73.9305C342.294 73.8693 342.348 73.8228 342.413 73.8013C342.478 73.7797 342.549 73.7847 342.611 73.8153C342.672 73.8459 342.719 73.8996 342.741 73.9646L347.394 88.0538C347.41 88.1027 347.411 88.1553 347.398 88.2051C347.384 88.2548 347.356 88.2993 347.317 88.3331C347.278 88.3668 347.23 88.3882 347.179 88.3945C347.128 88.4008 347.076 88.3918 347.03 88.3686Z" fill="#184655"/>
<path d="M384.243 133.143L386.587 129.336L384.705 128.573C384.606 128.533 384.516 128.475 384.44 128.4C384.364 128.325 384.304 128.236 384.263 128.138C384.222 128.04 384.2 127.934 384.2 127.828C384.2 127.721 384.221 127.616 384.262 127.518V127.518C384.302 127.419 384.36 127.329 384.435 127.253C384.51 127.177 384.599 127.116 384.697 127.075C384.795 127.034 384.9 127.013 385.007 127.013C385.113 127.012 385.219 127.033 385.317 127.074L387.487 127.954L389.581 124.536L387.571 123.72C387.472 123.68 387.383 123.621 387.307 123.547C387.231 123.472 387.171 123.383 387.13 123.285C387.088 123.187 387.067 123.081 387.067 122.975C387.067 122.868 387.087 122.763 387.128 122.665V122.665C387.168 122.566 387.227 122.476 387.301 122.4C387.376 122.324 387.465 122.264 387.563 122.223C387.661 122.182 387.767 122.16 387.873 122.16C387.979 122.16 388.085 122.181 388.183 122.221L390.481 123.154L392.901 119.258C393.001 119.096 393.154 118.976 393.335 118.917C393.515 118.859 393.71 118.866 393.886 118.937L394.237 119.08C394.345 119.124 394.443 119.191 394.523 119.276C394.603 119.361 394.663 119.463 394.699 119.574C394.736 119.685 394.748 119.803 394.734 119.919C394.72 120.035 394.682 120.147 394.62 120.246L392.357 123.94L395.69 125.293L398.123 121.368C398.223 121.207 398.377 121.087 398.557 121.028C398.737 120.969 398.932 120.976 399.108 121.046L399.491 121.203C399.599 121.247 399.697 121.314 399.777 121.399C399.857 121.484 399.917 121.586 399.953 121.697C399.99 121.808 400.002 121.926 399.988 122.042C399.974 122.158 399.936 122.27 399.875 122.369L397.611 126.063L399.495 126.826C399.593 126.866 399.683 126.925 399.759 127C399.835 127.074 399.895 127.163 399.936 127.262C399.977 127.36 399.999 127.465 399.999 127.572C399.999 127.678 399.978 127.783 399.938 127.882V127.882C399.898 127.98 399.839 128.07 399.764 128.146C399.69 128.222 399.601 128.282 399.503 128.323C399.405 128.365 399.299 128.386 399.193 128.386C399.086 128.386 398.981 128.366 398.883 128.325L396.711 127.445L394.656 130.867L396.665 131.681C396.764 131.721 396.854 131.779 396.93 131.854C397.006 131.929 397.066 132.018 397.108 132.116C397.149 132.214 397.17 132.32 397.17 132.426C397.171 132.533 397.149 132.638 397.109 132.736V132.736C397.069 132.835 397.01 132.925 396.936 133.001C396.861 133.077 396.772 133.138 396.674 133.179C396.576 133.22 396.47 133.241 396.364 133.241C396.257 133.242 396.152 133.221 396.054 133.18L393.755 132.247L391.271 136.293C391.171 136.455 391.017 136.576 390.837 136.636C390.656 136.695 390.46 136.688 390.284 136.617L389.873 136.45C389.765 136.406 389.667 136.338 389.587 136.253C389.507 136.167 389.447 136.066 389.411 135.954C389.374 135.843 389.362 135.726 389.376 135.609C389.39 135.493 389.428 135.381 389.49 135.282L391.833 131.475L388.493 130.123L386.008 134.168C385.908 134.33 385.754 134.452 385.573 134.511C385.392 134.57 385.196 134.563 385.02 134.492L384.61 134.325C384.501 134.279 384.403 134.211 384.324 134.124C384.244 134.036 384.185 133.933 384.15 133.82C384.115 133.707 384.105 133.588 384.121 133.471C384.137 133.354 384.178 133.242 384.243 133.143ZM392.734 130.093L394.828 126.675L391.496 125.322L389.402 128.742L392.734 130.093Z" fill="#07345A"/>
<path d="M178.678 29.583L181.074 24.1725L177.978 19.1331C177.899 19.004 177.858 18.8554 177.859 18.7042C177.861 18.553 177.904 18.4051 177.984 18.2772C178.065 18.1493 178.18 18.0463 178.315 17.98C178.451 17.9137 178.603 17.8866 178.753 17.9018L184.633 18.5052L188.47 14.0023C188.568 13.8886 188.696 13.8044 188.84 13.759C188.983 13.7137 189.136 13.709 189.282 13.7455C189.427 13.7819 189.56 13.8581 189.665 13.9655C189.77 14.073 189.844 14.2075 189.877 14.354L191.118 20.1392L196.59 22.4012C196.73 22.4591 196.852 22.5551 196.94 22.6783C197.029 22.8015 197.081 22.9471 197.091 23.0985C197.101 23.2498 197.068 23.401 196.997 23.5349C196.926 23.6687 196.818 23.7799 196.687 23.8559L191.57 26.8232L191.113 32.7227C191.101 32.8738 191.047 33.0186 190.958 33.1408C190.868 33.2629 190.746 33.3575 190.605 33.4138C190.464 33.4702 190.311 33.486 190.162 33.4597C190.012 33.4333 189.874 33.3657 189.761 33.2645L185.365 29.3139L179.617 30.7017C179.469 30.7386 179.314 30.7332 179.169 30.6862C179.024 30.6392 178.896 30.5524 178.798 30.4358C178.7 30.3192 178.637 30.1774 178.616 30.0266C178.594 29.8759 178.616 29.7221 178.678 29.583V29.583Z" fill="#F48C7F"/>
<path d="M352.234 29.5776L354.031 25.5198L351.708 21.738C351.648 21.6412 351.617 21.5294 351.617 21.4156C351.618 21.3017 351.65 21.1902 351.711 21.0938C351.771 20.9974 351.858 20.92 351.96 20.8703C352.063 20.8207 352.177 20.8007 352.29 20.8128L356.702 21.2684L359.58 17.8912C359.654 17.8062 359.751 17.7435 359.858 17.7099C359.966 17.6763 360.081 17.6731 360.19 17.7008C360.299 17.7285 360.399 17.7859 360.477 17.8667C360.556 17.9475 360.611 18.0485 360.635 18.1586L361.565 22.4979L365.666 24.19C365.771 24.2335 365.862 24.3057 365.928 24.3982C365.995 24.4908 366.034 24.6001 366.041 24.7137C366.049 24.8274 366.025 24.9409 365.971 25.0413C365.917 25.1418 365.837 25.2253 365.738 25.2823L361.901 27.5074L361.55 31.9329C361.541 32.0465 361.5 32.1553 361.433 32.2471C361.365 32.3388 361.274 32.4099 361.168 32.4522C361.062 32.4944 360.947 32.5063 360.834 32.4863C360.722 32.4663 360.618 32.4154 360.533 32.3392L357.245 29.3754L352.934 30.4167C352.823 30.4436 352.707 30.439 352.599 30.4034C352.491 30.3679 352.395 30.3027 352.322 30.2153C352.25 30.1279 352.203 30.0219 352.187 29.9091C352.171 29.7964 352.188 29.6816 352.234 29.5776V29.5776Z" fill="#F7CC7F"/>
<path d="M334.393 145.504L334.109 142.143L331.179 140.472C331.104 140.429 331.042 140.366 331.001 140.29C330.96 140.215 330.941 140.129 330.946 140.042C330.951 139.956 330.98 139.873 331.03 139.803C331.08 139.732 331.149 139.677 331.228 139.644L334.337 138.333L335.019 135.03C335.037 134.945 335.078 134.867 335.138 134.804C335.197 134.742 335.273 134.697 335.357 134.675C335.441 134.653 335.529 134.655 335.612 134.681C335.694 134.707 335.768 134.755 335.825 134.82L338.03 137.374L341.381 137.003C341.467 136.994 341.555 137.009 341.633 137.046C341.711 137.084 341.777 137.143 341.824 137.216C341.87 137.289 341.895 137.374 341.896 137.461C341.897 137.548 341.873 137.633 341.828 137.707L340.084 140.593L341.473 143.666C341.508 143.745 341.52 143.832 341.509 143.918C341.497 144.003 341.462 144.084 341.407 144.15C341.353 144.217 341.28 144.267 341.199 144.295C341.117 144.323 341.029 144.328 340.945 144.308L337.661 143.531L335.167 145.817C335.103 145.876 335.023 145.916 334.937 145.931C334.851 145.947 334.763 145.938 334.682 145.905C334.601 145.872 334.531 145.817 334.48 145.746C334.429 145.675 334.399 145.591 334.393 145.504V145.504Z" fill="#F48C7F"/>
<path d="M65.5907 96.0902L66.9095 93.1158L65.2056 90.342C65.1624 90.2708 65.1399 90.1889 65.1406 90.1056C65.1413 90.0224 65.1652 89.9409 65.2096 89.8704C65.2539 89.8 65.317 89.7432 65.3918 89.7066C65.4665 89.67 65.55 89.6549 65.6329 89.663L68.8683 89.9972L70.9783 87.5206C71.0324 87.457 71.1032 87.4098 71.1828 87.3844C71.2623 87.359 71.3473 87.3565 71.4283 87.377C71.5092 87.3975 71.5827 87.4403 71.6406 87.5005C71.6984 87.5607 71.7382 87.6359 71.7555 87.7176L72.4483 90.8996L75.4551 92.1414C75.5324 92.173 75.5993 92.2257 75.6482 92.2934C75.6971 92.3611 75.726 92.4412 75.7317 92.5246C75.7373 92.6079 75.7196 92.6912 75.6803 92.7649C75.6411 92.8386 75.5819 92.8999 75.5096 92.9417L72.6962 94.574L72.4448 97.8175C72.4386 97.9008 72.4091 97.9806 72.3598 98.048C72.3106 98.1153 72.2434 98.1675 72.166 98.1987C72.0885 98.2298 72.0039 98.2386 71.9217 98.2241C71.8396 98.2096 71.7631 98.1723 71.701 98.1165L69.2797 95.9425L66.1147 96.7059C66.0329 96.7281 65.9465 96.7266 65.8655 96.7016C65.7845 96.6765 65.7123 96.629 65.6574 96.5644C65.6024 96.4998 65.567 96.421 65.5552 96.337C65.5434 96.253 65.5557 96.1674 65.5907 96.0902V96.0902Z" fill="#F7CC7F"/>
<path d="M167.595 90.7065L168.913 87.7321L167.21 84.9582C167.166 84.887 167.144 84.8052 167.145 84.7219C167.145 84.6386 167.169 84.5572 167.213 84.4867C167.258 84.4162 167.321 84.3595 167.396 84.3228C167.47 84.2862 167.554 84.2711 167.637 84.2793L170.872 84.6135L172.982 82.1369C173.037 82.0734 173.107 82.0263 173.187 82.001C173.267 81.9757 173.352 81.9732 173.433 81.9937C173.514 82.0141 173.587 82.0569 173.645 82.117C173.703 82.1771 173.744 82.2522 173.761 82.3339L174.443 85.5158L177.45 86.7576C177.527 86.7894 177.594 86.8422 177.643 86.9101C177.692 86.9779 177.72 87.058 177.726 87.1414C177.731 87.2247 177.713 87.3079 177.674 87.3815C177.635 87.4552 177.575 87.5163 177.503 87.558L174.69 89.1903L174.433 92.4338C174.426 92.517 174.397 92.5968 174.347 92.664C174.298 92.7313 174.23 92.7834 174.153 92.8145C174.075 92.8456 173.991 92.8544 173.908 92.8399C173.826 92.8255 173.75 92.7884 173.687 92.7328L171.268 90.5587L168.103 91.3221C168.022 91.3405 167.938 91.3362 167.859 91.3095C167.781 91.2828 167.712 91.2349 167.659 91.171C167.606 91.1072 167.572 91.0299 167.561 90.9479C167.55 90.8658 167.561 90.7823 167.595 90.7065V90.7065Z" fill="#50BFA5"/>
<path d="M116.814 42.5056L122.036 41.7475L124.183 50.018L131.955 49.8527L134.573 55.7804L137.573 54.4541L134.07 46.5265L126.705 46.6831L124.471 38.0801L116.613 39.2199L116.814 42.5056Z" fill="#50BFA5"/>
<path d="M105.612 181.051L109.565 177.552L115.893 183.292L122.303 178.889L127.741 182.409L129.522 179.656L122.25 174.947L116.175 179.12L109.591 173.148L103.645 178.412L105.612 181.051Z" fill="#07345A"/>
<path d="M43.543 185.378L46.8593 179.989L44.1972 178.909C44.0584 178.853 43.9321 178.77 43.8254 178.665C43.7187 178.56 43.6337 178.435 43.5754 178.298C43.5171 178.16 43.4865 178.012 43.4855 177.862C43.4845 177.713 43.513 177.564 43.5694 177.426V177.426C43.6253 177.287 43.708 177.161 43.8128 177.054C43.9176 176.947 44.0425 176.862 44.1802 176.804C44.3179 176.745 44.4658 176.715 44.6154 176.714C44.7649 176.713 44.9132 176.741 45.0517 176.798L48.1236 178.043L51.0882 173.204L48.2432 172.05C48.1047 171.994 47.9787 171.911 47.8723 171.806C47.7659 171.701 47.6813 171.576 47.6231 171.439C47.565 171.301 47.5346 171.153 47.5335 171.004C47.5325 170.854 47.5609 170.706 47.6172 170.568V170.568C47.6732 170.429 47.7561 170.303 47.8609 170.196C47.9657 170.09 48.0906 170.005 48.2282 169.946C48.3659 169.888 48.5137 169.857 48.6632 169.856C48.8127 169.855 48.961 169.884 49.0995 169.94L52.3525 171.259L55.7953 165.718C55.9372 165.49 56.155 165.319 56.4104 165.236C56.6658 165.153 56.9424 165.162 57.1915 165.263L57.6874 165.465C57.8406 165.527 57.9785 165.622 58.0914 165.742C58.2044 165.863 58.2896 166.007 58.3414 166.164C58.3931 166.321 58.41 166.487 58.3908 166.652C58.3717 166.816 58.3171 166.974 58.2307 167.115L55.0287 172.344L59.7446 174.258L63.1875 168.715C63.3294 168.488 63.547 168.317 63.802 168.234C64.0571 168.151 64.3333 168.161 64.5819 168.262L65.1235 168.482C65.2768 168.544 65.4147 168.639 65.5276 168.759C65.6406 168.88 65.7259 169.024 65.7776 169.181C65.8293 169.339 65.8461 169.505 65.827 169.67C65.8079 169.834 65.7532 169.992 65.6668 170.133L62.4648 175.368L65.1288 176.448C65.4085 176.562 65.6315 176.782 65.7489 177.06C65.8663 177.339 65.8684 177.652 65.7547 177.932V177.932C65.6412 178.212 65.4213 178.435 65.1434 178.553C64.8655 178.671 64.5523 178.673 64.2724 178.56L61.1953 177.303L58.2764 182.161L61.1197 183.315C61.2584 183.371 61.3848 183.453 61.4915 183.558C61.5982 183.663 61.6831 183.788 61.7414 183.926C61.7998 184.063 61.8303 184.211 61.8313 184.361C61.8324 184.511 61.8039 184.659 61.7474 184.798V184.798C61.6916 184.936 61.6089 185.063 61.504 185.169C61.3992 185.276 61.2744 185.361 61.1367 185.419C60.9989 185.478 60.851 185.508 60.7015 185.509C60.5519 185.51 60.4036 185.482 60.2651 185.425L57.0121 184.106L53.4954 189.821C53.3537 190.052 53.1342 190.225 52.8763 190.309C52.6185 190.393 52.3392 190.382 52.0887 190.278L51.5084 190.043C51.355 189.981 51.2169 189.886 51.1037 189.765C50.9906 189.644 50.9052 189.5 50.8535 189.343C50.8017 189.186 50.7849 189.019 50.8042 188.855C50.8235 188.69 50.8784 188.532 50.9651 188.391L54.2832 183.002L49.5655 181.09L46.0487 186.804C45.907 187.036 45.6875 187.209 45.4296 187.293C45.1718 187.376 44.8926 187.365 44.642 187.262L44.0618 187.026C43.9109 186.962 43.7757 186.865 43.6656 186.744C43.5554 186.622 43.4729 186.478 43.4236 186.321C43.3743 186.165 43.3595 185.999 43.3801 185.837C43.4007 185.674 43.4563 185.517 43.543 185.378V185.378ZM55.5685 181.06L58.5349 176.221L53.8102 174.312L50.8438 179.151L55.5685 181.06Z" fill="#50BFA5"/>
<path d="M344.809 253.545C344.471 250.565 344.072 247.517 342.688 244.857C341.007 241.624 338.053 239.292 335.479 236.722C330.64 231.893 326.961 226.027 324.72 219.567C322.998 214.589 322.138 209.286 319.766 204.584C318.317 201.716 316.341 199.149 314.695 196.388C310.804 189.86 308.687 182.14 303.412 176.688C302.924 180.01 303.148 183.399 304.069 186.629C304.99 189.858 306.587 192.855 308.754 195.42C310.053 196.937 311.567 198.303 312.55 200.038C314.347 203.188 314.183 207.029 314.394 210.651C314.797 217.483 316.699 224.142 319.965 230.156C323.425 236.515 328.423 242.177 330.272 249.177C331.66 254.424 331.247 260.31 334.204 264.857C334.524 265.349 334.89 265.843 334.969 266.427C334.997 266.757 334.978 267.088 334.911 267.412C334.844 267.834 334.779 268.257 334.712 268.679C334.039 272.974 333.344 278.437 337.033 281.651C339.59 283.878 342.88 283.938 344.716 280.97C346.551 278.003 346.402 273.63 346.263 270.278C346.034 264.693 345.437 259.094 344.809 253.545Z" fill="#3C8F7C"/>
<path d="M351.454 250.092C350.019 245.121 347.791 240.386 346.675 235.334C345.592 230.434 345.585 225.366 345.581 220.348C345.581 214.848 345.577 209.348 345.569 203.847C345.569 200.422 345.569 196.987 344.997 193.603C343.779 186.339 340.005 179.619 339.37 172.279C339.094 169.113 339.414 165.898 339.066 162.732C338.866 160.922 338.403 159.077 337.566 157.471C337.363 157.083 337.054 156.76 336.676 156.539C336.298 156.317 335.865 156.206 335.428 156.219C334.99 156.231 334.564 156.366 334.199 156.608C333.834 156.85 333.544 157.19 333.362 157.589C331.528 161.564 330.373 165.856 331.106 170.116C331.551 172.672 332.657 175.053 333.482 177.503C337.16 188.444 335.207 200.556 338.053 211.745C338.913 215.122 340.211 218.429 340.362 221.915C340.724 230.247 334.502 237.86 335.073 246.188C335.541 253.011 340.445 258.658 342.502 265.176C343.656 268.828 343.909 272.722 345.14 276.346C346.098 279.16 348.329 282.579 351.793 281.725C355.082 280.914 354.088 278.228 353.94 275.663C353.436 266.986 353.902 258.566 351.454 250.092Z" fill="#327F6B"/>
<path d="M358.982 254.646C358.838 252.063 358.402 249.466 358.763 246.906C359.068 244.743 359.928 242.704 360.544 240.609C361.695 236.681 361.98 232.559 362.26 228.472C362.766 221.047 363.273 213.623 363.781 206.199C364.569 194.657 365.363 183.083 367.519 171.724C368.117 168.568 368.79 165.15 367.373 162.269C367.074 161.662 366.485 161.019 365.842 161.214C365.383 161.358 365.156 161.863 364.991 162.315C360.275 175.134 358.485 188.937 353.229 201.539C351.968 204.558 350.502 207.52 349.849 210.735C349.065 214.586 349.498 218.564 349.596 222.492C349.742 228.121 349.193 233.804 347.639 239.221C346.825 242.055 345.735 244.825 345.288 247.74C344.732 251.376 345.2 255.077 345.548 258.739C346.217 265.779 346.443 272.854 346.225 279.922C346.099 284.075 349.603 283.967 351.926 281.415C353.551 279.63 353.535 277.67 354.091 275.449C355.917 268.156 359.425 262.554 358.982 254.646Z" fill="#3C8F7C"/>
<path d="M337.083 265.91C333.983 260.929 327.807 258.097 325.829 252.57C325.324 251.163 325.126 249.652 324.512 248.291C323.144 245.269 320.033 243.561 316.976 242.171C316.878 242.127 316.77 242.107 316.663 242.115C316.556 242.122 316.452 242.157 316.361 242.215C316.271 242.272 316.196 242.352 316.144 242.446C316.092 242.54 316.064 242.646 316.063 242.753V242.753C316.055 243.119 316.139 243.482 316.306 243.807C316.473 244.133 316.718 244.412 317.02 244.62C319.396 246.225 321.142 248.605 321.961 251.355C322.905 254.593 322.488 258.144 323.67 261.305C324.654 263.961 326.684 266.13 327.637 268.796C328.507 271.234 328.416 273.897 328.825 276.455C329.235 279.012 330.371 281.732 332.716 282.805C341.204 286.727 339.082 269.129 337.083 265.91Z" fill="#327F6B"/>
<path d="M372.395 264.267C372.261 266.675 372.63 269.192 371.692 271.421C371.088 272.84 370.003 273.989 369.114 275.248C365.989 279.67 364.855 285.937 360.053 288.426C359.735 288.592 359.381 288.738 359.031 288.673C358.539 288.581 358.217 288.106 358.018 287.645C356.842 284.901 358.163 281.809 358.945 278.928C359.082 278.423 359.196 277.86 358.956 277.398C358.692 276.888 358.089 276.666 357.677 276.265C356.858 275.466 356.933 274.154 357.097 273.011C357.505 270.176 358.077 267.367 358.81 264.598C359.226 263.029 359.706 261.446 360.61 260.097C361.605 258.614 363.051 257.506 364.405 256.341C370.412 251.153 374.938 244.466 377.524 236.96C378.08 235.343 378.579 233.635 379.722 232.369C380.865 231.102 382.912 230.45 384.308 231.433C385.301 232.136 381.232 238.682 380.758 239.466C379.402 241.71 379.384 243.663 378.618 246.15C376.742 252.261 372.754 257.724 372.395 264.267Z" fill="#3C8F7C"/>
<path d="M367.662 267.052C368.55 264.754 369.445 262.426 369.739 259.979C370.064 257.26 369.631 254.477 370.09 251.779C370.686 248.307 372.71 245.255 373.711 241.879C374.433 239.441 374.611 236.879 375.047 234.374C376.289 227.208 379.656 220.206 378.689 212.997C378.479 211.43 377.773 209.603 376.216 209.335C374.81 209.093 373.526 210.38 373.16 211.764C372.795 213.149 373.067 214.609 373.16 216.039C373.428 220.06 372.311 224.052 369.995 227.35C367.783 230.481 364.573 232.84 362.582 236.117C360.14 240.138 359.807 245.045 358.562 249.582C356.083 258.607 349.869 266.48 348.735 275.771C348.285 279.465 349.152 283.962 352.563 285.445C362.448 289.71 365.427 272.833 367.662 267.052Z" fill="#327F6B"/>
<path d="M350.415 278.506H327.776C327.414 278.506 327.056 278.589 326.73 278.747C326.404 278.906 326.118 279.136 325.894 279.42C325.67 279.705 325.513 280.037 325.435 280.391C325.357 280.745 325.36 281.112 325.445 281.464L333.697 316.276C333.82 316.801 334.118 317.27 334.541 317.605C334.964 317.94 335.488 318.122 336.028 318.123H363.225C363.765 318.122 364.288 317.94 364.712 317.605C365.135 317.27 365.432 316.801 365.556 316.276L373.808 281.464C373.893 281.112 373.896 280.745 373.818 280.391C373.74 280.037 373.583 279.705 373.359 279.42C373.134 279.136 372.849 278.906 372.523 278.747C372.197 278.589 371.839 278.506 371.477 278.506H350.415Z" fill="#F47458"/>
<path d="M123.274 237.76H13.2266V243.445H123.274V237.76Z" fill="#184655"/>
<path d="M87.1676 270.742H15.2188V275.716H87.1676V270.742Z" fill="#184655"/>
<path d="M112.474 240.604H107.832V318.149H112.474V240.604Z" fill="#184655"/>
<path d="M46.8257 240.604H42.1836V318.149H46.8257V240.604Z" fill="#184655"/>
<path d="M74.8143 318.149L99.8201 241.271L95.7213 239.936L70.2812 318.149H74.8143Z" fill="#184655"/>
<path d="M4.47329 318.149L25.8603 241.102L21.707 239.948L0 318.149H4.47329Z" fill="#184655"/>
<path d="M342.403 43.0513C325.47 43.0513 311.742 56.8115 311.742 73.7854C311.742 90.7592 325.477 104.519 342.403 104.519C359.329 104.519 373.062 90.7627 373.062 73.7854C373.062 56.808 359.336 43.0513 342.403 43.0513ZM344.047 100.041C329.576 100.952 317.109 89.9307 316.201 75.4247C315.294 60.9187 326.287 48.4231 340.759 47.512C355.23 46.6008 367.695 57.6224 368.603 72.1372C369.51 86.6521 358.517 99.1388 344.047 100.05V100.041Z" fill="#184655"/>
<path d="M225.469 98.4281L233.643 98.2944C233.643 98.2944 233.506 101.404 229.912 101.566C225.532 101.765 225.469 98.4281 225.469 98.4281Z" fill="white"/>
</svg>
