<svg width="68" height="58" viewBox="0 0 68 58" fill="none" xmlns="http://www.w3.org/2000/svg">
<g filter="url(#filter0_d)">
<path d="M63.6787 5.99106C61.4885 6.98507 59.1357 7.6567 56.6622 7.96028C59.2144 6.39617 61.1237 3.93444 62.0341 1.03444C59.6363 2.49319 57.012 3.51999 54.2753 4.0702C52.4349 2.05764 49.9973 0.723681 47.3409 0.27543C44.6845 -0.172821 41.958 0.289716 39.5845 1.59123C37.2111 2.89274 35.3236 4.96041 34.215 7.47322C33.1065 9.98603 32.839 12.8034 33.454 15.4879C28.5954 15.238 23.8424 13.9446 19.5034 11.6916C15.1645 9.43856 11.3365 6.27626 8.26804 2.40994C7.21884 4.26363 6.61556 6.41284 6.61556 8.70175C6.61439 10.7623 7.10981 12.7913 8.05788 14.6087C9.00595 16.4261 10.3773 17.9757 12.0504 19.1201C10.1101 19.0568 8.21262 18.5198 6.51588 17.5538V17.715C6.51569 20.605 7.49172 23.4061 9.27837 25.6429C11.065 27.8797 13.5522 29.4146 16.318 29.987C14.5181 30.4859 12.631 30.5594 10.7992 30.2019C11.5796 32.6886 13.0996 34.8631 15.1465 36.421C17.1934 37.9789 19.6647 38.8422 22.2145 38.8901C17.8861 42.3703 12.5406 44.258 7.03786 44.2497C6.06311 44.25 5.08918 44.1917 4.12109 44.0751C9.70669 47.7534 16.2087 49.7055 22.8492 49.698C45.3282 49.698 57.617 30.6291 57.617 14.0909C57.617 13.5536 57.6038 13.0109 57.5802 12.4736C59.9705 10.7031 62.0338 8.51073 63.6734 5.99912L63.6787 5.99106V5.99106Z" fill="white"/>
</g>
<defs>
<filter id="filter0_d" x="0.121094" y="0.108887" width="67.5576" height="57.5891" filterUnits="userSpaceOnUse" color-interpolation-filters="sRGB">
<feFlood flood-opacity="0" result="BackgroundImageFix"/>
<feColorMatrix in="SourceAlpha" type="matrix" values="0 0 0 0 0 0 0 0 0 0 0 0 0 0 0 0 0 0 127 0" result="hardAlpha"/>
<feOffset dy="4"/>
<feGaussianBlur stdDeviation="2"/>
<feColorMatrix type="matrix" values="0 0 0 0 0 0 0 0 0 0 0 0 0 0 0 0 0 0 0.25 0"/>
<feBlend mode="normal" in2="BackgroundImageFix" result="effect1_dropShadow"/>
<feBlend mode="normal" in="SourceGraphic" in2="effect1_dropShadow" result="shape"/>
</filter>
</defs>
</svg>
